<svg width="449" height="258" viewBox="0 0 449 258" fill="none" xmlns="http://www.w3.org/2000/svg">
<path d="M322.373 94.5424L296.469 112.403L260.532 137.176C259.371 138.151 258.138 139.096 256.84 139.988C255.543 140.881 254.209 141.713 252.847 142.478L231.092 156.642C225.134 160.825 215.997 160.825 210.496 156.649L186.886 139.988L162.535 123.29L124.634 97.3092C98.264 79.2313 89.0902 46.1572 107.776 23.438C128.298 -1.5231 171.216 -1.5231 198.664 23.438L219.478 42.3782C220.474 43.278 222.082 43.2705 223.06 42.3707L246.643 20.7612C272.593 -3.02272 313.235 -6.18691 335.722 15.6025C359.314 38.4717 350.524 75.1298 322.373 94.5424Z" fill="#95D5BD"/>
<path d="M238.949 133.72L241.087 130.361C241.087 130.361 235.231 135.317 228.25 148.108C226.093 151.198 224.056 154.272 222.347 157.136C217.267 147.906 209.034 140.265 205.562 137.274L204.465 132.647C204.338 132.093 211.556 126.357 212.378 125.382C214.736 122.593 216.664 119.556 218.053 116.362C221.004 109.531 218.93 103.232 219.606 96.3717C220.885 97.2565 221.927 98.4562 223.005 99.5284C223.425 98.6961 223.846 97.8563 224.257 97.0165C223.745 98.0588 226.038 104.74 226.349 106.344C226.797 108.639 227.327 110.933 228.003 113.19C228.003 113.19 231.503 122.428 241.928 129.963C241.033 131.08 240.028 132.34 238.949 133.72ZM312.486 130.428L312.44 130.346C327.663 120.418 329.499 105.092 329.463 97.9763C329.518 98.0213 329.572 98.0513 329.627 98.0888L329.463 97.9463C329.444 95.5619 329.216 94.0923 329.216 94.0923C330.376 87.6214 353.448 78.2039 350.652 50.281C350.387 47.5742 345.654 46.7194 342.401 47.2293C319.074 50.8958 304.217 64.7298 304.217 64.7298L295.344 62.4579C291.571 60.8383 288.035 59.6536 284.736 58.7913L283.603 57.8016C283.484 58.0115 283.384 58.214 283.265 58.4239C279.912 57.6366 276.823 57.1942 274.027 56.9918L270.253 56.017C270.272 56.1445 270.272 56.4369 270.244 56.8493C265.018 56.8643 261.098 57.7041 258.649 58.4389C258.375 58.3864 258.101 58.3264 257.818 58.2665C254.254 53.3027 234.381 31.8282 220.62 30.0287C206.805 28.2141 212.927 50.176 212.927 50.176L216.572 50.8359C213.53 51.8781 209.08 53.4077 198.874 51.5557C186.237 49.2613 183.907 59.3387 183.907 59.3387V59.3462C174.422 55.3047 166.153 54.4274 163.074 55.9196C156.084 59.2937 143.347 63.6801 134.703 63.6801C126.077 63.6801 124.021 71.778 124.021 71.778L124.917 74.1699C122.961 73.0377 120.595 72.5203 117.735 72.8352C111.275 73.5475 106.807 78.4588 103.801 82.7702C102.11 85.2071 100.712 87.7789 99.4879 90.3957C98.5194 92.4652 98.4463 94.9246 97.0757 96.8516C96.8564 97.159 96.6097 97.4364 96.3356 97.7064C94.901 99.1085 92.7721 100.068 90.9994 101.111C86.0379 104.035 82.2094 108.331 80.6835 113.197C75.5301 129.708 97.6787 140.093 112.444 146.099C114.071 146.766 115.898 147.651 117.808 148.341L117.616 149.571C116.145 152.442 99.3234 187.218 138.358 198.758C138.358 198.758 153.571 201.247 153.544 182.915L153.535 182.907C155.481 183.469 157.473 183.904 159.501 184.182C165.066 184.947 170.786 184.324 176.104 182.87C179.183 182.022 182.719 180.98 185.57 179.361V179.368C185.57 179.368 188.201 189.25 187.662 190.998C187.169 192.625 207.444 205.469 221.415 185.696L221.47 185.711L221.397 185.734C219.999 187.953 227.108 192.475 228.898 193.674C232.992 196.434 237.78 198.121 243.189 197.686C255.15 196.726 260.687 188.006 256.548 179.683L257.681 178.633C266.324 180.92 279.491 182.465 296.094 178.521C298.286 185.059 303.476 192.97 312.458 194.387C315.044 194.792 317.712 194.424 320.298 194.034C322.518 193.697 324.775 193.322 326.74 192.407C342.246 185.194 333.41 163.405 328.247 153.387C324.099 145.319 318.745 137.529 312.486 130.428Z" fill="#95D5BD"/>
<path d="M222.347 157.136C222.347 157.136 223.352 166.284 226.971 170.835C230.589 175.387 221.397 185.734 221.397 185.734L223.197 189.408C223.197 189.408 227.309 195.264 238.273 197.476C249.238 199.695 257.681 186.656 257.681 186.656V178.633C257.681 178.633 272.072 182.93 281.492 180.755C290.913 178.588 296.094 180.478 296.094 180.478C296.094 180.478 297.044 186.026 307.497 192.797C317.959 199.568 333.227 190.555 337.823 179.803C342.42 169.051 315.775 130.736 315.775 130.736C315.775 130.736 308.877 129.963 301.914 134.822C294.952 139.681 274.457 137.499 262.734 137.499C251.011 137.499 241.088 130.361 241.088 130.361L222.347 157.136ZM159.501 184.182C174.276 186.724 188.85 175.627 188.85 175.627L190.513 168.368L185.506 157.136C185.506 157.136 164.646 140.701 153.544 151.003C142.433 161.305 147.724 178.918 147.724 178.918C147.724 178.918 144.717 181.64 159.501 184.182ZM308.064 77.3942C308.064 77.3942 312.422 73.9526 313.244 71.5232C314.076 69.0939 327.782 61.7607 333.931 60.8085C340.071 59.8562 334.991 68.0666 334.991 68.0666L325.781 80.1161L319.586 83.8726L322.921 89.6461C322.921 89.6461 322.254 95.5321 330.066 92.2105C337.878 88.8963 348.386 65.7572 348.386 65.7572L350.862 56.0172L348.386 47.8143C325.187 46.0598 301.914 67.0019 301.914 67.0019L308.064 77.3942ZM283.265 58.4241C283.265 58.4241 272.629 77.0193 277.116 86.7519C281.602 96.4844 280.862 92.7503 291.443 94.0775C302.024 95.4121 313.244 93.905 313.244 93.905L326.941 96.3719L330.066 92.2105C330.066 92.2105 325.89 81.4282 321.011 79.2463C316.123 77.0643 302.709 61.6483 283.265 58.4241ZM226.971 54.1952C226.971 54.1952 225.079 45.7673 226.971 42.5207C228.862 39.274 241.928 58.1167 241.928 58.1167L240.265 60.8085L238.273 65.8172L241.928 67.0019L257.681 65.8172L259.115 56.1297C259.115 56.1297 238.018 31.6034 222.027 30.2763C206.046 28.9491 212.927 50.1762 212.927 50.1762C217.505 47.0045 226.971 54.1952 226.971 54.1952ZM230.278 62.6905C228.259 62.2406 224.074 91.3782 224.074 91.3782L240.265 89.6461L253.514 91.3782L262.734 84.7199C262.734 84.7199 262.131 78.474 262.743 77.0343C263.355 75.5947 267.558 71.7182 267.558 71.7182L266.398 65.5773L267.558 58.934L270.254 56.0172L266.041 56.677L232.261 65.2324L230.278 62.6905ZM117.808 148.341C117.808 148.341 125.356 150.186 128.453 147.306C131.551 144.42 139.061 95.982 132.053 82.6804C125.036 69.3863 116.593 69.7537 110.745 75.5197C104.888 81.2783 97.0759 96.8518 97.0759 96.8518C97.0759 96.8518 83.1051 107.439 81.8898 110.318C80.6837 113.198 77.7598 123.305 87.9478 132.633C98.1358 141.96 117.808 148.341 117.808 148.341ZM191.116 51.8333C195.785 51.8633 206.092 52.3956 208.358 53.3479C210.615 54.3076 215.293 50.6111 220.867 50.4911C226.441 50.3637 230.324 64.8649 228.46 74.7999C226.605 84.7274 222.027 99.6486 222.027 99.6486C222.027 99.6486 219.606 96.3719 215.412 87.5242C211.209 78.6839 194.479 62.4281 183.907 59.3389C183.907 59.3389 186.447 51.8033 191.116 51.8333Z" fill="#95D5BD"/>
<path d="M151.936 92.1279C151.223 89.6011 152.411 87.2242 154.586 86.8118C156.76 86.3994 159.09 88.1089 159.803 90.6283C160.516 93.1551 159.337 95.532 157.162 95.9444C154.988 96.3568 152.648 94.6473 151.936 92.1279ZM175.09 87.4191C175.19 84.8323 177.081 82.7853 179.311 82.8453C181.54 82.8978 183.267 85.0422 183.167 87.6366C183.066 90.2234 181.175 92.2704 178.945 92.2104C176.716 92.1579 174.989 90.0134 175.09 87.4191ZM289.57 84.6223C288.857 87.1417 286.518 88.8512 284.343 88.4389C282.169 88.0265 280.99 85.6496 281.703 83.1227C282.406 80.6034 284.754 78.8938 286.92 79.3137C289.095 79.7186 290.282 82.103 289.57 84.6223ZM249.622 79.2162C250.481 76.7268 252.911 75.1073 255.068 75.6021C257.206 76.1045 258.257 78.5264 257.398 81.0158C256.539 83.5126 254.108 85.1247 251.961 84.6298C249.814 84.1275 248.772 81.7056 249.622 79.2162ZM325.506 190.623C323.944 191.342 322.016 191.68 319.841 192.01C317.292 192.4 315.017 192.7 312.934 192.362C305.03 191.125 300.936 183.919 299.237 179.878C300.635 179.511 302.051 179.106 303.504 178.656L301.731 174.817C268.728 185.059 247.785 172.597 247.575 172.47L244.569 175.754C244.907 175.964 248.151 177.906 253.843 179.728C255.872 183.207 255.981 186.859 254.081 189.933C252.052 193.195 248.096 195.227 242.952 195.646C238.712 195.984 234.5 194.792 230.479 192.085L230.077 191.815C224.924 188.396 223.937 186.964 223.754 186.476C224.787 184.999 225.783 183.357 226.733 181.52C230.635 173.962 229.255 165.947 225.783 158.666C232.718 142.897 239.626 135.047 242.011 132.633C249.503 137.604 260.011 141.608 274.475 141.608C274.786 141.608 275.115 141.608 275.425 141.6C290.383 141.42 302.563 138.624 311.837 133.285C317.393 139.831 322.162 146.834 325.945 154.19C330.468 162.977 339.486 184.114 325.506 190.623ZM223.608 186.679C223.617 186.664 223.626 186.664 223.626 186.656C223.626 186.664 223.626 186.671 223.617 186.679H223.608ZM203.515 194.514C196.8 194.942 191.482 191.762 190.212 190.638C190.294 188.336 189.234 183.649 188.357 180.23C189.334 179.563 190.221 178.813 190.979 177.958C193.83 174.719 194.552 170.61 193.181 165.414C191.774 160.098 186.429 154.512 179.229 150.83C172.504 147.389 165.139 146.129 159.063 147.359C154.357 148.326 150.282 151.573 147.294 156.776C142.826 164.537 141.364 176.099 144.224 181.033C144.882 182.165 146.417 182.757 148.363 183.402C148.592 183.477 148.783 183.537 148.911 183.589C149.597 183.852 150.291 184.092 150.995 184.324C150.748 189.4 149.131 193.112 146.262 195.077C143.292 197.116 139.765 196.846 138.997 196.764C128.755 193.697 121.737 188.658 118.146 181.782C111.723 169.508 117.872 154.692 119.599 151.033C120.632 151.258 121.682 151.408 122.751 151.408C124.086 151.408 125.438 151.198 126.772 150.673C135.068 147.426 137.389 114.217 136.996 104.11C136.512 91.753 134.977 78.3989 127.293 73.0603C126.699 72.6554 126.077 72.333 125.447 72.0256L126.47 72.2055C126.543 71.9431 128.252 65.7347 134.712 65.7347C144.224 65.7347 157.647 60.9209 164.344 57.6892C165.55 57.1119 169.699 56.9319 176.204 58.8214C182.628 60.681 204.447 68.5989 215.412 92.4128C221.36 105.332 217.23 119.631 204.648 129.723C190.541 141.045 169.763 144.097 150.446 137.694L148.573 141.503C155.883 143.932 163.385 145.109 170.722 145.109C181.933 145.109 192.715 142.298 201.825 136.944C205.498 139.988 231.265 162.227 222.119 179.915C217.422 188.996 210.99 194.049 203.515 194.514ZM175.318 180.92C169.991 182.375 164.664 182.81 159.913 182.157C156.879 181.737 153.891 180.973 151.059 179.87C150.867 179.803 150.583 179.705 150.255 179.593C149.889 179.473 149.03 179.188 148.592 178.986C146.782 175.267 147.76 165.579 151.817 158.531C153.443 155.712 156.23 152.18 160.269 151.355C165.048 150.38 170.987 151.46 176.579 154.317C182.683 157.436 187.16 162.018 188.284 166.284C189.353 170.333 188.914 173.28 186.913 175.552C184.592 178.206 179.914 179.66 175.318 180.92ZM83.1142 113.707C84.43 109.493 87.8382 105.504 92.4707 102.775C92.8911 102.528 93.3479 102.28 93.7956 102.033C95.2759 101.216 96.9571 100.293 98.2546 99.0261C98.6201 98.6662 98.9399 98.2988 99.2323 97.8939C100.237 96.4768 100.667 94.9022 101.051 93.5151C101.279 92.6453 101.498 91.8355 101.827 91.1232C103.134 88.3264 104.486 85.927 105.976 83.7975C109.822 78.264 113.779 75.3472 118.064 74.8748C118.512 74.8223 118.941 74.7998 119.352 74.7998C121.152 74.7998 122.706 75.2647 124.058 76.202C131.076 81.0757 131.715 97.3091 131.989 104.245C132.611 120.253 128.334 145.019 124.615 146.961C122.03 147.981 118.731 146.519 115.542 145.117C114.857 144.817 114.19 144.517 113.55 144.262C97.0393 137.536 78.6553 127.984 83.1142 113.707ZM190.595 54.3526C192.615 53.2654 195.21 52.9954 198.335 53.5653C209.29 55.5523 214.252 53.8577 217.532 52.733C218.144 52.523 218.692 52.3281 219.058 52.2306C219.661 52.2606 221.571 53.2504 223.453 55.3573V55.5223H223.599C223.672 55.5973 223.736 55.6647 223.8 55.7472C225.098 57.2993 227.227 60.4785 226.943 64.34C226.477 70.7734 223.581 87.659 221.762 95.4571C221.315 93.9499 220.776 92.4428 220.099 90.9582C211.62 72.5504 196.991 63.0129 186.895 58.3715C187.461 57.1644 188.585 55.4473 190.595 54.3526ZM231.914 62.6904C231.667 59.5188 230.315 56.527 228.46 54.0976V45.6923C230.068 46.8395 232.946 49.3664 237.634 54.9449L240.156 58.1991C240.284 58.379 240.274 58.544 240.247 58.649C240.22 58.754 240.137 58.9039 239.936 59.0089C237.908 60.0361 235.021 61.4083 231.914 62.6904ZM216.28 32.8856C216.856 32.3832 217.888 31.7459 220.227 32.0533C231.494 33.5304 248.644 50.5735 254.465 57.7642C254.428 57.7867 254.391 57.8017 254.373 57.8167L257.032 61.2958C257.361 61.1308 261.034 59.3463 267.558 58.9339C266.818 65.0448 263.922 79.1712 257.27 85.1922C255.378 86.9017 253.414 87.7715 251.248 87.8465C238.292 88.3114 231.494 89.0837 228.076 89.646C229.511 82.2604 231.009 73.0378 231.667 67.3542C235.879 65.7647 239.909 63.8451 242.568 62.503C243.875 61.8432 244.788 60.8009 245.126 59.5712C245.474 58.3416 245.209 57.0744 244.377 56.0022L241.81 52.6805C232.508 41.6133 228.771 40.4211 226.368 40.6911C224.787 40.8785 223.882 41.8083 223.581 42.5431L223.453 42.858V49.5538C221.452 48.3616 219.533 47.8817 217.907 48.2491C217.185 48.4066 216.445 48.654 215.604 48.9465C215.476 48.984 215.33 49.0289 215.202 49.0739C213.914 43.9977 213.146 35.6374 216.28 32.8856ZM342.876 49.2464C344.585 48.9765 346.705 49.2539 347.701 49.8687C348.13 50.1312 348.149 50.3486 348.158 50.4461C350.04 69.2888 339.687 79.2612 332.835 85.867C329.682 88.9037 327.188 91.3031 326.74 93.8L326.731 93.905C316.936 89.5561 303.815 90.9957 294.687 92.0154C293.809 92.1129 292.896 92.2404 291.945 92.3753C288.546 92.8627 285.029 93.3651 282.534 92.3828C279.519 91.1906 278.066 88.3189 278.103 83.6176C278.176 75.1148 280.743 68.239 284.663 60.8984C290.904 62.608 298.095 65.5697 306.145 70.4884L309.133 67.1893C308.265 66.6644 307.415 66.1621 306.565 65.6747C309.114 63.4777 322.774 52.4031 342.876 49.2464ZM205.781 134.387C206.576 133.817 207.39 133.277 208.148 132.663C217.468 125.187 222.585 115.619 223.042 105.797C223.992 110.288 225.518 113.602 225.609 113.797C225.673 113.947 228.99 122.353 238.273 129.881C235.861 132.273 229.538 139.366 222.85 153.387C216.938 144.067 208.577 136.711 205.781 134.387ZM316.04 124.7C307.287 132.962 293.599 137.274 275.352 137.491C275.051 137.491 274.758 137.499 274.457 137.499C240.32 137.499 230.79 113.602 230.333 112.448C230.287 112.343 225.545 102.093 227.994 93.86C230.26 93.4101 236.528 92.4878 251.468 91.9555C255.223 91.8205 258.613 90.2984 261.546 87.4191C268.938 80.161 271.862 65.4572 272.575 58.9039C274.767 59.0089 277.18 59.2713 279.793 59.7662C275.773 67.3767 273.168 74.5974 273.095 83.5951C273.05 89.9535 275.489 94.1599 280.369 96.0869C284.307 97.639 288.821 96.9942 292.804 96.4243C293.691 96.2968 294.54 96.1769 295.354 96.0869C305.268 94.9847 318.681 93.5151 326.941 98.9362C326.813 105.04 325.168 116.084 316.04 124.7ZM315.775 130.736C317.219 129.686 318.59 128.569 319.86 127.361C333.675 114.285 332.104 96.9117 331.756 94.1749C332.168 92.8477 334.251 90.8382 336.645 88.5288C343.589 81.848 355.202 70.6534 353.147 50.1087C353.01 48.714 352.178 47.4993 350.734 46.5996C348.286 45.07 344.558 44.8 341.935 45.2124C318.041 48.969 302.974 62.7879 302.344 63.3728L302.38 63.3953C281.556 52.673 266.37 54.2251 259.115 56.1296C254.41 50.3636 235.569 29.9088 221.013 27.9968C216.7 27.427 214.06 28.8141 212.625 30.0738C206.869 35.12 209.637 47.3944 210.368 50.1986C207.81 50.4986 204.393 50.4536 199.413 49.5463C194.917 48.7365 191.025 49.1939 187.845 50.926C184.949 52.4856 183.331 54.75 182.436 56.4895C180.572 55.7847 178.982 55.2673 177.867 54.9374C170.932 52.9354 164.929 52.6355 161.804 54.1501C154.302 57.7717 142.25 61.6257 134.712 61.6257C126.617 61.6257 122.761 67.4667 121.701 70.9158C120.339 70.7059 118.923 70.6309 117.397 70.7959C111.458 71.4557 106.295 75.0398 101.626 81.7581C100.009 84.075 98.547 86.6618 97.149 89.661C96.6921 90.6508 96.418 91.648 96.153 92.6153C95.8332 93.8225 95.5226 94.9547 94.9104 95.817C94.7642 96.0194 94.5997 96.2069 94.417 96.3868C93.5763 97.2041 92.3337 97.8864 91.0179 98.6137C90.5062 98.8912 90.0128 99.1611 89.5377 99.4385C83.9 102.768 79.8888 107.476 78.2624 112.688C72.2227 132.025 100.63 143.587 111.33 147.944C111.924 148.184 112.536 148.461 113.176 148.738C113.733 148.986 114.327 149.248 114.948 149.503C112.993 153.56 106.286 169.493 113.532 183.387C117.717 191.402 125.785 197.229 137.517 200.693L137.874 200.775C137.965 200.79 138.833 200.925 140.13 200.925C142.433 200.925 146.106 200.505 149.396 198.293C153.233 195.699 155.426 191.447 155.929 185.651C156.98 185.869 158.03 186.064 159.09 186.214C160.799 186.446 162.572 186.566 164.372 186.566C168.438 186.566 172.677 185.974 176.899 184.819C179.256 184.167 181.623 183.462 183.816 182.577C184.684 186.176 185.36 189.715 185.232 190.495C184.355 193.397 191.281 196.606 195.191 197.678C196.927 198.158 199.404 198.646 202.3 198.646C207.728 198.646 214.617 196.921 220.776 190.218C222.32 191.807 224.549 193.434 226.925 195.017L227.309 195.264C231.795 198.286 236.556 199.808 241.49 199.808C242.138 199.808 242.778 199.785 243.436 199.733C250.243 199.186 255.753 196.291 258.54 191.792C260.504 188.628 260.888 184.939 259.81 181.325C264.305 182.315 269.715 183.035 275.964 183.035C281.483 183.035 287.669 182.45 294.422 181.018C296.404 185.771 301.466 194.747 311.983 196.404C312.952 196.554 313.911 196.614 314.871 196.614C316.835 196.614 318.781 196.359 320.764 196.051C323.387 195.654 325.744 195.234 327.983 194.192C345.462 186.064 335.603 162.385 330.559 152.585C326.594 144.899 321.605 137.574 315.775 130.736ZM280.889 112.875L284.499 115.732C284.261 115.927 279.491 119.931 273.899 119.931C273.004 119.931 272.099 119.833 271.177 119.593C267.796 118.731 265.219 116.354 263.364 112.448C261.857 115.2 259.691 117.599 256.566 118.596C255.524 118.926 254.446 119.091 253.332 119.091C249.613 119.091 245.474 117.261 240.978 113.632L244.487 110.701C247.456 113.1 251.641 115.754 254.748 114.765C258.193 113.662 260.102 108.654 261.043 104.477C257.736 103.278 255.625 98.8912 255.278 94.7297C254.821 89.1287 272.995 91.4906 271.926 94.9847C271.633 95.9444 270.564 101.381 266.279 103.795C266.215 104.125 266.151 104.455 266.078 104.807C267.375 111.046 269.705 114.915 272.666 115.672C275.782 116.474 279.738 113.857 280.889 112.875ZM168.794 108.399C168.684 108.061 168.566 107.739 168.465 107.416C163.887 105.4 162.106 100.091 161.685 99.1611C160.159 95.787 177.913 91.813 178.196 97.4215C178.415 101.598 176.88 106.157 173.746 107.634C175.345 112.005 178.013 116.549 181.385 117.291C184.592 118.011 188.402 114.982 191.043 112.335L194.917 114.937C190.577 119.308 186.365 121.513 182.381 121.513C181.604 121.513 180.846 121.43 180.088 121.265C176.844 120.546 174.377 118.364 172.504 115.754C171.179 119.803 168.931 122.398 165.687 123.56C164.445 124.002 163.175 124.19 161.941 124.19C156.797 124.19 152.173 121.07 151.936 120.906L155.143 117.749C156.514 118.679 160.735 120.861 163.695 119.788C166.537 118.769 168.337 114.72 168.794 108.399ZM317.475 70.8708C317.722 70.6984 317.941 70.5409 318.105 70.406C321.139 68.0141 325.132 65.8921 329.984 64.1076C330.313 63.9876 330.751 63.7927 331.254 63.5752C331.967 63.2603 333.949 62.398 334.991 62.2481C334.982 62.4355 334.954 62.653 334.927 62.7579C334.086 68.1865 329.591 72.9253 326.292 76.022L325.972 76.322C325.251 76.9968 324.501 77.7016 323.743 78.3239C323.588 78.159 323.423 77.994 323.24 77.8216L317.301 72.2055C317.073 71.9881 316.844 71.7856 316.634 71.6057C316.607 71.5907 316.589 71.5757 316.57 71.5532C316.863 71.3132 317.246 71.0358 317.475 70.8708ZM313.518 74.8973L319.458 80.5134C319.704 80.7458 319.905 80.9708 320.097 81.1657C320.792 81.908 321.651 82.8228 323.24 82.9353C323.341 82.9428 323.432 82.9428 323.524 82.9428C324.876 82.9428 325.936 82.2679 326.63 81.7431C327.763 80.8808 328.768 79.936 329.746 79.0288L330.057 78.7288C333.794 75.2347 338.883 69.8211 339.898 63.2753C340.007 62.5855 340.099 61.7607 339.788 60.8759C339.386 59.7287 338.49 58.8589 337.266 58.4315C334.543 57.4793 331.281 58.9039 328.906 59.9461C328.522 60.1186 328.184 60.2611 327.928 60.3585C322.555 62.338 318.078 64.7224 314.633 67.4442C314.505 67.5417 314.341 67.6617 314.167 67.7891C313.144 68.5314 311.883 69.4462 311.463 70.6084C311.326 71.0058 311.271 71.4107 311.298 71.8006C311.399 73.0753 312.34 73.8776 313.025 74.4624C313.18 74.5974 313.354 74.7324 313.518 74.8973Z" fill="#95D5BD"/>
<path d="M318.727 92.4879L293.307 109.981L258.029 134.252C256.886 135.212 255.68 136.127 254.41 137.004C253.131 137.881 251.824 138.691 250.49 139.448L229.128 153.32C223.28 157.414 214.316 157.414 208.925 153.327L185.744 137.004L161.841 120.651L124.643 95.1947C98.7668 77.4917 89.7483 45.085 108.096 22.8381C128.243 -1.61312 170.366 -1.61312 197.303 22.8381L217.743 41.3884C218.711 42.2657 220.292 42.2657 221.251 41.3809L244.396 20.2138C269.87 -3.09025 309.754 -6.18696 331.83 15.1601C354.993 37.5569 346.358 73.4727 318.727 92.4879Z" fill="#FF8B87"/>
<path d="M236.848 130.863L238.95 127.579C238.95 127.579 233.194 132.43 226.341 144.96C224.23 147.981 222.229 151.003 220.557 153.8C215.559 144.765 207.491 137.282 204.073 134.342L203.004 129.813C202.876 129.274 209.958 123.65 210.762 122.698C213.083 119.968 214.974 116.992 216.335 113.857C219.232 107.169 217.194 101.006 217.861 94.28C219.122 95.1497 220.137 96.3194 221.196 97.3692C221.608 96.5519 222.019 95.7346 222.43 94.9173C221.918 95.9295 224.166 102.475 224.477 104.05C224.915 106.292 225.445 108.541 226.103 110.753C226.103 110.753 229.539 119.803 239.763 127.189C238.886 128.284 237.908 129.513 236.848 130.863ZM309.023 127.639L308.978 127.564C323.926 117.839 325.726 102.828 325.69 95.8546C325.745 95.892 325.799 95.922 325.845 95.9595L325.69 95.8246C325.671 93.4852 325.452 92.0455 325.452 92.0455C326.585 85.7096 349.227 76.487 346.486 49.1264C346.221 46.4796 341.579 45.6398 338.39 46.1422C315.493 49.7338 300.91 63.2828 300.91 63.2828L292.193 61.0559C288.492 59.4738 285.02 58.3116 281.795 57.4718L280.68 56.4971C280.561 56.6995 280.46 56.902 280.342 57.1044C277.043 56.3321 274.028 55.8972 271.278 55.7023L267.577 54.75C267.586 54.87 267.586 55.1624 267.568 55.5673C262.442 55.5748 258.586 56.3996 256.183 57.1269C255.909 57.0669 255.644 57.0069 255.37 56.9544C251.87 52.0882 232.362 31.056 218.857 29.2865C205.298 27.5094 211.301 49.029 211.301 49.029L214.883 49.6738C211.895 50.6935 207.527 52.1932 197.513 50.3786C185.104 48.1292 182.82 58.0042 182.82 58.0042V58.0117C173.518 54.0527 165.395 53.1979 162.371 54.6525C155.518 57.9592 143.009 62.2556 134.53 62.2556C126.06 62.2556 124.04 70.1886 124.04 70.1886L124.927 72.528C122.999 71.4258 120.687 70.9159 117.873 71.2233C111.531 71.9206 107.146 76.7269 104.194 80.9558C102.531 83.3402 101.161 85.8596 99.9637 88.4239C99.0135 90.4559 98.9404 92.8628 97.588 94.7523C97.3779 95.0448 97.1312 95.3222 96.8662 95.5846C95.4591 96.9568 93.3667 97.9015 91.6306 98.9213C86.7604 101.793 82.9959 105.999 81.5065 110.761C76.4445 126.942 98.1911 137.109 112.674 142.995C114.273 143.64 116.073 144.51 117.937 145.185L117.754 146.392C116.31 149.211 99.7993 183.275 138.121 194.574C138.121 194.574 153.051 197.019 153.014 179.053V179.046C154.915 179.593 156.88 180.028 158.871 180.298C164.326 181.048 169.946 180.441 175.163 179.008C178.178 178.184 181.66 177.156 184.456 175.574V175.582C184.456 175.582 187.032 185.262 186.512 186.971C186.018 188.568 205.928 201.15 219.634 181.775L219.698 181.798L219.616 181.813C218.245 183.987 225.217 188.419 226.98 189.603C231.001 192.303 235.697 193.952 241.006 193.532C252.747 192.587 258.184 184.04 254.118 175.897L255.233 174.862C263.721 177.104 276.641 178.618 292.933 174.749V174.757C295.089 181.16 300.179 188.906 308.996 190.293C311.536 190.69 314.149 190.331 316.699 189.948C318.873 189.618 321.085 189.251 323.013 188.351C338.235 181.288 329.564 159.948 324.502 150.133C320.427 142.23 315.173 134.597 309.023 127.639Z" fill="#E5F6F0"/>
<path d="M220.557 153.8C220.557 153.8 221.535 162.768 225.089 167.221C228.643 171.683 219.616 181.813 219.616 181.813L221.388 185.419C221.388 185.419 225.418 191.155 236.182 193.322C246.945 195.489 255.233 182.72 255.233 182.72V174.862C255.233 174.862 269.359 179.068 278.606 176.947C287.853 174.817 292.933 176.669 292.933 176.669C292.933 176.669 293.865 182.105 304.135 188.741C314.396 195.369 329.381 186.544 333.895 176.009C338.409 165.482 312.249 127.939 312.249 127.939C312.249 127.939 305.487 127.189 298.653 131.95C291.818 136.704 271.698 134.567 260.194 134.567C248.69 134.567 238.95 127.579 238.95 127.579L220.557 153.8ZM158.871 180.298C173.372 182.788 187.672 171.915 187.672 171.915L189.308 164.807L184.392 153.8C184.392 153.8 163.915 137.702 153.015 147.794C142.114 157.886 147.304 175.139 147.304 175.139C147.304 175.139 144.362 177.809 158.871 180.298ZM304.683 75.6923C304.683 75.6923 308.96 72.3182 309.764 69.9413C310.577 67.5569 324.036 60.3737 330.076 59.4439C336.106 58.5142 331.108 66.5521 331.108 66.5521L322.071 78.3541L315.995 82.0357L319.266 87.6893C319.266 87.6893 318.618 93.4553 326.284 90.2086C333.941 86.9544 344.257 64.2877 344.257 64.2877L346.696 54.7501L344.257 46.7122C321.496 44.9951 298.653 65.5099 298.653 65.5099L304.683 75.6923ZM280.342 57.1045C280.342 57.1045 269.907 75.3249 274.311 84.855C278.715 94.3925 277.984 90.7335 288.373 92.0381C298.753 93.3353 309.764 91.8657 309.764 91.8657L323.214 94.2801L326.284 90.2086C326.284 90.2086 322.181 79.6438 317.393 77.5068C312.596 75.3624 299.429 60.2612 280.342 57.1045ZM225.089 52.9581C225.089 52.9581 223.234 44.7027 225.089 41.5235C226.953 38.3443 239.763 56.8046 239.763 56.8046L238.137 59.4439L236.182 64.3477L239.763 65.5099L255.233 64.3477L256.649 54.8551C256.649 54.8551 235.926 30.8312 220.237 29.5341C204.548 28.2294 211.301 49.0291 211.301 49.0291C215.796 45.9249 225.089 52.9581 225.089 52.9581ZM228.342 61.2885C226.35 60.8461 222.247 89.3913 222.247 89.3913L238.137 87.6893L251.139 89.3913L260.194 82.8605C260.194 82.8605 259.6 76.742 260.194 75.3324C260.797 73.9228 264.927 70.1287 264.927 70.1287L263.785 64.1153L264.927 57.6069L267.577 54.7501L263.438 55.395L230.288 63.7703L228.342 61.2885ZM117.937 145.185C117.937 145.185 125.356 146.999 128.39 144.172C131.432 141.346 138.806 93.8977 131.926 80.866C125.036 67.8418 116.749 68.2092 111.011 73.8478C105.263 79.4938 97.5881 94.7524 97.5881 94.7524C97.5881 94.7524 83.8823 105.122 82.6944 107.942C81.5066 110.761 78.6375 120.666 88.6336 129.799C98.6298 138.931 117.937 145.185 117.937 145.185ZM189.892 50.6487C194.479 50.6787 204.603 51.196 206.814 52.1333C209.035 53.0706 213.631 49.449 219.095 49.329C224.568 49.2091 228.378 63.4179 226.551 73.143C224.733 82.868 220.237 97.4893 220.237 97.4893C220.237 97.4893 217.861 94.2801 213.741 85.6123C209.62 76.952 193.2 61.026 182.82 58.0043C182.82 58.0043 185.315 50.6187 189.892 50.6487Z" fill="#74EBDD"/>
<path d="M151.434 90.1185C150.739 87.6517 151.9 85.3198 154.038 84.9149C156.176 84.51 158.469 86.182 159.164 88.6564C159.867 91.1233 158.698 93.4552 156.569 93.8601C154.44 94.265 152.137 92.5929 151.434 90.1185ZM174.167 85.5147C174.268 82.9804 176.122 80.9709 178.306 81.0234C180.499 81.0833 182.19 83.1828 182.098 85.7172C181.998 88.2515 180.143 90.261 177.95 90.201C175.766 90.1485 174.067 88.0491 174.167 85.5147ZM286.527 82.7704C285.833 85.2373 283.54 86.9168 281.402 86.5119C279.273 86.1071 278.103 83.7752 278.807 81.3008C279.501 78.8339 281.804 77.1618 283.933 77.5667C286.071 77.9716 287.231 80.3035 286.527 82.7704ZM247.32 77.4768C248.169 75.0324 250.554 73.4503 252.665 73.9377C254.767 74.425 255.799 76.7944 254.958 79.2388C254.118 81.6757 251.724 83.2653 249.613 82.7779C247.512 82.2905 246.488 79.9136 247.32 77.4768ZM321.806 186.604C320.271 187.316 318.38 187.646 316.251 187.969C313.747 188.351 311.509 188.636 309.462 188.313C301.704 187.099 297.693 180.043 296.021 176.084C297.392 175.717 298.781 175.327 300.206 174.884L298.47 171.12C266.078 181.16 245.52 168.946 245.319 168.826L242.358 172.043C242.696 172.245 245.876 174.15 251.468 175.934C253.451 179.338 253.56 182.922 251.696 185.929C249.704 189.131 245.821 191.118 240.768 191.523C236.611 191.86 232.481 190.69 228.534 188.044L228.141 187.781C223.079 184.422 222.119 183.02 221.936 182.547C222.942 181.1 223.919 179.488 224.851 177.689C228.689 170.288 227.337 162.43 223.919 155.299C230.736 139.853 237.506 132.168 239.855 129.798C247.201 134.665 257.526 138.594 271.716 138.594C272.027 138.594 272.337 138.586 272.648 138.586C287.332 138.406 299.292 135.662 308.384 130.436C313.839 136.847 318.517 143.715 322.236 150.913C326.676 159.521 335.53 180.23 321.806 186.604ZM221.79 182.742C221.799 182.735 221.799 182.727 221.809 182.72C221.799 182.727 221.799 182.735 221.799 182.742H221.79ZM202.072 190.42C195.475 190.84 190.258 187.729 189.006 186.619C189.088 184.369 188.047 179.781 187.188 176.429C188.147 175.769 189.024 175.042 189.764 174.202C192.56 171.023 193.264 167.004 191.921 161.913C190.55 156.709 185.296 151.235 178.233 147.629C171.627 144.255 164.399 143.025 158.433 144.232C153.818 145.169 149.816 148.356 146.883 153.447C142.497 161.05 141.063 172.38 143.868 177.216C144.517 178.326 146.024 178.896 147.934 179.533C148.163 179.608 148.345 179.668 148.473 179.713C149.14 179.976 149.825 180.208 150.511 180.433C150.273 185.412 148.692 189.048 145.878 190.968C142.954 192.97 139.5 192.707 138.742 192.617C128.682 189.618 121.802 184.684 118.275 177.951C111.97 165.917 118.01 151.415 119.7 147.824C120.714 148.049 121.747 148.199 122.798 148.199C124.104 148.199 125.429 147.989 126.745 147.471C134.886 144.292 137.161 111.758 136.778 101.861C136.302 89.7511 134.795 76.6745 127.247 71.4483C126.672 71.0434 126.06 70.7285 125.438 70.4286L126.443 70.6085C126.516 70.3461 128.189 64.2651 134.53 64.2651C143.877 64.2651 157.044 59.5563 163.623 56.3846C164.801 55.8223 168.867 55.6423 175.254 57.4944C181.568 59.3164 202.986 67.0694 213.74 90.396C219.579 103.053 215.531 117.059 203.178 126.949C189.335 138.046 168.941 141.031 149.981 134.755L148.135 138.489C155.317 140.866 162.682 142.028 169.873 142.028C180.883 142.028 191.473 139.268 200.409 134.027C204.018 137.012 229.31 158.786 220.328 176.122C215.723 185.014 209.409 189.963 202.072 190.42ZM174.386 177.104C169.16 178.528 163.933 178.948 159.273 178.318C156.286 177.906 153.362 177.156 150.575 176.077C150.392 176.009 150.118 175.912 149.789 175.799C149.433 175.687 148.583 175.402 148.163 175.207C146.381 171.57 147.349 162.07 151.324 155.172C152.914 152.405 155.655 148.948 159.621 148.139C164.308 147.186 170.147 148.244 175.629 151.04C181.614 154.092 186.018 158.584 187.115 162.76C188.165 166.726 187.736 169.621 185.771 171.848C183.496 174.442 178.9 175.867 174.386 177.104ZM83.8913 111.263C85.1796 107.132 88.5239 103.233 93.0742 100.556C93.4854 100.308 93.9331 100.068 94.3808 99.821C95.8336 99.0263 97.4783 98.1265 98.7484 96.8743C99.1048 96.5294 99.4246 96.162 99.7078 95.7721C100.704 94.3774 101.124 92.8403 101.49 91.4757C101.718 90.6284 101.937 89.8336 102.257 89.1363C103.536 86.3995 104.87 84.0526 106.323 81.9606C110.106 76.5395 113.989 73.6827 118.202 73.2178C118.631 73.1729 119.051 73.1429 119.462 73.1429C121.226 73.1429 122.743 73.6002 124.077 74.5225C130.966 79.2988 131.597 95.1947 131.862 101.988C132.474 117.674 128.271 141.93 124.625 143.842C122.085 144.832 118.85 143.407 115.716 142.028C115.049 141.735 114.391 141.443 113.77 141.195C97.5606 134.605 79.5146 125.247 83.8913 111.263ZM189.39 53.123C191.363 52.0508 193.922 51.7883 196.983 52.3432C207.737 54.2927 212.607 52.6356 215.824 51.5334C216.427 51.3234 216.966 51.136 217.322 51.0385C217.907 51.0685 219.789 52.0358 221.644 54.1052V54.2627H221.781C221.845 54.3377 221.909 54.4051 221.982 54.4801C223.252 56.0022 225.345 59.1214 225.061 62.9005C224.605 69.2064 221.763 85.7471 219.981 93.3877C219.543 91.9106 219.013 90.4334 218.346 88.9788C210.022 70.9459 195.658 61.6033 185.753 57.052C186.31 55.8748 187.407 54.1877 189.39 53.123ZM229.941 61.2884C229.703 58.1767 228.369 55.2449 226.551 52.868V44.6351C228.132 45.7599 230.955 48.2342 235.56 53.7003L238.027 56.887C238.155 57.0595 238.146 57.2244 238.118 57.3219C238.091 57.4269 238.018 57.5768 237.817 57.6743C235.816 58.6866 232.993 60.0287 229.941 61.2884ZM214.599 32.0834C215.157 31.596 216.171 30.9736 218.464 31.2736C229.53 32.7207 246.36 49.4114 252.08 56.4596C252.044 56.4821 252.007 56.4971 251.989 56.5046L254.593 59.9162C254.922 59.7588 258.522 58.0117 264.927 57.6068C264.196 63.5978 261.364 77.4318 254.83 83.3253C252.976 85.0048 251.039 85.8521 248.919 85.9346C236.2 86.3845 229.53 87.1418 226.167 87.6891C227.583 80.461 229.054 71.4183 229.694 65.8547C233.833 64.2951 237.79 62.4206 240.394 61.1009C241.682 60.4561 242.577 59.4289 242.916 58.2292C243.254 57.022 242.989 55.7848 242.175 54.7276L239.654 51.4809C230.525 40.6387 226.861 39.469 224.495 39.7389C222.942 39.9189 222.055 40.8261 221.763 41.5534L221.644 41.8609V48.4217C219.67 47.252 217.788 46.7796 216.189 47.1395C215.486 47.297 214.755 47.5369 213.932 47.8218C213.804 47.8593 213.667 47.9043 213.539 47.9493C212.269 42.9706 211.52 34.7827 214.599 32.0834ZM338.856 48.1143C340.529 47.8518 342.612 48.1218 343.589 48.7291C344.01 48.984 344.028 49.194 344.037 49.2915C345.892 67.7442 335.722 77.5217 328.997 83.9926C325.9 86.9693 323.451 89.3162 323.022 91.7606L323.003 91.8656C313.391 87.6067 300.507 89.0163 291.553 90.0136C290.694 90.1035 289.789 90.231 288.867 90.366C285.522 90.8458 282.078 91.3407 279.629 90.3735C276.668 89.2038 275.243 86.392 275.28 81.7882C275.344 73.4578 277.865 66.717 281.712 59.5338C287.843 61.2059 294.897 64.1077 302.801 68.9214L305.734 65.6973C304.884 65.1724 304.044 64.6925 303.212 64.2126C305.716 62.0607 319.129 51.211 338.856 48.1143ZM204.292 131.515C205.078 130.961 205.873 130.428 206.613 129.828C215.76 122.503 220.785 113.13 221.233 103.51C222.165 107.911 223.663 111.158 223.755 111.353C223.81 111.503 227.072 119.728 236.181 127.107C233.815 129.446 227.602 136.397 221.041 150.133C215.239 141.001 207.034 133.795 204.292 131.515ZM312.514 122.03C303.925 130.128 290.493 134.342 272.575 134.56C272.283 134.56 271.99 134.567 271.698 134.567C238.192 134.567 228.835 111.158 228.396 110.026C228.342 109.921 223.691 99.881 226.094 91.8206C228.314 91.3782 234.473 90.4784 249.129 89.9536C252.82 89.8186 256.146 88.3265 259.024 85.5072C266.279 78.399 269.148 64.0027 269.852 57.5768C272.008 57.6818 274.366 57.9368 276.933 58.4241C272.995 65.8772 270.437 72.9479 270.364 81.7582C270.309 87.9966 272.712 92.113 277.5 93.995C281.365 95.5172 285.797 94.8873 289.707 94.3325C290.575 94.2125 291.416 94.085 292.211 93.995C301.942 92.9228 315.109 91.4757 323.213 96.7918C323.086 102.775 321.468 113.588 312.514 122.03ZM312.249 127.939C313.665 126.912 315.008 125.817 316.26 124.64C329.82 111.825 328.275 94.8048 327.937 92.128C328.339 90.8233 330.386 88.8588 332.734 86.6019C339.551 80.0486 350.954 69.0864 348.935 48.9615C348.798 47.5894 347.984 46.4047 346.568 45.5199C344.156 44.0203 340.501 43.7579 337.924 44.1628C314.469 47.8443 299.685 61.3784 299.064 61.9482L299.1 61.9782C278.66 51.4734 263.758 52.988 256.649 54.855C252.025 49.209 233.532 29.1666 219.241 27.2996C215.01 26.7447 212.415 28.1019 211.008 29.3391C205.362 34.2803 208.075 46.2997 208.797 49.044C206.284 49.3364 202.931 49.299 198.043 48.4142C193.629 47.6194 189.81 48.0693 186.685 49.7563C183.843 51.2934 182.254 53.5129 181.376 55.2149C179.549 54.5176 177.986 54.0153 176.89 53.6928C170.083 51.7283 164.189 51.4359 161.128 52.9205C153.764 56.4671 141.931 60.2387 134.53 60.2387C126.59 60.2387 122.807 65.9597 121.765 69.3413C120.431 69.1389 119.033 69.0639 117.544 69.2289C111.705 69.8737 106.643 73.3828 102.056 79.9661C100.475 82.238 99.0408 84.7649 97.6702 87.7041C97.2134 88.6714 96.9484 89.6536 96.6925 90.6059C96.3727 91.7756 96.0712 92.8928 95.4681 93.7326C95.322 93.9351 95.1666 94.115 94.9839 94.295C94.1615 95.0973 92.9371 95.7646 91.6397 96.4769C91.1462 96.7468 90.662 97.0093 90.196 97.2867C84.6588 100.548 80.7207 105.152 79.1308 110.258C73.2007 129.206 101.088 140.536 111.577 144.802C112.162 145.034 112.765 145.304 113.395 145.574C113.944 145.814 114.528 146.077 115.131 146.324C113.222 150.298 106.634 165.909 113.743 179.518C117.854 187.369 125.767 193.075 137.289 196.471L137.636 196.554C137.728 196.569 138.578 196.696 139.857 196.696C142.114 196.696 145.714 196.291 148.939 194.117C152.713 191.575 154.869 187.421 155.363 181.738C156.386 181.948 157.419 182.143 158.46 182.285C160.141 182.517 161.877 182.63 163.65 182.63C167.634 182.63 171.801 182.053 175.949 180.92C178.251 180.283 180.581 179.593 182.738 178.723C183.588 182.247 184.255 185.719 184.127 186.484C183.259 189.326 190.066 192.467 193.903 193.525C195.603 193.989 198.033 194.462 200.866 194.462C206.202 194.462 212.964 192.782 219.013 186.214C220.52 187.774 222.713 189.356 225.043 190.908L225.418 191.155C229.822 194.117 234.5 195.609 239.343 195.609C239.973 195.609 240.604 195.587 241.253 195.534C247.932 194.994 253.332 192.16 256.073 187.751C258.01 184.647 258.385 181.033 257.325 177.501C261.738 178.468 267.038 179.173 273.178 179.173C278.596 179.173 284.673 178.603 291.297 177.201C293.234 181.858 298.214 190.645 308.53 192.265C309.48 192.422 310.421 192.482 311.372 192.482C313.29 192.482 315.209 192.22 317.146 191.928C319.723 191.53 322.035 191.125 324.228 190.105C341.387 182.143 331.72 158.951 326.759 149.346C322.875 141.818 317.969 134.642 312.249 127.939ZM278.012 110.446L281.548 113.243C281.319 113.43 276.641 117.359 271.15 117.359C270.272 117.359 269.386 117.262 268.481 117.029C265.165 116.182 262.634 113.85 260.815 110.026C259.326 112.725 257.206 115.072 254.136 116.047C253.113 116.377 252.053 116.534 250.956 116.534C247.32 116.534 243.254 114.742 238.84 111.188L242.285 108.316C245.2 110.663 249.312 113.265 252.354 112.298C255.735 111.218 257.608 106.307 258.54 102.22C255.287 101.043 253.213 96.7468 252.875 92.6679C252.427 87.1793 270.263 89.5037 269.212 92.9153C268.92 93.8601 267.878 99.1837 263.666 101.553C263.611 101.876 263.547 102.198 263.474 102.543C264.753 108.654 267.038 112.44 269.943 113.183C272.995 113.97 276.879 111.406 278.012 110.446ZM167.99 106.059C167.872 105.73 167.771 105.415 167.67 105.1C163.175 103.12 161.43 97.9165 161.009 97.0093C159.511 93.7101 176.936 89.8186 177.219 95.3072C177.429 99.4012 175.931 103.863 172.842 105.31C174.423 109.591 177.036 114.045 180.344 114.772C183.496 115.477 187.233 112.508 189.819 109.921L193.629 112.47C189.362 116.744 185.232 118.911 181.322 118.911C180.563 118.911 179.814 118.829 179.074 118.664C175.885 117.959 173.464 115.822 171.627 113.265C170.329 117.232 168.127 119.773 164.938 120.913C163.723 121.348 162.471 121.528 161.256 121.528C156.212 121.528 151.68 118.469 151.443 118.311L154.586 115.215C155.938 116.129 160.077 118.274 162.983 117.217C165.77 116.219 167.533 112.253 167.99 106.059ZM313.921 69.3038C314.158 69.1314 314.378 68.9739 314.542 68.8465C317.512 66.4996 321.441 64.4226 326.201 62.6755C326.521 62.5556 326.951 62.3681 327.453 62.1507C328.148 61.8433 330.094 60.996 331.108 60.8535C331.108 61.0335 331.071 61.2509 331.053 61.3559C330.231 66.672 325.818 71.3133 322.574 74.3501L322.263 74.6425C321.55 75.3023 320.82 75.9846 320.07 76.5995C319.924 76.442 319.76 76.2771 319.577 76.1046L313.756 70.6085C313.528 70.3911 313.3 70.1961 313.089 70.0162C313.071 70.0012 313.053 69.9862 313.035 69.9712C313.327 69.7387 313.702 69.4613 313.921 69.3038ZM310.038 73.2403L315.867 78.7439C316.105 78.9689 316.315 79.1938 316.488 79.3888C317.174 80.1086 318.024 81.0084 319.577 81.1208C319.677 81.1283 319.769 81.1283 319.86 81.1283C321.185 81.1283 322.227 80.461 322.903 79.9511C324.027 79.1038 325.013 78.1816 325.964 77.2893L326.265 76.9969C329.938 73.5703 334.937 68.2691 335.932 61.8582C336.033 61.1834 336.124 60.3811 335.823 59.5113C335.43 58.3866 334.553 57.5319 333.347 57.112C330.679 56.1822 327.471 57.5768 325.141 58.5966C324.758 58.7615 324.429 58.9115 324.182 59.0015C318.901 60.9435 314.515 63.2754 311.134 65.9372C311.006 66.0422 310.842 66.1547 310.668 66.2821C309.672 67.0019 308.429 67.9017 308.018 69.0414C307.881 69.4313 307.826 69.8287 307.863 70.2111C307.954 71.4558 308.877 72.2431 309.553 72.813C309.709 72.9479 309.873 73.0829 310.038 73.2403Z" fill="#72A391"/>
<path d="M432.211 164.904C432.586 164.432 432.961 163.93 433.399 163.427C433.902 162.865 434.414 162.28 435.053 161.808C435.729 161.305 436.104 160.608 436.817 160.158C437.529 159.716 438.032 159.071 438.745 158.599C440.334 157.534 442.134 156.949 444.227 157.234C445.716 157.429 446.767 158.126 447.58 159.183C448.256 160.046 448.531 160.998 448.43 161.943C448.32 162.865 447.882 163.757 447.544 164.657C447.206 165.489 446.831 166.299 446.429 167.109C446.228 167.559 445.954 168.001 445.652 168.421C444.702 169.733 443.724 171.015 442.774 172.298C442.299 172.942 441.796 173.58 441.321 174.225C440.645 175.147 439.969 176.069 439.32 177.014C438.507 178.191 437.767 179.391 436.954 180.53C435.866 182.097 434.715 183.627 433.637 185.194C433.162 185.891 432.824 186.671 432.385 187.399C431.846 188.261 430.585 188.403 429.909 187.624C428.895 186.506 427.981 185.329 427.003 184.189C426.153 183.207 425.313 182.262 424.5 181.288C423.65 180.223 422.837 179.166 422.197 177.996C421.621 176.931 420.772 175.987 420.059 174.982C419.456 174.172 419.045 173.302 418.78 172.38C418.542 171.548 418.168 170.768 417.93 169.928C417.692 169.118 417.528 168.279 417.318 167.446C416.952 165.939 417.19 164.432 417.455 162.947C417.692 161.665 418.131 160.383 419.218 159.378C419.958 158.681 420.872 158.209 422.023 157.954C423.038 157.736 424.025 157.706 425.039 157.819C425.989 157.901 426.729 158.291 427.378 158.876C427.917 159.408 428.557 159.851 429.205 160.301C430.119 160.915 430.722 161.665 431.161 162.535C431.572 163.345 431.91 164.177 432.211 164.904ZM426.464 161.553C426.83 160.998 426.83 160.526 426.291 160.158C425.614 159.738 425.002 159.153 424.025 159.521C423.851 159.573 423.75 159.686 423.613 159.768C425.039 159.851 425.578 160.855 426.464 161.553ZM426.903 180.418C426.83 180.448 426.766 180.5 426.693 180.53C427.405 181.453 428.118 182.345 428.867 183.267C428.931 183.237 428.995 183.207 429.032 183.185C428.657 182.097 427.542 181.37 426.903 180.418ZM431.499 173.25C431.572 173.25 431.672 173.25 431.736 173.22C431.91 172.41 431.809 171.63 431.535 170.873C431.471 170.873 431.435 170.873 431.371 170.873C431.435 171.683 431.471 172.47 431.499 173.25ZM419.355 163.06C419.794 162.115 420.269 161.193 420.708 160.241C419.831 161.05 419.483 162.033 419.355 163.06ZM440.983 162.393C441.011 162.423 441.047 162.445 441.084 162.475C441.623 162.055 442.198 161.643 442.738 161.223C442.71 161.193 442.674 161.163 442.637 161.14C441.924 161.418 441.458 161.89 440.983 162.393ZM422.124 161.973C422.06 161.943 421.996 161.943 421.886 161.92C421.658 162.535 421.42 163.12 421.146 163.735C421.21 163.757 421.247 163.757 421.32 163.787C421.621 163.172 421.886 162.558 422.124 161.973ZM445.917 162.925C445.99 162.925 446.027 162.895 446.091 162.895C445.954 162.445 445.817 162.033 445.689 161.583C445.616 161.613 445.552 161.613 445.479 161.643C445.917 162.003 445.278 162.588 445.917 162.925ZM422.462 170.041C422.398 169.621 422.362 169.283 422.298 168.923C422.261 168.923 422.197 168.953 422.161 168.953C422.298 169.283 421.96 169.733 422.462 170.041Z" fill="#52947C"/>
<path d="M10.4136 182.72C21.0402 187.842 31.1095 183.523 43.2711 176.235C46.9991 178.581 51.0103 181.161 53.4591 182.57C48.0133 186.919 42.7137 191.238 39.2964 194.59C38.7847 197.004 46.1585 200.693 48.8814 199.381C52.5088 195.752 58.1374 191.313 63.0623 187.189C69.7325 189.948 77.2524 191.418 84.1054 189.401C85.7592 188.899 85.9237 185.54 83.4658 186.034C78.4494 187.152 72.5651 185.832 67.0096 183.433C71.8158 179.631 83.0546 170.454 88.1532 163.743C93.535 156.5 84.2881 149.684 72.0077 152.421C62.2491 154.603 52.0428 160.669 40.603 167.454C29.1724 160.594 14.6533 159.154 6.38413 166.375C0.335288 171.848 1.06627 178.229 10.4136 182.72ZM57.9546 178.709C55.7617 177.427 51.9149 174.93 48.8357 172.815C57.7079 167.132 67.9416 160.414 76.156 158.127C80.3774 156.987 81.9398 158.629 79.4728 161.021C73.2503 166.884 63.6106 174.383 57.9546 178.709ZM14.3427 177.899C11.035 176.25 12.5426 173.28 15.4939 171.031C20.9215 167.162 28.0119 167.649 34.609 171.143C25.7185 176.527 19.2311 180.253 14.3427 177.899Z" fill="#52947C" fill-opacity="0.7608"/>
<path d="M130.611 168.963C126.152 173.169 117.901 181.515 113.305 186.718C107.457 183.712 96.483 181.74 86.1579 186.936C72.2511 193.722 64.1738 208.913 78.1811 212.857C85.5732 215.039 92.5449 211.605 97.4516 207.796C93.9154 213.239 95.35 217.775 100.321 219.208C108.736 221.697 119.116 216.351 127.367 209.655C128.335 208.905 125.777 206.386 124.799 207.128C118.988 212.219 110.856 216.343 107.183 215.309C99.6719 213.179 129.761 183.412 139.647 173.559C140.716 171.452 132.447 167.958 130.611 168.963ZM109.038 191.42C105.401 195.701 101.901 199.413 99.1602 201.707C91.7225 208.043 84.4036 210.15 82.2929 207.331C79.6248 204.339 85.9843 196.886 91.092 193.579C97.8901 189.133 104.825 189.26 109.038 191.42Z" fill="#52947C" fill-opacity="0.7608"/>
<path d="M153.977 195.198C142.482 193.301 130.192 198.61 124.546 209.114C118.414 220.699 124.938 226.375 134.35 228.062C140.755 229.209 146.722 228.19 152.021 225.468C158.792 227.935 167.353 228.22 176.673 218.037C177.532 217.107 174.544 214.985 173.704 215.84C167.39 223.136 161.25 224.036 156.599 222.783C167.819 213.111 171.319 198.055 153.977 195.198ZM151.217 200.627C158.582 201.609 155.155 210.262 149.417 216.912C146.831 215.945 143.524 218.442 144.748 221.081C142.555 222.439 139.832 223.121 137.411 222.686C131.389 221.606 133.208 215.923 135.684 211.191C138.736 205.478 145.424 199.839 151.217 200.627Z" fill="#52947C" fill-opacity="0.7608"/>
<path d="M205.674 201.191C199.945 200.599 193.97 202.766 189.511 205.847C189.986 204.978 190.808 203.553 191.201 202.593C190.863 199.714 181.854 199.084 181.113 200.674C172.78 220.026 165.854 237.099 158.928 255.237C158.654 257.097 168.038 257.997 169.281 256.355C172.424 248.129 175.777 239.671 178.911 231.521C184.421 236.68 195.514 237.362 204.276 230.786C211.367 232.848 220.248 231.596 227.211 220.739C227.896 219.801 224.47 217.957 223.885 218.902C219.444 226.152 214.126 228.769 207.748 227.727C214.866 220.641 220.595 202.511 205.674 201.191ZM199.452 207.107C206.076 207.677 204.011 216.217 199.315 222.958C197.131 221.758 193.229 225.2 195.596 227.637C191.42 230.899 184.11 230.201 181.077 226.34C183.343 221.084 185.161 216.45 187.418 211.359C190.826 208.869 195.898 206.807 199.452 207.107Z" fill="#52947C" fill-opacity="0.7608"/>
<path d="M237.169 236.769C247.092 236.364 254.009 229.368 258.879 219.006C259.318 217.934 255.864 216.412 255.316 217.409C251.524 225.282 244.744 230.891 238.978 231.003C234.108 231.078 233.843 225.537 235.561 217.979C236.283 214.53 237.562 210.158 238.851 205.877L248.18 205.57C249.651 205.112 250.656 201.243 248.71 200.163L240.367 200.441C242.35 194.172 244.351 188.316 246.297 183.278C246.078 180.916 237.005 180.316 235.698 181.988C233.907 186.209 231.203 193.887 228.955 200.816L224.989 200.943C223.418 201.483 222.422 205.517 224.45 206.349L227.429 206.252C223.564 220.656 219.809 237.504 237.169 236.769Z" fill="#52947C" fill-opacity="0.7608"/>
<path d="M291.881 173.646C282.379 174.545 272.236 179.622 272.282 189.407C272.392 202.506 287.779 211.301 304.801 210.131C303.175 217.937 299.292 225.188 290.282 226.432C277.929 228.112 273.972 214.12 277.38 205.708C277.792 203.563 271.313 201.344 269.422 203.218C264.926 210.889 266.653 222.241 272.593 227.782C276.851 231.763 283.009 233.458 291.507 232.131C305.477 230.031 313.098 219.707 315.51 208.789C320.947 207.357 325.652 204.965 329.755 201.749C330.961 200.819 330.184 197.04 328.997 198.052C325.735 200.556 320.508 202.866 316.305 203.938C317.794 192.916 315.519 171.359 291.881 173.646ZM292.475 179.689C305.121 178.377 306.208 197.879 305.505 204.875C292.228 205.213 282.936 196.95 282.909 188.574C282.89 183.266 286.646 180.274 292.475 179.689Z" fill="#52947C" fill-opacity="0.7608"/>
<path d="M350.195 181.669C344.027 183.498 339.998 190.419 338.125 194.656C337.942 192.189 337.713 190.772 337.43 188.072C335.411 186.003 327.982 187.87 327.27 190.007C328.695 202.296 329.536 211.969 331.244 223.036C332.587 225.495 341.679 222.406 341.935 220.412C340.72 212.943 339.943 208.737 339.239 200.759C340.921 195.878 344.192 190.772 347.408 189.684C350.533 188.627 351.227 191.289 351.639 193.778C352.242 197.16 353.475 206.278 354.115 209.044C355.284 214.346 358.967 217.037 365.957 214.691C374.938 211.819 377.616 200.354 378.274 192.564C378.31 191.506 374.363 190.989 374.317 192.046C373.906 199.672 371.019 207.02 367.208 208.205C364.888 208.924 364.019 205.88 363.462 202.829C362.795 198.855 362.777 193.973 362.183 190.149C361.096 183.423 357.294 179.554 350.195 181.669Z" fill="#52947C" fill-opacity="0.7608"/>
<path d="M387.069 167.46C376.643 171.689 371.316 181.631 375.117 192.076C378.197 201.089 388.001 206.758 401.542 201.247C409.994 197.797 418.94 190.794 417.514 174.666C417.386 173.616 413.384 173.526 413.421 174.621C414.554 186.34 406.933 192.946 400.647 195.068C394.196 197.265 389.024 195.75 386.539 190.922C397.961 188.387 404.631 182.201 404.338 175.393C404.229 168.682 397.065 163.418 387.069 167.46ZM389.271 173.061C392.652 171.666 394.424 174.208 394.58 177.2C394.9 181.129 391.747 184.923 384.757 186.993C382.948 181.129 385.022 174.658 389.271 173.061Z" fill="#52947C" fill-opacity="0.7608"/>
<path d="M7.92719 180.443C18.5538 185.564 28.623 181.246 40.7846 173.957C44.5126 176.304 48.5239 178.884 50.9726 180.293C45.5269 184.642 40.2273 188.961 36.81 192.313C36.2983 194.727 43.672 198.416 46.3949 197.104C50.0224 193.475 55.6509 189.036 60.5759 184.912C67.246 187.671 74.766 189.141 81.6189 187.124C83.2727 186.622 83.4372 183.263 80.9793 183.757C75.9629 184.875 70.0786 183.555 64.5231 181.156C69.3293 177.354 80.5681 168.177 85.6667 161.466C91.0485 154.223 81.8016 147.407 69.5212 150.144C59.7627 152.326 49.5564 158.392 38.1166 165.177C26.6859 158.317 12.1669 156.877 3.89768 164.098C-2.15116 169.571 -1.42018 175.952 7.92719 180.443ZM55.4682 176.432C53.2752 175.15 49.4285 172.653 46.3492 170.538C55.2215 164.855 65.4551 158.137 73.6695 155.85C77.8909 154.71 79.4534 156.352 76.9863 158.744C70.7639 164.607 61.1241 172.105 55.4682 176.432ZM11.8562 175.622C8.54853 173.972 10.0562 171.003 13.0075 168.754C18.435 164.885 25.5255 165.372 32.1226 168.866C23.232 174.25 16.7446 177.976 11.8562 175.622Z" fill="#52947C"/>
<path d="M128.124 166.686C123.665 170.892 115.415 179.238 110.818 184.441C104.971 181.434 93.9969 179.462 83.6718 184.659C69.7649 191.444 61.6876 206.636 75.695 210.579C83.087 212.761 90.0587 209.327 94.9654 205.518C91.4293 210.962 92.8638 215.498 97.8345 216.93C106.25 219.42 116.63 214.074 124.881 207.378C125.849 206.628 123.291 204.109 122.313 204.851C116.502 209.942 108.37 214.066 104.697 213.031C97.1858 210.902 127.275 181.135 137.161 171.282C138.23 169.175 129.961 165.681 128.124 166.686ZM106.551 189.142C102.915 193.424 99.4152 197.135 96.6741 199.43C89.2364 205.766 81.9175 207.873 79.8068 205.053C77.1387 202.062 83.4982 194.609 88.6059 191.302C95.404 186.856 102.339 186.983 106.551 189.142Z" fill="#52947C"/>
<path d="M151.489 192.921C139.995 191.024 127.705 196.333 122.059 206.837C115.927 218.422 122.451 224.098 131.863 225.785C138.268 226.932 144.235 225.912 149.534 223.191C156.305 225.658 164.866 225.942 174.186 215.76C175.045 214.83 172.057 212.708 171.217 213.563C164.903 220.859 158.763 221.759 154.112 220.506C165.332 210.834 168.832 195.778 151.489 192.921ZM148.73 198.35C156.095 199.332 152.668 207.985 146.93 214.635C144.344 213.668 141.037 216.165 142.261 218.804C140.068 220.161 137.345 220.844 134.924 220.409C128.902 219.329 130.721 213.646 133.197 208.914C136.249 203.201 142.937 197.562 148.73 198.35Z" fill="#52947C"/>
<path d="M203.187 198.914C197.458 198.321 191.483 200.488 187.024 203.57C187.499 202.7 188.321 201.276 188.714 200.316C188.376 197.437 179.367 196.807 178.627 198.396C170.293 217.749 163.367 234.822 156.441 252.96C156.167 254.82 165.551 255.72 166.794 254.077C169.937 245.852 173.29 237.394 176.424 229.244C181.934 234.402 193.027 235.085 201.789 228.509C208.88 230.571 217.761 229.319 224.724 218.461C225.409 217.524 221.983 215.68 221.398 216.624C216.957 223.875 211.639 226.492 205.262 225.45C212.379 218.364 218.108 200.233 203.187 198.914ZM196.965 204.83C203.589 205.4 201.524 213.94 196.828 220.681C194.644 219.481 190.743 222.923 193.109 225.36C188.933 228.621 181.624 227.924 178.59 224.062C180.856 218.806 182.674 214.172 184.931 209.081C188.339 206.592 193.411 204.53 196.965 204.83Z" fill="#52947C"/>
<path d="M234.682 234.492C244.605 234.087 251.522 227.091 256.392 216.729C256.831 215.657 253.377 214.135 252.829 215.132C249.037 223.005 242.257 228.613 236.492 228.726C231.621 228.801 231.356 223.26 233.074 215.702C233.796 212.253 235.075 207.881 236.364 203.6L245.693 203.292C247.164 202.835 248.169 198.966 246.223 197.886L237.88 198.164C239.863 191.895 241.864 186.039 243.81 181.001C243.591 178.639 234.518 178.039 233.211 179.711C231.42 183.932 228.716 191.61 226.468 198.539L222.502 198.666C220.931 199.206 219.935 203.24 221.963 204.072L224.942 203.975C221.077 218.379 217.322 235.227 234.682 234.492Z" fill="#52947C"/>
<path d="M289.395 171.369C279.892 172.268 269.75 177.345 269.795 187.13C269.905 200.229 285.292 209.024 302.315 207.854C300.688 215.66 296.805 222.911 287.796 224.155C275.442 225.835 271.486 211.843 274.894 203.431C275.305 201.286 268.827 199.067 266.935 200.941C262.44 208.612 264.167 219.964 270.106 225.505C274.364 229.486 280.522 231.181 289.02 229.854C302.991 227.754 310.611 217.429 313.023 206.512C318.46 205.08 323.166 202.688 327.268 199.472C328.475 198.542 327.698 194.763 326.51 195.775C323.248 198.279 318.022 200.589 313.818 201.661C315.308 190.639 313.033 169.082 289.395 171.369ZM289.989 177.412C302.634 176.1 303.722 195.603 303.018 202.598C289.742 202.936 280.449 194.673 280.422 186.297C280.404 180.989 284.159 177.997 289.989 177.412Z" fill="#52947C"/>
<path d="M347.708 179.391C341.54 181.221 337.511 188.142 335.638 192.378C335.455 189.911 335.226 188.494 334.943 185.795C332.924 183.725 325.495 185.592 324.783 187.729C326.208 200.019 327.049 209.691 328.757 220.759C330.1 223.218 339.192 220.129 339.448 218.134C338.233 210.666 337.456 206.46 336.752 198.482C338.434 193.6 341.705 188.494 344.921 187.407C348.046 186.35 348.74 189.012 349.152 191.501C349.755 194.883 350.988 204 351.628 206.767C352.797 212.068 356.48 214.76 363.47 212.413C372.452 209.541 375.129 198.077 375.787 190.286C375.823 189.229 371.876 188.712 371.83 189.769C371.419 197.394 368.532 204.743 364.721 205.927C362.401 206.647 361.533 203.603 360.975 200.551C360.308 196.577 360.29 191.696 359.696 187.872C358.609 181.146 354.808 177.277 347.708 179.391Z" fill="#52947C"/>
<path d="M384.583 165.183C374.157 169.412 368.83 179.354 372.631 189.799C375.71 198.812 385.515 204.48 399.056 198.969C407.508 195.52 416.453 188.517 415.028 172.388C414.9 171.339 410.898 171.249 410.934 172.343C412.067 184.063 404.447 190.669 398.16 192.791C391.71 194.988 386.538 193.473 384.053 188.644C395.474 186.11 402.144 179.924 401.852 173.116C401.742 166.405 394.579 161.141 384.583 165.183ZM386.785 170.784C390.165 169.389 391.938 171.931 392.093 174.923C392.413 178.852 389.261 182.646 382.271 184.715C380.462 178.852 382.536 172.381 386.785 170.784Z" fill="#52947C"/>
</svg>
