<?xml version="1.0" encoding="UTF-8" standalone="no"?>
<svg
   width="500"
   zoomAndPan="magnify"
   viewBox="0 0 375 374.999991"
   height="500"
   preserveAspectRatio="xMidYMid meet"
   version="1.0"
   id="svg201"
   sodipodi:docname="4.svg"
   inkscape:version="1.1.2 (0a00cf5339, 2022-02-04, custom)"
   xmlns:inkscape="http://www.inkscape.org/namespaces/inkscape"
   xmlns:sodipodi="http://sodipodi.sourceforge.net/DTD/sodipodi-0.dtd"
   xmlns:xlink="http://www.w3.org/1999/xlink"
   xmlns="http://www.w3.org/2000/svg"
   xmlns:svg="http://www.w3.org/2000/svg">
  <sodipodi:namedview
     id="namedview203"
     pagecolor="#ffffff"
     bordercolor="#666666"
     borderopacity="1.0"
     inkscape:pageshadow="2"
     inkscape:pageopacity="0.0"
     inkscape:pagecheckerboard="0"
     showgrid="false"
     borderlayer="true"
     inkscape:zoom="0.38042345"
     inkscape:cx="411.38368"
     inkscape:cy="68.344893"
     inkscape:window-width="1366"
     inkscape:window-height="724"
     inkscape:window-x="0"
     inkscape:window-y="20"
     inkscape:window-maximized="1"
     inkscape:current-layer="svg201" />
  <defs
     id="defs27">
    <filter
       x="0"
       y="0"
       width="1"
       xlink:type="simple"
       xlink:actuate="onLoad"
       height="1"
       id="id1"
       xlink:show="other">
      <feColorMatrix
         values="0 0 0 0 1 0 0 0 0 1 0 0 0 0 1 0 0 0 1 0"
         color-interpolation-filters="sRGB"
         id="feColorMatrix2" />
    </filter>
    <g
       id="g5" />
    <mask
       id="id2">
      <g
         filter="url(#id1)"
         id="g9">
        <rect
           x="-37.5"
           width="450"
           fill="rgb(0%, 0%, 0%)"
           y="-37.499999"
           height="449.999989"
           fill-opacity="0.4588"
           id="rect7" />
      </g>
    </mask>
    <clipPath
       id="id3">
      <path
         d="M 9 0.71875 L 117 0.71875 L 117 84 L 9 84 Z M 9 0.71875 "
         clip-rule="nonzero"
         id="path12" />
    </clipPath>
    <clipPath
       id="id4">
      <path
         d="M 0.589844 14.8125 L 118.566406 14.8125 L 118.566406 105.121094 L 0.589844 105.121094 Z M 0.589844 14.8125 "
         clip-rule="nonzero"
         id="path15" />
    </clipPath>
    <clipPath
       id="id5">
      <rect
         x="0"
         width="119"
         y="0"
         height="106"
         id="rect18" />
    </clipPath>
    <clipPath
       id="id6">
      <path
         d="M 126.964844 140.453125 L 242.761719 140.453125 L 242.761719 228.917969 L 126.964844 228.917969 Z M 126.964844 140.453125 "
         clip-rule="nonzero"
         id="path21" />
    </clipPath>
    <clipPath
       id="id7">
      <path
         d="M 271.738281 208.15625 L 285.238281 208.15625 L 285.238281 224.65625 L 271.738281 224.65625 Z M 271.738281 208.15625 "
         clip-rule="nonzero"
         id="path24" />
    </clipPath>
  </defs>
  <g
     id="g527"
     transform="matrix(1.3191303,0,0,1.3191303,930.09728,8.5827975)">
    <path
       fill="#72a391"
       d="m -450.80788,135.6327 c 0,-12.06641 6.01562,-24.8711 2.3125,-35.73047 -3.79297,-11.28125 -16.65235,-18.214844 -23.73047,-27.597656 -7.17188,-9.476563 -10.13281,-23.296875 -19.98438,-30.1875 -9.76171,-6.792969 -24.33593,-5.269531 -36.03906,-8.964844 -11.33594,-3.515625 -22.11328,-13.128906 -34.64844,-13.128906 -12.53906,0 -23.36328,9.566406 -34.65234,13.128906 -11.70312,3.648437 -26.32031,2.125 -36.08203,8.964844 -9.85547,6.890625 -12.81641,20.710937 -19.98438,30.1875 -7.125,9.382812 -19.9375,16.316406 -23.77734,27.597656 -3.65625,10.85937 2.3125,23.66406 2.3125,35.73047 0,12.0664 -6.01562,24.87109 -2.3125,35.73047 3.79297,11.28125 16.65234,18.21484 23.73047,27.59765 7.17187,9.47657 10.13281,23.29688 19.98437,30.1875 9.76172,6.83985 24.33204,5.3125 36.08594,8.96485 11.33203,3.51562 22.10938,13.1289 34.64844,13.1289 12.53516,0 23.35937,-9.5664 34.64844,-13.1289 11.70312,-3.65235 26.32422,-2.125 36.08593,-8.96485 9.85157,-6.89062 12.8125,-20.71093 19.98438,-30.1875 7.12109,-9.38281 19.9375,-16.3164 23.73047,-27.59765 3.70312,-10.90625 -2.3125,-23.71094 -2.3125,-35.73047"
       fill-opacity="1"
       fill-rule="nonzero"
       id="path37" />
    <path
       fill="#e5f6f0"
       d="m -454.89382,135.6327 c 0,-11.625 5.79688,-23.96094 2.23047,-34.42969 -3.65625,-10.867186 -16.04688,-17.55078 -22.86719,-26.593749 -6.91015,-9.128906 -9.76172,-22.449218 -19.25781,-29.085937 -9.40625,-6.546875 -23.44922,-5.078125 -34.72656,-8.640625 -10.92188,-3.382813 -21.3086,-12.648438 -33.38672,-12.648438 -12.08203,0 -22.51172,9.21875 -33.39063,12.648438 -11.27734,3.519531 -25.36328,2.050781 -34.76953,8.640625 -9.49219,6.636719 -12.34765,19.957031 -19.25781,29.085937 -6.86328,9.042969 -19.21094,15.726563 -22.91016,26.593749 -3.52343,10.46875 2.22657,22.80469 2.22657,34.42969 0,11.6289 -5.79297,23.96484 -2.22657,34.43359 3.65625,10.86719 16.04688,17.55078 22.86719,26.58985 6.91016,9.13281 9.76172,22.44921 19.25781,29.08593 9.40625,6.59375 23.44532,5.125 34.76953,8.64453 10.92188,3.38282 21.3086,12.64844 33.38672,12.64844 12.08203,0 22.51172,-9.21875 33.39063,-12.64844 11.27734,-3.51953 25.36328,-2.05078 34.76953,-8.64453 9.49609,-6.63672 12.34766,-19.95312 19.25781,-29.08593 6.86328,-9.03907 19.21094,-15.72266 22.86719,-26.58985 3.56641,-10.51172 -2.23047,-22.85156 -2.23047,-34.43359"
       fill-opacity="1"
       fill-rule="nonzero"
       id="path39" />
    <g
       mask="url(#id2)"
       id="g57"
       transform="translate(-750.49148,-49.769645)">
      <g
         transform="translate(126,126)"
         id="g55">
        <g
           clip-path="url(#id5)"
           id="g53">
          <g
             clip-path="url(#id3)"
             id="g43">
            <path
               fill="#95d5bd"
               d="m 105.30469,49.699219 -11.074221,9.304687 -15.363281,12.90625 c -0.496094,0.507813 -1.023438,1 -1.578126,1.464844 -0.554687,0.464844 -1.125,0.898438 -1.707031,1.296875 l -9.300781,7.378906 c -2.546875,2.179688 -6.453125,2.179688 -8.804688,0.0039 L 47.382812,73.375 36.972656,64.675781 20.769531,51.140625 C 9.496094,41.722656 5.574219,24.492188 13.5625,12.65625 c 8.773438,-13.003906 27.121094,-13.003906 38.855469,0 l 8.898437,9.867188 c 0.425782,0.46875 1.113282,0.464843 1.53125,-0.0039 L 72.929688,11.261719 c 11.09375,-12.390625 28.468752,-14.039063 38.082032,-2.6875 10.08594,11.914062 6.32812,31.011719 -5.70703,41.125"
               fill-opacity="1"
               fill-rule="nonzero"
               id="path41" />
          </g>
          <path
             fill="#95d5bd"
             d="m 69.640625,70.109375 0.914063,-1.75 c 0,0 -2.503907,2.582031 -5.488282,9.246094 -0.921875,1.609375 -1.792968,3.210937 -2.523437,4.703125 C 60.371094,77.5 56.851562,73.519531 55.367188,71.960938 c 0,0 -0.46875,-2.410157 -0.46875,-2.410157 -0.05469,-0.289062 3.03125,-3.277343 3.382812,-3.785156 1.007812,-1.453125 1.832031,-3.035156 2.425781,-4.699219 1.261719,-3.558594 0.375,-6.839844 0.664063,-10.414062 0.546875,0.460937 0.992187,1.085937 1.453125,1.644531 0.179687,-0.433594 0.359375,-0.871094 0.535156,-1.308594 -0.21875,0.539063 0.761719,4.023438 0.894531,4.859375 0.191406,1.195313 0.417969,2.390625 0.707032,3.566406 0,0 1.496093,4.8125 5.953124,8.738282 -0.382812,0.582031 -0.8125,1.238281 -1.273437,1.957031 z m 31.437505,-1.714844 -0.0195,-0.04297 c 6.50782,-5.171874 7.29297,-13.15625 7.27735,-16.863281 0.0234,0.02344 0.0469,0.03906 0.0703,0.05859 l -0.0703,-0.07422 c -0.008,-1.242187 -0.10547,-2.007812 -0.10547,-2.007812 0.49609,-3.371094 10.35937,-8.277344 9.16406,-22.824219 -0.11328,-1.410156 -2.13672,-1.855469 -3.52734,-1.589844 -9.97266,1.910157 -16.324221,9.117188 -16.324221,9.117188 L 93.75,32.984375 c -1.613281,-0.84375 -3.125,-1.460937 -4.535156,-1.910156 l -0.484375,-0.515625 c -0.05078,0.109375 -0.09375,0.214844 -0.144531,0.324218 -1.433594,-0.410156 -2.753907,-0.640624 -3.949219,-0.746093 l -1.613281,-0.507813 c 0.0078,0.06641 0.0078,0.21875 -0.0039,0.433594 -2.234375,0.0078 -3.910156,0.445312 -4.957031,0.828125 -0.117188,-0.02734 -0.234375,-0.05859 -0.355469,-0.08984 C 76.183594,28.214844 67.6875,17.027344 61.804688,16.089844 55.898438,15.144531 58.515625,26.585938 58.515625,26.585938 l 1.558594,0.34375 c -1.300781,0.542968 -3.203125,1.339843 -7.566407,0.375 -5.402343,-1.195313 -6.398437,4.054687 -6.398437,4.054687 v 0.0039 c -4.054687,-2.105469 -7.589844,-2.5625 -8.90625,-1.785156 -2.988281,1.757813 -8.433594,4.042969 -12.128906,4.042969 -3.6875,0 -4.566407,4.21875 -4.566407,4.21875 l 0.382813,1.246094 c -0.835937,-0.589844 -1.847656,-0.859376 -3.070313,-0.695313 -2.761718,0.371094 -4.671874,2.929687 -5.957031,5.175781 -0.722656,1.269532 -1.320312,2.609375 -1.84375,3.972656 -0.414062,1.078126 -0.445312,2.359376 -1.03125,3.363282 -0.09375,0.160156 -0.199219,0.304687 -0.316406,0.445312 -0.613281,0.730469 -1.523437,1.230469 -2.28125,1.773438 -2.121094,1.523437 -3.757813,3.761718 -4.410156,6.296875 -2.203125,8.601562 7.265625,14.011719 13.578125,17.140625 0.695312,0.347656 1.476562,0.808594 2.292968,1.167968 l -0.08203,0.640626 c -0.628906,1.496093 -7.820312,19.613281 8.867188,25.624998 0,0 6.503906,1.29687 6.492187,-8.253905 l -0.0039,-0.0039 c 0.832031,0.292969 1.683594,0.519531 2.550781,0.664063 2.378907,0.398437 4.824219,0.07422 7.097657,-0.683594 1.316406,-0.441406 2.828124,-0.984375 4.046874,-1.828125 v 0.0039 c 0,0 1.125,5.148437 0.894532,6.058594 -0.210938,0.847657 8.457031,7.539057 14.429687,-2.761719 l 0.02344,0.0078 -0.03125,0.01172 c -0.597657,1.15625 2.441406,3.511716 3.207031,4.136716 1.75,1.4375 3.796875,2.31641 6.109375,2.08984 5.113281,-0.5 7.480469,-5.042962 5.710937,-9.378899 l 0.484376,-0.546876 c 3.695312,1.191407 9.324218,1.996094 16.421874,-0.05859 0.9375,3.40625 3.15625,7.527345 6.996099,8.265625 1.10547,0.21094 2.24609,0.0195 3.35156,-0.18359 0.94922,-0.17578 1.91406,-0.37109 2.75391,-0.84766 6.6289,-3.757813 2.85156,-15.109375 0.64453,-20.328125 -1.77344,-4.203125 -4.0625,-8.261719 -6.73828,-11.960938"
             fill-opacity="1"
             fill-rule="nonzero"
             id="path45" />
          <path
             fill="#95d5bd"
             d="m 62.542969,82.308594 c 0,0 0.429687,4.765625 1.976562,7.136718 1.546875,2.371094 -2.382812,7.761719 -2.382812,7.761719 l 0.769531,1.914063 c 0,0 1.757812,3.050786 6.445312,4.203126 4.6875,1.15625 8.296876,-5.63672 8.296876,-5.63672 v -4.179688 c 0,0 6.152343,2.238282 10.179687,1.105469 4.027344,-1.128906 6.242187,-0.144531 6.242187,-0.144531 0,0 0.40625,2.890625 4.875,6.41797 4.472658,3.52734 10.999998,-1.16797 12.964848,-6.769532 1.96484,-5.601563 -9.42578,-25.5625 -9.42578,-25.5625 0,0 -2.949224,-0.402344 -5.925786,2.128906 -2.976563,2.53125 -11.738282,1.394531 -16.75,1.394531 -5.011719,0 -9.253906,-3.71875 -9.253906,-3.71875 z M 35.675781,96.398438 c 6.316407,1.324218 12.546875,-4.457032 12.546875,-4.457032 l 0.710938,-3.78125 -2.140625,-5.851562 c 0,0 -8.917969,-8.5625 -13.664063,-3.195313 -4.75,5.367188 -2.488281,14.542969 -2.488281,14.542969 0,0 -1.285156,1.417969 5.035156,2.742188 z M 99.1875,40.765625 c 0,0 1.86328,-1.792969 2.21484,-3.058594 0.35547,-1.265625 6.21485,-5.085937 8.84375,-5.582031 2.625,-0.496094 0.45313,3.78125 0.45313,3.78125 l -3.9375,6.277344 -2.64844,1.957031 1.42578,3.007813 c 0,0 -0.28515,3.066406 3.05469,1.335937 3.33984,-1.726563 7.83203,-13.78125 7.83203,-13.78125 l 1.0586,-5.074219 -1.0586,-4.273437 c -9.91797,-0.914063 -19.867186,9.996093 -19.867186,9.996093 z M 88.585938,30.882812 c 0,0 -4.546876,9.6875 -2.628907,14.757813 1.917969,5.070313 1.601563,3.125 6.125,3.816406 4.523438,0.695313 9.320309,-0.08984 9.320309,-0.08984 l 5.85547,1.285156 1.33594,-2.167969 c 0,0 -1.78516,-5.617187 -3.87109,-6.753906 C 102.63281,40.59375 96.898438,32.5625 88.585938,30.882812 Z M 64.519531,28.679688 c 0,0 -0.808593,-4.390626 0,-6.082032 0.808594,-1.691406 6.394531,8.125 6.394531,8.125 l -0.710937,1.402344 -0.851563,2.609375 1.5625,0.617187 6.734376,-0.617187 0.613281,-5.046875 c 0,0 -9.019531,-12.777344 -15.855469,-13.46875 -6.832031,-0.691406 -3.890625,10.367188 -3.890625,10.367188 1.957031,-1.652344 6.003906,2.09375 6.003906,2.09375 z m 1.414063,4.425781 C 65.070312,32.871094 63.28125,48.050781 63.28125,48.050781 l 6.921875,-0.902343 5.664063,0.902343 3.941406,-3.46875 c 0,0 -0.257813,-3.253906 0.0039,-4.003906 0.261719,-0.75 2.058594,-2.769531 2.058594,-2.769531 L 81.375,34.609375 l 0.496094,-3.460937 1.152344,-1.519532 -1.800782,0.34375 -14.441406,4.457032 z M 17.851562,77.726562 c 0,0 3.226563,0.960938 4.550782,-0.539062 1.324218,-1.503906 4.535156,-26.738281 1.539062,-33.667969 -3,-6.925781 -6.609375,-6.734375 -9.109375,-3.730469 -2.503906,3 -5.84375,11.113282 -5.84375,11.113282 0,0 -5.972656,5.515625 -6.492187,7.015625 -0.515625,1.5 -1.765625,6.765625 2.589844,11.625 4.355468,4.859375 12.765624,8.183593 12.765624,8.183593 z M 49.191406,27.449219 c 1.996094,0.01563 6.402344,0.292969 7.371094,0.789062 0.964844,0.5 2.964844,-1.425781 5.347656,-1.488281 2.382813,-0.06641 4.042969,7.488281 3.246094,12.664062 -0.792969,5.171876 -2.75,12.945313 -2.75,12.945313 0,0 -1.035156,-1.707031 -2.828125,-6.316406 C 57.78125,41.4375 50.628906,32.96875 46.109375,31.359375 c 0,0 1.085937,-3.925781 3.082031,-3.910156"
             fill-opacity="1"
             fill-rule="nonzero"
             id="path47" />
          <g
             clip-path="url(#id4)"
             id="g51">
            <path
               fill="#95d5bd"
               d="m 32.441406,48.441406 c -0.304687,-1.316406 0.203125,-2.554687 1.132813,-2.769531 0.929687,-0.214844 1.925781,0.675781 2.230469,1.988281 0.304687,1.316406 -0.199219,2.554688 -1.128907,2.769532 -0.929687,0.214843 -1.929687,-0.675782 -2.234375,-1.988282 z m 9.898438,-2.453125 c 0.04297,-1.347656 0.851562,-2.414062 1.804687,-2.382812 0.953125,0.02734 1.691407,1.144531 1.648438,2.496093 -0.04297,1.347657 -0.851563,2.414063 -1.804688,2.382813 -0.953125,-0.02734 -1.691406,-1.144531 -1.648437,-2.496094 z M 91.28125,44.53125 c -0.304688,1.3125 -1.304688,2.203125 -2.234375,1.988281 C 88.117188,46.304688 87.613281,45.0625 87.917969,43.75 c 0.300781,-1.3125 1.304687,-2.203125 2.230469,-1.984375 0.929687,0.210937 1.4375,1.453125 1.132812,2.765625 z M 74.203125,41.714844 c 0.367187,-1.296875 1.40625,-2.140625 2.328125,-1.882813 0.914062,0.261719 1.363281,1.523438 0.996094,2.820313 -0.367188,1.300781 -1.40625,2.140625 -2.324219,1.882812 -0.917969,-0.261718 -1.363281,-1.523437 -1,-2.820312 z m 32.441405,58.039062 c -0.66797,0.375004 -1.49219,0.550784 -2.42187,0.722654 -1.08985,0.20313 -2.0625,0.35938 -2.95313,0.1836 -3.378905,-0.64453 -5.128905,-4.398441 -5.855468,-6.50391 0.597657,-0.191406 1.203126,-0.402344 1.824219,-0.636719 l -0.757812,-2 c -14.109375,5.335938 -23.0625,-1.15625 -23.152344,-1.222656 l -1.285156,1.710937 c 0.144531,0.109376 1.53125,1.121094 3.964843,2.070313 0.867188,1.8125 0.914063,3.714844 0.101563,5.316406 -0.867187,1.699219 -2.558594,2.757809 -4.757813,2.976559 -1.8125,0.17579 -3.613281,-0.44531 -5.332031,-1.85546 L 65.847656,100.375 c -2.203125,-1.78125 -2.625,-2.527344 -2.703125,-2.78125 0.441407,-0.769531 0.867188,-1.625 1.273438,-2.582031 1.667969,-3.9375 1.078125,-8.113281 -0.40625,-11.90625 2.964843,-8.214844 5.917969,-12.304688 6.9375,-13.5625 3.203125,2.589843 7.695312,4.675781 13.878906,4.675781 0.132813,0 0.273437,0 0.40625,-0.0039 6.394531,-0.09375 11.601563,-1.550782 15.566405,-4.332032 2.375,3.410157 4.41406,7.058594 6.03125,10.890626 1.9336,4.578124 5.78906,15.589843 -0.1875,18.980468 z M 63.082031,97.699219 c 0.0039,-0.0078 0.0078,-0.0078 0.0078,-0.01172 0,0.0039 0,0.0078 -0.0039,0.01172 z m -8.589843,4.082031 c -2.871094,0.22266 -5.144532,-1.43359 -5.6875,-2.019531 0.03516,-1.199219 -0.417969,-3.640625 -0.792969,-5.421875 0.417969,-0.347656 0.796875,-0.738282 1.121093,-1.183594 1.21875,-1.6875 1.527344,-3.828125 0.941407,-6.535156 -0.601563,-2.769532 -2.886719,-5.679688 -5.964844,-7.597656 -2.875,-1.792969 -6.023437,-2.449219 -8.621094,-1.808594 -2.011719,0.503906 -3.753906,2.195312 -5.03125,4.90625 -1.910156,4.042968 -2.535156,10.066406 -1.3125,12.636718 0.28125,0.589844 0.9375,0.898438 1.769531,1.234376 0.09766,0.03906 0.179688,0.07031 0.234376,0.09766 0.292968,0.136718 0.589843,0.261718 0.890624,0.382812 -0.105468,2.644532 -0.796874,4.57812 -2.023437,5.60156 -1.269531,1.0625 -2.777344,0.92187 -3.105469,0.87891 C 22.53125,101.35547 19.53125,98.730469 17.996094,95.148438 15.25,88.753906 17.878906,81.035156 18.617188,79.128906 c 0.441406,0.117188 0.890624,0.195313 1.347656,0.195313 0.570312,0 1.148437,-0.109375 1.71875,-0.382813 C 25.230469,77.25 26.222656,59.949219 26.054688,54.683594 25.847656,48.246094 25.191406,41.289062 21.90625,38.507812 21.652344,38.296875 21.386719,38.128906 21.117188,37.96875 l 0.4375,0.09375 c 0.03125,-0.136719 0.761718,-3.371094 3.523437,-3.371094 4.066406,0 9.804687,-2.507812 12.667969,-4.191406 0.515625,-0.300781 2.289062,-0.394531 5.070312,0.589844 2.746094,0.96875 12.074219,5.09375 16.761719,17.5 2.542969,6.730468 0.777344,14.179687 -4.601563,19.4375 -6.03125,5.898437 -14.914062,7.488281 -23.171874,4.152344 l -0.800782,1.984374 c 3.125,1.261719 6.332032,1.878907 9.46875,1.878907 4.792969,0 9.402344,-1.464844 13.296875,-4.253907 C 55.339844,73.375 66.355469,84.960938 62.445312,94.175781 60.4375,98.90625 57.6875,101.53906 54.492188,101.78125 Z M 42.4375,94.699219 c -2.277344,0.757812 -4.554688,0.984375 -6.585938,0.644531 -1.296874,-0.21875 -2.574218,-0.617188 -3.785156,-1.191406 -0.08203,-0.03516 -0.203125,-0.08594 -0.34375,-0.144532 -0.15625,-0.0625 -0.523437,-0.210937 -0.710937,-0.316406 -0.773438,-1.9375 -0.355469,-6.984375 1.378906,-10.65625 0.695313,-1.46875 1.886719,-3.308594 3.613281,-3.738281 2.042969,-0.507813 4.582032,0.05469 6.972656,1.542969 2.609376,1.625 4.523438,4.011718 5.003907,6.234375 0.457031,2.109375 0.269531,3.644531 -0.585938,4.828125 -0.992187,1.382812 -2.992187,2.140625 -4.957031,2.796875 z M 3.019531,59.683594 c 0.5625,-2.195313 2.019531,-4.273438 4,-5.695313 0.179688,-0.128906 0.375,-0.257812 0.566407,-0.386719 0.632812,-0.425781 1.351562,-0.90625 1.90625,-1.566406 0.15625,-0.1875 0.292968,-0.378906 0.417968,-0.589844 0.429688,-0.738281 0.613282,-1.558593 0.777344,-2.28125 0.09766,-0.453124 0.191406,-0.875 0.332031,-1.246093 0.558594,-1.457031 1.136719,-2.707031 1.773438,-3.816407 1.644531,-2.882812 3.335937,-4.402343 5.167969,-4.648437 0.191406,-0.02734 0.375,-0.03906 0.550781,-0.03906 0.769531,0 1.433593,0.242188 2.011719,0.730469 3,2.539063 3.273437,10.996094 3.390624,14.609375 0.265626,8.339844 -1.5625,21.242188 -3.152343,22.253906 -1.105469,0.53125 -2.515625,-0.230468 -3.878907,-0.960937 -0.292968,-0.15625 -0.578124,-0.3125 -0.851562,-0.445313 C 8.972656,72.097656 1.113281,67.121094 3.019531,59.683594 Z M 48.96875,28.761719 c 0.863281,-0.566407 1.972656,-0.707031 3.308594,-0.410157 4.683594,1.035157 6.804687,0.152344 8.207031,-0.433593 0.261719,-0.109375 0.496094,-0.210938 0.652344,-0.261719 0.257812,0.01563 1.074219,0.53125 1.878906,1.628906 v 0.08594 h 0.0625 c 0.03125,0.03906 0.05859,0.07422 0.08594,0.117187 0.554688,0.808594 1.464844,2.464844 1.34375,4.476563 -0.199218,3.351562 -1.4375,12.148437 -2.214843,16.210937 -0.191407,-0.785156 -0.421875,-1.570312 -0.710938,-2.34375 -3.625,-9.589843 -9.878906,-14.558593 -14.195312,-16.980469 0.242187,-0.625 0.722656,-1.519531 1.582031,-2.089843 z m 17.664062,4.34375 C 66.527344,31.453125 65.949219,29.894531 65.15625,28.628906 V 24.25 c 0.6875,0.597656 1.917969,1.914062 3.921875,4.820312 l 1.078125,1.695313 c 0.05469,0.09375 0.05078,0.179687 0.03906,0.234375 -0.01172,0.05469 -0.04687,0.132812 -0.132812,0.1875 -0.867188,0.535156 -2.101562,1.25 -3.429688,1.917969 z M 59.949219,17.578125 c 0.246093,-0.261719 0.6875,-0.59375 1.6875,-0.433594 4.816406,0.769531 12.148437,9.648438 14.636719,13.394531 -0.01563,0.01172 -0.03125,0.01953 -0.03906,0.02734 l 1.136719,1.8125 c 0.140625,-0.08594 1.710937,-1.015625 4.5,-1.230468 -0.316406,3.183593 -1.554688,10.542968 -4.398438,13.679687 -0.808594,0.890625 -1.648437,1.34375 -2.574218,1.382813 -5.539063,0.242187 -8.445313,0.644531 -9.90625,0.9375 0.613281,-3.847657 1.253906,-8.652344 1.535156,-11.613282 1.800781,-0.828125 3.523437,-1.828125 4.660156,-2.527344 0.558594,-0.34375 0.949219,-0.886718 1.09375,-1.527343 0.148438,-0.640625 0.03516,-1.300781 -0.320312,-1.859375 l -1.09766,-1.730465 C 66.886719,22.125 65.289062,21.503906 64.261719,21.644531 c -0.675781,0.09766 -1.0625,0.582031 -1.191407,0.964844 l -0.05469,0.164063 v 3.488281 c -0.855469,-0.621094 -1.675781,-0.871094 -2.371094,-0.679688 -0.308593,0.08203 -0.625,0.210938 -0.984375,0.363281 -0.05469,0.01953 -0.117187,0.04297 -0.171875,0.06641 -0.550781,-2.644531 -0.878906,-7 0.460938,-8.433594 z m 54.121091,8.523437 c 0.73047,-0.140624 1.63672,0.0039 2.0625,0.324219 0.1836,0.136719 0.19141,0.25 0.19532,0.300781 0.80468,9.816407 -3.6211,15.011719 -6.55079,18.453126 -1.34765,1.582031 -2.41406,2.832031 -2.60546,4.132812 l -0.004,0.05469 c -4.1875,-2.265626 -9.796876,-1.515626 -13.69922,-0.984376 -0.375,0.05078 -0.765625,0.117188 -1.171875,0.1875 -1.453125,0.253907 -2.957031,0.515626 -4.023437,0.0039 -1.289063,-0.621094 -1.910157,-2.117188 -1.894532,-4.566407 0.03125,-4.429687 1.128906,-8.011718 2.804688,-11.835937 2.667968,0.890625 5.742187,2.433594 9.183594,4.996094 l 1.277343,-1.71875 c -0.371093,-0.273438 -0.734375,-0.535157 -1.097656,-0.789063 1.089844,-1.144531 6.929685,-6.914062 15.523435,-8.558594 z M 55.460938,70.457031 c 0.339843,-0.296875 0.6875,-0.578125 1.011718,-0.898437 3.984375,-3.894532 6.171875,-8.878906 6.367188,-13.996094 0.40625,2.339844 1.058594,4.066406 1.097656,4.167969 0.02734,0.07813 1.445312,4.457031 5.414062,8.378906 -1.03125,1.246094 -3.734374,4.941406 -6.59375,12.246094 C 60.230469,75.5 56.65625,71.667969 55.460938,70.457031 Z m 47.136722,-5.046875 c -3.742191,4.304688 -9.593754,6.550782 -17.394535,6.664063 -0.128906,0 -0.253906,0.0039 -0.382813,0.0039 -14.59375,0 -18.667968,-12.449219 -18.863281,-13.050781 -0.01953,-0.05469 -2.046875,-5.394532 -1,-9.683594 0.96875,-0.234375 3.648438,-0.714844 10.035157,-0.992188 1.605468,-0.07031 3.054687,-0.863281 4.308593,-2.363281 3.160157,-3.78125 4.410157,-11.441406 4.714844,-14.855469 0.9375,0.05469 1.96875,0.191407 3.085937,0.449219 -1.71875,3.964844 -2.832031,7.726563 -2.863281,12.414063 -0.01953,3.3125 1.023438,5.503906 3.109375,6.507812 1.683594,0.808594 3.613282,0.472656 5.316406,0.175782 0.378907,-0.06641 0.742188,-0.128907 1.089844,-0.175782 4.238282,-0.574218 9.972654,-1.339844 13.503904,1.484375 -0.0547,3.179688 -0.75781,8.933594 -4.66015,13.421875 z m -0.11328,3.144532 c 0.61718,-0.546876 1.20312,-1.128907 1.74609,-1.757813 5.90625,-6.8125 5.23437,-15.863281 5.08594,-17.289063 0.17578,-0.691406 1.0664,-1.738281 2.08984,-2.941406 2.96875,-3.480468 7.93359,-9.3125 7.05469,-20.015625 -0.0586,-0.726562 -0.41406,-1.359375 -1.03125,-1.828125 -1.04688,-0.796875 -2.64063,-0.9375 -3.76172,-0.722656 -10.21484,1.957031 -16.656251,9.15625 -16.925782,9.460938 l 0.01562,0.01172 C 87.855469,27.886719 81.363281,28.695312 78.261719,29.6875 76.25,26.683594 68.195312,16.027344 61.972656,15.03125 60.128906,14.734375 59,15.457031 58.386719,16.113281 c -2.460938,2.628907 -1.277344,9.023438 -0.964844,10.484375 -1.09375,0.15625 -2.554687,0.132813 -4.683594,-0.339844 -1.921875,-0.421874 -3.585937,-0.183593 -4.945312,0.71875 -1.238281,0.8125 -1.929688,1.992188 -2.3125,2.898438 -0.796875,-0.367188 -1.476563,-0.636719 -1.953125,-0.808594 -2.964844,-1.042968 -5.53125,-1.199218 -6.867188,-0.410156 -3.207031,1.886719 -8.359375,3.894531 -11.582031,3.894531 -3.460937,0 -5.109375,3.042969 -5.5625,4.839844 -0.582031,-0.109375 -1.1875,-0.148437 -1.839844,-0.0625 -2.539062,0.34375 -4.746093,2.210937 -6.742187,5.710937 C 10.242188,44.246094 9.617188,45.59375 9.019531,47.15625 8.824219,47.671875 8.707031,48.191406 8.59375,48.695312 8.457031,49.324219 8.324219,49.914062 8.0625,50.363281 8,50.46875 7.929688,50.566406 7.851562,50.660156 7.492188,51.085938 6.960938,51.441406 6.398438,51.820312 6.179688,51.964844 5.96875,52.105469 5.765625,52.25 c -2.410156,1.734375 -4.125,4.1875 -4.820313,6.902344 -2.582031,10.074218 9.5625,16.097656 14.136719,18.367187 0.253907,0.125 0.515625,0.269531 0.789063,0.414063 0.238281,0.128906 0.492187,0.265625 0.757812,0.398437 -0.835937,2.113281 -3.703125,10.414063 -0.605468,17.652344 C 17.8125,100.16016 21.261719,103.19531 26.277344,105 l 0.152344,0.043 c 0.03906,0.008 0.410156,0.0781 0.964843,0.0781 0.984375,0 2.554688,-0.21875 3.960938,-1.37109 1.640625,-1.35156 2.578125,-3.56641 2.792969,-6.585938 0.449218,0.113282 0.898437,0.214844 1.351562,0.292969 0.730469,0.121094 1.488281,0.183594 2.257812,0.183594 1.738282,0 3.550782,-0.308594 5.355469,-0.910156 1.007813,-0.339844 2.019531,-0.707031 2.957031,-1.167969 0.371094,1.875 0.660157,3.71875 0.605469,4.125 -0.375,1.51172 2.585938,3.18359 4.257813,3.74219 0.742187,0.25 1.800781,0.5039 3.039062,0.5039 2.320313,0 5.265625,-0.89843 7.898438,-4.390621 0.660156,0.828121 1.613281,1.675781 2.628906,2.500001 l 0.164062,0.12891 c 1.917969,1.57421 3.953126,2.36718 6.0625,2.36718 0.277344,0 0.550782,-0.0117 0.832032,-0.0391 2.910156,-0.28516 5.265625,-1.79297 6.457031,-4.13672 0.839844,-1.648436 1.003906,-3.570311 0.542969,-5.453124 1.921875,0.515625 4.234375,0.890625 6.90625,0.890625 2.359375,0 5.003906,-0.304687 7.890625,-1.050781 0.847656,2.476562 3.011719,7.15234 7.507811,8.01563 0.41406,0.0781 0.82422,0.10937 1.23438,0.10937 0.83984,0 1.67187,-0.13281 2.51953,-0.29297 1.12109,-0.20703 2.1289,-0.42578 3.08594,-0.96875 7.47265,-4.234374 3.25781,-16.570311 1.10156,-21.67578 -1.69531,-4.003906 -3.82813,-7.820312 -6.32031,-11.382812 z M 87.570312,59.25 l 1.542969,1.488281 c -0.101562,0.101563 -2.140625,2.1875 -4.53125,2.1875 -0.382812,0 -0.769531,-0.05078 -1.164062,-0.175781 -1.445313,-0.449219 -2.546875,-1.6875 -3.339844,-3.722656 -0.644531,1.433594 -1.570313,2.683594 -2.90625,3.203125 -0.445313,0.171875 -0.90625,0.257812 -1.382813,0.257812 -1.589843,0 -3.359374,-0.953125 -5.28125,-2.84375 l 1.5,-1.527343 c 1.269532,1.25 3.058594,2.632812 4.386719,2.117187 1.472657,-0.574219 2.289063,-3.183594 2.691407,-5.359375 -1.414063,-0.625 -2.316407,-2.910156 -2.464844,-5.078125 -0.195313,-2.917969 7.574218,-1.6875 7.117187,0.132813 -0.125,0.5 -0.582031,3.332031 -2.414062,4.589843 -0.02734,0.171875 -0.05469,0.34375 -0.08594,0.527344 0.554688,3.25 1.550781,5.265625 2.816407,5.660156 C 85.386719,61.125 87.078125,59.761719 87.570312,59.25 Z M 39.648438,56.917969 c -0.04688,-0.175781 -0.09766,-0.34375 -0.140626,-0.511719 -1.957031,-1.050781 -2.71875,-3.816406 -2.898437,-4.300781 -0.652344,-1.757813 6.9375,-3.828125 7.058594,-0.90625 0.09375,2.175781 -0.5625,4.550781 -1.902344,5.320312 0.683594,2.277344 1.824219,4.644531 3.265625,5.03125 1.371094,0.375 3,-1.203125 4.128906,-2.582031 l 1.65625,1.355469 C 48.960938,62.601562 47.160156,63.75 45.457031,63.75 c -0.332031,0 -0.65625,-0.04297 -0.980469,-0.128906 -1.386718,-0.375 -2.441406,-1.511719 -3.242187,-2.871094 -0.566406,2.109375 -1.527344,3.460938 -2.914063,4.066406 -0.53125,0.230469 -1.074218,0.328125 -1.601562,0.328125 -2.199219,0 -4.175781,-1.625 -4.277344,-1.710937 L 33.8125,61.789062 c 0.585938,0.484376 2.390625,1.621094 3.65625,1.0625 1.214844,-0.53125 1.984375,-2.640624 2.179688,-5.933593 z M 103.21094,37.367188 c 0.10547,-0.08984 0.19922,-0.171876 0.26953,-0.242188 1.29687,-1.246094 3.00391,-2.351562 5.07812,-3.28125 0.14063,-0.0625 0.32813,-0.164062 0.54297,-0.277344 0.30469,-0.164062 1.15235,-0.613281 1.59766,-0.691406 -0.004,0.09766 -0.0156,0.210938 -0.0273,0.265625 -0.35938,2.828125 -2.28125,5.296875 -3.69141,6.910156 l -0.13672,0.15625 c -0.30859,0.351563 -0.62891,0.71875 -0.95312,1.042969 -0.0664,-0.08594 -0.13672,-0.171875 -0.21485,-0.261719 l -2.5391,-2.925781 c -0.0977,-0.113281 -0.19531,-0.21875 -0.28516,-0.3125 -0.0117,-0.0078 -0.0195,-0.01563 -0.0273,-0.02734 0.125,-0.125 0.28906,-0.269531 0.38672,-0.355468 z m -1.69141,2.097656 2.53906,2.925781 c 0.10547,0.121094 0.19141,0.238281 0.27344,0.339844 0.29688,0.386719 0.66406,0.863281 1.34375,0.921875 0.043,0.0039 0.082,0.0039 0.1211,0.0039 0.57812,0 1.03125,-0.351562 1.32812,-0.625 0.48438,-0.449219 0.91406,-0.941406 1.33203,-1.414062 l 0.13281,-0.15625 c 1.59766,-1.820313 3.77344,-4.640626 4.20704,-8.050782 0.0469,-0.359375 0.0859,-0.789062 -0.0469,-1.25 -0.17187,-0.597656 -0.55469,-1.050781 -1.07812,-1.273437 -1.16407,-0.496094 -2.5586,0.246093 -3.57422,0.789062 -0.16407,0.08984 -0.3086,0.164063 -0.41797,0.214844 -2.29688,1.03125 -4.21094,2.273437 -5.6836,3.691406 -0.0547,0.05078 -0.125,0.113281 -0.19921,0.179688 -0.4375,0.386719 -0.97657,0.863281 -1.15625,1.46875 -0.0586,0.207031 -0.082,0.417969 -0.0703,0.621093 0.043,0.664063 0.44532,1.082032 0.73828,1.386719 0.0664,0.07031 0.14063,0.140625 0.21094,0.226563"
               fill-opacity="1"
               fill-rule="nonzero"
               id="path49" />
          </g>
        </g>
      </g>
    </g>
    <path
       fill="#ff8b87"
       d="m -520.74538,124.85926 -10.86719,9.11328 -15.08203,12.64453 c -0.48828,0.4961 -1.00391,0.97657 -1.54688,1.4336 -0.54687,0.45703 -1.10546,0.8789 -1.67578,1.27343 l -9.13281,7.22657 c -2.5,2.13281 -6.33203,2.13281 -8.63672,0.004 l -9.91015,-8.5039 -10.21875,-8.51953 -15.90235,-13.26172 c -11.0625,-9.22266 -14.91797,-26.10547 -7.07422,-37.695315 8.61328,-12.738281 26.6211,-12.738281 38.13672,0 l 8.73828,9.664062 c 0.41407,0.457032 1.08985,0.457032 1.5,-0.0039 l 9.89453,-11.027344 c 10.89063,-12.140624 27.94141,-13.753906 37.37891,-2.632812 9.90234,11.667969 6.21094,30.378909 -5.60156,40.285159"
       fill-opacity="1"
       fill-rule="nonzero"
       id="path59" />
    <path
       fill="#e5f6f0"
       d="m -555.74929,144.85145 0.89844,-1.71094 c 0,0 -2.46094,2.52734 -5.39063,9.05469 -0.90234,1.57422 -1.75781,3.14844 -2.47265,4.60547 -2.13672,-4.70703 -5.58594,-8.60547 -7.04688,-10.13672 0,0 -0.45703,-2.35938 -0.45703,-2.35938 -0.0547,-0.28125 2.97266,-3.21093 3.31641,-3.70703 0.99219,-1.42187 1.80078,-2.97265 2.38281,-4.60547 1.23828,-3.48437 0.36719,-6.69531 0.65234,-10.19922 0.53907,0.45313 0.97266,1.0625 1.42579,1.60938 0.17578,-0.42578 0.35156,-0.85156 0.52734,-1.27734 -0.21875,0.52734 0.74219,3.9375 0.875,4.75781 0.1875,1.16797 0.41406,2.33984 0.69531,3.49219 0,0 1.46875,4.71484 5.83985,8.5625 -0.375,0.57031 -0.79297,1.21093 -1.2461,1.91406 z m 30.85547,-1.67969 -0.0195,-0.0391 c 6.39062,-5.06641 7.16016,-12.88672 7.14453,-16.51953 0.0234,0.0195 0.0469,0.0352 0.0664,0.0547 l -0.0664,-0.0703 c -0.008,-1.21875 -0.10156,-1.96875 -0.10156,-1.96875 0.48437,-3.30078 10.16406,-8.10547 8.99219,-22.35937 -0.11329,-1.37891 -2.09766,-1.81641 -3.46094,-1.55469 -9.78906,1.87109 -16.02344,8.92969 -16.02344,8.92969 l -3.72656,-1.16016 c -1.58203,-0.82422 -3.06641,-1.42969 -4.44531,-1.86719 l -0.47657,-0.50781 c -0.0508,0.10547 -0.0937,0.21094 -0.14453,0.31641 -1.41015,-0.40235 -2.69922,-0.62891 -3.875,-0.73047 l -1.58203,-0.4961 c 0.004,0.0625 0.004,0.21485 -0.004,0.42579 -2.1914,0.004 -3.83984,0.43359 -4.86718,0.8125 -0.11719,-0.0312 -0.23047,-0.0625 -0.34766,-0.0898 -1.49609,-2.53515 -9.83594,-13.492185 -15.60937,-14.41406 -5.79688,-0.925781 -3.23047,10.28516 -3.23047,10.28516 l 1.53125,0.33593 c -1.27735,0.53125 -3.14453,1.3125 -7.42578,0.36719 -5.30469,-1.17187 -6.28125,3.97266 -6.28125,3.97266 v 0.004 c -3.97657,-2.0625 -7.44922,-2.51172 -8.74219,-1.75 -2.92969,1.72266 -8.27735,3.96094 -11.90235,3.96094 -3.62109,0 -4.48437,4.13281 -4.48437,4.13281 l 0.37891,1.21875 c -0.82422,-0.57422 -1.8125,-0.83984 -3.01563,-0.67968 -2.71094,0.36328 -4.58594,2.86718 -5.84766,5.07031 -0.71093,1.24219 -1.29687,2.55469 -1.80859,3.89062 -0.40625,1.0586 -0.4375,2.3125 -1.01562,3.29688 -0.0898,0.15234 -0.19532,0.29687 -0.3086,0.43359 -0.60156,0.71485 -1.49609,1.20703 -2.23828,1.73828 -2.08203,1.4961 -3.69141,3.6875 -4.32812,6.16797 -2.16407,8.42578 7.13281,13.72656 13.32421,16.79297 0.6836,0.33594 1.45313,0.78906 2.25,1.14063 l -0.0781,0.6289 c -0.61719,1.46875 -7.67578,19.21485 8.70703,25.10156 0,0 6.38281,1.27344 6.36719,-8.08593 v -0.004 c 0.8125,0.28516 1.65234,0.51172 2.5039,0.65234 2.33204,0.39063 4.73438,0.0742 6.96485,-0.67187 1.28906,-0.42969 2.77734,-0.96484 3.97265,-1.78906 v 0.004 c 0,0 1.10157,5.04297 0.87891,5.9336 -0.21094,0.83203 8.30078,7.38672 14.16016,-2.70703 l 0.0273,0.0117 -0.0352,0.008 c -0.58593,1.13281 2.39454,3.4414 3.14844,4.05859 1.71875,1.40625 3.72656,2.26563 5.9961,2.04688 5.01953,-0.49219 7.34375,-4.94532 5.60546,-9.1875 l 0.47657,-0.53907 c 3.6289,1.16797 9.15234,1.95703 16.11718,-0.0586 v 0.004 c 0.92188,3.33593 3.09766,7.37109 6.86719,8.09375 1.08594,0.20703 2.20313,0.0195 3.29297,-0.17969 0.92969,-0.17188 1.875,-0.36328 2.69922,-0.83203 6.50781,-3.67969 2.80078,-14.79688 0.63672,-19.91016 -1.74219,-4.11719 -3.98828,-8.09375 -6.61719,-11.71875"
       fill-opacity="1"
       fill-rule="nonzero"
       id="path61" />
    <path
       fill="#74ebdd"
       d="m -562.71413,156.80067 c 0,0 0.41797,4.67187 1.9375,6.99218 1.51953,2.32422 -2.33985,7.60157 -2.33985,7.60157 l 0.75782,1.8789 c 0,0 1.72265,2.98828 6.32422,4.11719 4.60156,1.12891 8.14453,-5.52344 8.14453,-5.52344 v -4.09375 c 0,0 6.03906,2.19141 9.99218,1.08594 3.95313,-1.10937 6.125,-0.14453 6.125,-0.14453 0,0 0.39844,2.83203 4.78907,6.28906 4.38672,3.45313 10.79297,-1.14453 12.72265,-6.63281 1.92969,-5.48438 -9.2539,-25.04297 -9.2539,-25.04297 0,0 -2.89063,-0.39062 -5.8125,2.08984 -2.92188,2.47657 -11.52344,1.36329 -16.44141,1.36329 -4.91797,0 -9.08203,-3.64063 -9.08203,-3.64063 z m -26.3711,13.80468 c 6.19922,1.29688 12.3125,-4.36718 12.3125,-4.36718 l 0.69922,-3.70313 -2.10156,-5.73437 c 0,0 -8.75391,-8.38672 -13.41406,-3.12891 -4.66016,5.25781 -2.44141,14.24609 -2.44141,14.24609 0,0 -1.25781,1.39063 4.94531,2.6875 z m 62.33594,-54.49609 c 0,0 1.82813,-1.75781 2.17188,-2.99609 0.34765,-1.24219 6.10156,-4.98438 8.68359,-5.46875 2.57813,-0.48438 0.44141,3.70312 0.44141,3.70312 l -3.86328,6.14844 -2.59766,1.91797 1.39844,2.94531 c 0,0 -0.27735,3.00391 3,1.3125 3.27343,-1.69531 7.68359,-13.50391 7.68359,-13.50391 l 1.04297,-4.96875 -1.04297,-4.1875 c -9.73047,-0.89453 -19.49609,9.79297 -19.49609,9.79297 z m -10.40625,-9.68359 c 0,0 -4.46094,9.49218 -2.57812,14.45703 1.88281,4.96875 1.57031,3.0625 6.01172,3.74219 4.4375,0.67578 9.14453,-0.0898 9.14453,-0.0898 l 5.75,1.25781 1.3125,-2.12109 c 0,0 -1.75391,-5.50391 -3.80078,-6.61719 -2.05079,-1.11718 -7.67969,-8.98437 -15.83985,-10.6289 z m -23.62109,-2.16016 c 0,0 -0.79297,-4.30078 0,-5.95703 0.79687,-1.65625 6.27344,7.96094 6.27344,7.96094 l -0.69532,1.375 -0.83593,2.55468 1.53125,0.60547 6.61328,-0.60547 0.60547,-4.94531 c 0,0 -8.85938,-12.515623 -15.56641,-13.191404 -6.70703,-0.679687 -3.82031,10.156254 -3.82031,10.156254 1.92187,-1.61719 5.89453,2.04687 5.89453,2.04687 z m 1.39062,4.33984 c -0.85156,-0.23046 -2.60547,14.64063 -2.60547,14.64063 l 6.79297,-0.88672 5.5586,0.88672 3.87109,-3.40234 c 0,0 -0.25391,-3.1875 0,-3.92188 0.25781,-0.73437 2.02344,-2.71094 2.02344,-2.71094 l -0.48828,-3.13281 0.48828,-3.39062 1.13281,-1.48829 -1.76953,0.33594 -14.17188,4.36328 z m -47.19922,43.70704 c 0,0 3.17188,0.94531 4.46875,-0.52735 1.30079,-1.47265 4.45313,-26.1914 1.51172,-32.98047 -2.94531,-6.78515 -6.48828,-6.59375 -8.9414,-3.65625 -2.45703,2.94141 -5.73828,10.89063 -5.73828,10.89063 0,0 -5.85938,5.40234 -6.36719,6.87109 -0.50781,1.46875 -1.73438,6.62891 2.53906,11.38672 4.27344,4.75781 12.52734,8.01563 12.52734,8.01563 z m 30.76172,-49.25 c 1.96094,0.0156 6.28907,0.28515 7.23438,0.77343 0.94922,0.48828 2.91406,-1.39843 5.25,-1.46093 2.33984,-0.0625 3.96875,7.33984 3.1875,12.40625 -0.77735,5.0664 -2.69922,12.68359 -2.69922,12.68359 0,0 -1.01563,-1.67188 -2.77734,-6.1875 -1.76172,-4.51172 -8.78125,-12.80859 -13.21875,-14.38281 0,0 1.0664,-3.84766 3.02343,-3.83203"
       fill-opacity="1"
       fill-rule="nonzero"
       id="path63" />
    <g
       clip-path="url(#id6)"
       id="g67"
       transform="translate(-750.49148,-49.769645)">
      <path
         fill="#72a391"
         d="m 158.22656,173.39453 c -0.29687,-1.28516 0.19922,-2.5 1.11328,-2.71094 0.91407,-0.21093 1.89453,0.66016 2.19141,1.94922 0.30078,1.28516 -0.19922,2.5 -1.10938,2.71094 -0.91015,0.21094 -1.89453,-0.66016 -2.19531,-1.94922 z m 9.71875,-2.39844 c 0.043,-1.32031 0.83594,-2.36718 1.76953,-2.33984 0.9375,0.0312 1.66016,1.125 1.6211,2.44531 -0.043,1.32031 -0.83594,2.36719 -1.77344,2.33594 -0.93359,-0.0273 -1.66016,-1.12109 -1.61719,-2.44141 z m 48.03516,-1.42968 c -0.29688,1.28515 -1.27735,2.16015 -2.19141,1.94921 -0.91015,-0.21093 -1.41015,-1.42578 -1.10937,-2.71484 0.29687,-1.28516 1.28125,-2.15625 2.1914,-1.94531 0.91407,0.21094 1.41016,1.42578 1.10938,2.71094 z m -16.76172,-2.75782 c 0.36328,-1.27343 1.38281,-2.09765 2.28516,-1.84375 0.89843,0.25391 1.33984,1.48828 0.98046,2.76172 -0.35937,1.26953 -1.38281,2.09766 -2.28515,1.84375 -0.89844,-0.2539 -1.33594,-1.49219 -0.98047,-2.76172 z m 31.84375,56.85157 c -0.65625,0.37109 -1.46484,0.54296 -2.375,0.71093 -1.07031,0.19922 -2.02734,0.34766 -2.90234,0.17969 -3.31641,-0.63281 -5.03125,-4.30859 -5.7461,-6.37109 0.58594,-0.19141 1.17969,-0.39453 1.78906,-0.625 l -0.74218,-1.96094 c -13.84766,5.23047 -22.63672,-1.13281 -22.72266,-1.19531 l -1.26562,1.67578 c 0.14453,0.10547 1.5039,1.09765 3.89453,2.02734 0.84765,1.77344 0.89453,3.64063 0.0977,5.20703 -0.85156,1.66797 -2.51172,2.70313 -4.67187,2.91407 -1.77735,0.17578 -3.54297,-0.4336 -5.23047,-1.8125 l -0.16797,-0.13672 c -2.16406,-1.75 -2.57422,-2.48047 -2.65234,-2.72657 0.42968,-0.75781 0.84765,-1.59375 1.24609,-2.53125 1.64063,-3.85546 1.0625,-7.94921 -0.39844,-11.66406 2.91407,-8.04687 5.8086,-12.05078 6.8125,-13.28515 3.14063,2.53515 7.55469,4.58203 13.6211,4.58203 0.13281,0 0.26562,-0.004 0.39843,-0.004 6.27735,-0.0937 11.39063,-1.52344 15.27735,-4.24609 2.33203,3.33984 4.33203,6.91797 5.92187,10.66797 1.89844,4.48437 5.6836,15.27343 -0.18359,18.59375 z m -42.75781,-2.01172 c 0.004,-0.004 0.004,-0.008 0.008,-0.0117 -0.004,0.004 -0.004,0.008 -0.004,0.0117 z m -8.42969,4 c -2.82031,0.21875 -5.05078,-1.40235 -5.58594,-1.98047 0.0352,-1.17188 -0.41015,-3.5625 -0.77734,-5.3086 0.41015,-0.34375 0.78515,-0.72265 1.10156,-1.16015 1.19531,-1.65625 1.49609,-3.75 0.92188,-6.40235 -0.58594,-2.71093 -2.83204,-5.5625 -5.85157,-7.4414 -2.82422,-1.75781 -5.91406,-2.39844 -8.46484,-1.76953 -1.97266,0.48828 -3.68359,2.14843 -4.9375,4.80078 -1.875,3.96094 -2.48828,9.86328 -1.28906,12.38281 0.27734,0.57813 0.92187,0.875 1.73828,1.20703 0.0977,0.0391 0.17578,0.0703 0.23047,0.0937 0.28515,0.13672 0.57812,0.25781 0.87109,0.375 -0.10156,2.59375 -0.77734,4.48828 -1.98047,5.48828 -1.25,1.04297 -2.72656,0.90625 -3.05078,0.85938 -4.30078,-1.5625 -7.24219,-4.13281 -8.75,-7.64063 -2.69531,-6.26953 -0.11328,-13.82422 0.60938,-15.69531 0.43359,0.11719 0.875,0.19531 1.32421,0.19531 0.5586,0 1.125,-0.10937 1.6875,-0.3789 3.48047,-1.65625 4.45313,-18.60547 4.28907,-23.76172 -0.20313,-6.3086 -0.84766,-13.1211 -4.07422,-15.84375 -0.2461,-0.21094 -0.50781,-0.375 -0.77344,-0.53125 l 0.42969,0.0937 c 0.0312,-0.13672 0.74609,-3.30469 3.45703,-3.30469 3.99609,0 9.625,-2.45312 12.4375,-4.10547 0.50391,-0.29297 2.24219,-0.38672 4.97266,0.57813 2.69921,0.94922 11.85546,4.98828 16.45312,17.14062 2.49609,6.59375 0.76563,13.89063 -4.51562,19.04297 -5.91797,5.78125 -14.63672,7.33594 -22.74219,4.06641 l -0.78906,1.94531 c 3.07031,1.23828 6.21875,1.84375 9.29296,1.84375 4.70704,0 9.23438,-1.4375 13.05469,-4.16797 1.54297,1.55469 12.35547,12.89844 8.51563,21.92969 -1.96875,4.63281 -4.66797,7.21094 -7.80469,7.44922 z m -11.83594,-6.9375 c -2.23437,0.74218 -4.46875,0.96093 -6.46094,0.63281 -1.27734,-0.21484 -2.52734,-0.60547 -3.71875,-1.16797 -0.0781,-0.0352 -0.19531,-0.0859 -0.33593,-0.14453 -0.15235,-0.0586 -0.51563,-0.20703 -0.69532,-0.30859 -0.76171,-1.89454 -0.34765,-6.84375 1.35157,-10.4375 0.67968,-1.44141 1.85156,-3.24219 3.54687,-3.66407 2.00391,-0.49609 4.5,0.0547 6.84375,1.51172 2.5586,1.58985 4.44141,3.92969 4.91016,6.10547 0.44922,2.06641 0.26562,3.57422 -0.57422,4.73438 -0.97266,1.35156 -2.9375,2.09375 -4.86719,2.73828 z m -38.6875,-34.30078 c 0.55078,-2.15235 1.98047,-4.1836 3.92578,-5.57813 0.17578,-0.12891 0.36719,-0.25391 0.5586,-0.38281 0.62109,-0.41406 1.32422,-0.88281 1.86718,-1.53516 0.15235,-0.17969 0.28907,-0.37109 0.41016,-0.57422 0.42578,-0.72656 0.60547,-1.52734 0.76172,-2.23828 0.0977,-0.4414 0.19141,-0.85547 0.32812,-1.21875 0.54688,-1.42578 1.11719,-2.64844 1.73829,-3.73828 1.61718,-2.82422 3.27734,-4.3125 5.07812,-4.55469 0.18359,-0.0234 0.36328,-0.0391 0.53906,-0.0391 0.75391,0 1.40235,0.23828 1.97266,0.71875 2.94531,2.48828 3.21484,10.76953 3.32812,14.30859 0.26172,8.17188 -1.53515,20.8086 -3.09375,21.80469 -1.08593,0.51563 -2.46875,-0.22656 -3.80859,-0.94531 -0.28516,-0.15234 -0.56641,-0.30469 -0.83203,-0.43359 -6.92969,-3.4336 -14.64453,-8.3086 -12.77344,-15.59375 z m 45.10156,-30.28907 c 0.84375,-0.55859 1.9375,-0.69531 3.2461,-0.40625 4.59765,1.01563 6.67969,0.15235 8.05469,-0.42187 0.25781,-0.10938 0.48828,-0.20703 0.64062,-0.25781 0.25,0.0156 1.05469,0.51953 1.84766,1.59765 v 0.082 h 0.0586 c 0.0273,0.0391 0.0547,0.0742 0.0859,0.11328 0.54297,0.79297 1.4375,2.41797 1.3164,4.38672 -0.19531,3.28516 -1.41015,11.90235 -2.17187,15.88282 -0.1875,-0.76954 -0.41406,-1.53907 -0.69922,-2.29688 -3.55859,-9.39453 -9.69922,-14.26172 -13.93359,-16.63281 0.23828,-0.61328 0.70703,-1.49219 1.55468,-2.04688 z m 17.33594,4.25391 c -0.10156,-1.62109 -0.67187,-3.14844 -1.44922,-4.38672 v -4.28906 c 0.67578,0.58594 1.88282,1.875 3.85157,4.72265 l 1.05468,1.66016 c 0.0547,0.0898 0.0508,0.17578 0.0391,0.22656 -0.0117,0.0547 -0.043,0.13282 -0.12891,0.1836 -0.85547,0.52734 -2.0625,1.22656 -3.36719,1.88281 z m -6.55859,-15.21484 c 0.23828,-0.25391 0.67187,-0.57813 1.65234,-0.42188 4.73047,0.75391 11.92578,9.44922 14.3711,13.12109 -0.0156,0.0117 -0.0312,0.0195 -0.0391,0.0234 l 1.11328,1.77735 c 0.14063,-0.082 1.67969,-0.99219 4.41797,-1.20313 -0.3125,3.12109 -1.52343,10.32813 -4.3164,13.39844 -0.79297,0.875 -1.6211,1.3164 -2.52735,1.35547 -5.4375,0.23828 -8.28906,0.63281 -9.72656,0.91797 0.60547,-3.76563 1.23438,-8.47657 1.50781,-11.375 1.76953,-0.8125 3.46094,-1.78907 4.57422,-2.47657 0.55078,-0.33593 0.9336,-0.87109 1.07813,-1.49609 0.14453,-0.62891 0.0312,-1.27344 -0.31641,-1.82422 l -1.07812,-1.69141 c -3.90235,-5.64843 -5.46875,-6.25781 -6.48047,-6.11718 -0.66407,0.0937 -1.04297,0.5664 -1.16797,0.94531 l -0.0508,0.16016 v 3.41796 c -0.84375,-0.60937 -1.64844,-0.85546 -2.33203,-0.66796 -0.30079,0.082 -0.61329,0.20703 -0.96485,0.35546 -0.0547,0.0195 -0.11328,0.043 -0.16797,0.0664 -0.54297,-2.59375 -0.86328,-6.85937 0.45313,-8.26562 z m 53.12109,8.35156 c 0.71485,-0.13672 1.60547,0.004 2.02344,0.32031 0.17969,0.13281 0.1875,0.24219 0.19141,0.29297 0.79296,9.61328 -3.55469,14.70703 -6.42969,18.07812 -1.32422,1.55079 -2.3711,2.77344 -2.55469,4.04688 l -0.008,0.0547 c -4.10938,-2.21875 -9.61719,-1.48438 -13.44531,-0.96485 -0.36719,0.0469 -0.75391,0.11328 -1.14844,0.1836 -1.42969,0.25 -2.90235,0.50781 -3.94922,0.004 -1.26563,-0.60937 -1.875,-2.07422 -1.85938,-4.47265 0.0273,-4.33985 1.10547,-7.85157 2.75,-11.59375 2.6211,0.87109 5.63672,2.38281 9.01563,4.89062 l 1.25391,-1.67969 c -0.36329,-0.27343 -0.72266,-0.52343 -1.07813,-0.77343 1.07031,-1.1211 6.80469,-6.77344 15.23828,-8.38672 z m -57.52734,43.44922 c 0.33594,-0.28907 0.67578,-0.56641 0.99219,-0.87891 3.91015,-3.81641 6.05859,-8.69922 6.25,-13.71094 0.39843,2.29297 1.03906,3.98438 1.07812,4.08594 0.0234,0.0781 1.41797,4.36328 5.3125,8.20703 -1.01172,1.21875 -3.66797,4.83985 -6.47266,11.9961 -2.48046,-4.75782 -5.98828,-8.51172 -7.16015,-9.69922 z m 46.26562,-4.94141 c -3.67187,4.21875 -9.41406,6.41406 -17.07422,6.52734 -0.125,0 -0.25,0.004 -0.375,0.004 -14.32421,0 -18.32421,-12.19531 -18.51171,-12.78516 -0.0234,-0.0547 -2.01172,-5.28515 -0.98438,-9.48437 0.94922,-0.23047 3.58203,-0.69922 9.84766,-0.97266 1.57812,-0.0703 3,-0.84765 4.23047,-2.3164 3.10156,-3.70313 4.32812,-11.20313 4.6289,-14.55078 0.92188,0.0547 1.92969,0.1875 3.02735,0.4414 -1.6836,3.88281 -2.77735,7.56641 -2.8086,12.15625 -0.0234,3.25 1.00391,5.39453 3.05078,6.375 1.65235,0.79297 3.54688,0.46485 5.21875,0.17578 0.3711,-0.0625 0.73047,-0.1289 1.07032,-0.17578 4.16015,-0.55859 9.78906,-1.3125 13.2539,1.45703 -0.0547,3.11719 -0.74609,8.75 -4.57422,13.14844 z m -0.11328,3.07813 c 0.60547,-0.53516 1.17969,-1.10547 1.71485,-1.71875 5.79687,-6.67579 5.13671,-15.54297 4.99218,-16.9375 0.17188,-0.67969 1.04688,-1.70313 2.05078,-2.87891 2.91407,-3.41406 7.78907,-9.125 6.92579,-19.60938 -0.0586,-0.71484 -0.40625,-1.33203 -1.01172,-1.79296 -1.03125,-0.78125 -2.59375,-0.91797 -3.69532,-0.70704 -10.02734,1.91797 -16.34765,8.96875 -16.61328,9.26563 l 0.0156,0.0156 c -8.73828,-5.47265 -15.10938,-4.68359 -18.14844,-3.71093 -1.97656,-2.94141 -9.88281,-13.38282 -15.99219,-14.35547 -1.80859,-0.28906 -2.91797,0.41797 -3.51953,1.0625 -2.41406,2.57422 -1.2539,8.83594 -0.94531,10.26562 -1.07422,0.15235 -2.50781,0.13282 -4.59766,-0.32812 -1.88672,-0.41406 -3.51953,-0.17969 -4.85547,0.69922 -1.21484,0.80078 -1.89453,1.95703 -2.26953,2.84375 -0.78125,-0.36328 -1.44922,-0.625 -1.91797,-0.79297 -2.91015,-1.02344 -5.42968,-1.17578 -6.73828,-0.40235 -3.14843,1.84766 -8.20703,3.8125 -11.37109,3.8125 -3.39453,0 -5.01172,2.98047 -5.45703,4.74219 -0.57031,-0.10547 -1.16797,-0.14453 -1.80469,-0.0586 -2.49609,0.33594 -4.66016,2.16406 -6.62109,5.59375 -0.67578,1.18359 -1.28907,2.5 -1.875,4.03125 -0.19532,0.5039 -0.3086,1.01562 -0.41797,1.51172 -0.13672,0.60937 -0.26563,1.1914 -0.52344,1.6289 -0.0625,0.10547 -0.12891,0.19922 -0.20703,0.29297 -0.35156,0.41797 -0.875,0.76563 -1.42969,1.13672 -0.21094,0.14063 -0.41797,0.27734 -0.61719,0.42188 -2.36718,1.69921 -4.05078,4.09765 -4.73046,6.75781 -2.53516,9.87109 9.38671,15.77344 13.87109,17.99609 0.25,0.1211 0.50781,0.26172 0.77734,0.40235 0.23438,0.125 0.48438,0.26171 0.74219,0.39062 -0.81641,2.07031 -3.63281,10.20313 -0.59375,17.29297 1.75781,4.08984 5.14063,7.0625 10.06641,8.83203 l 0.14843,0.043 c 0.0391,0.008 0.40235,0.0742 0.94922,0.0742 0.96485,0 2.50391,-0.21094 3.88282,-1.34375 1.61328,-1.32422 2.53515,-3.48828 2.74609,-6.44922 0.4375,0.10937 0.87891,0.21094 1.32422,0.28516 0.71875,0.12109 1.46094,0.17968 2.21875,0.17968 1.70312,0 3.48437,-0.30078 5.25781,-0.89062 0.98438,-0.33203 1.98047,-0.69141 2.90234,-1.14453 0.36329,1.83593 0.64844,3.64453 0.59375,4.04297 -0.37109,1.48046 2.53907,3.11718 4.17969,3.66796 0.72656,0.24219 1.76563,0.48829 2.97656,0.48829 2.28125,0 5.17188,-0.875 7.75782,-4.29688 0.64453,0.8125 1.58203,1.63672 2.57812,2.44531 l 0.16016,0.12891 c 1.88281,1.54297 3.88281,2.32031 5.95312,2.32031 0.26953,0 0.53907,-0.0117 0.81641,-0.0391 2.85547,-0.28125 5.16406,-1.75781 6.33594,-4.05469 0.82812,-1.61719 0.98828,-3.5 0.53515,-5.33984 1.88672,0.5039 4.15235,0.87109 6.77735,0.87109 2.3164,0 4.91406,-0.29687 7.74609,-1.02734 0.82813,2.42578 2.95703,7.0039 7.36719,7.84765 0.40625,0.082 0.80859,0.11329 1.21484,0.11329 0.82031,0 1.64063,-0.13672 2.46875,-0.28907 1.10156,-0.20703 2.08985,-0.41797 3.02735,-0.94922 7.33593,-4.14843 3.20312,-16.23046 1.08203,-21.23437 -1.66016,-3.92188 -3.75782,-7.66016 -6.20313,-11.15234 z m -14.63672,-9.11329 1.51172,1.45704 c -0.0977,0.0977 -2.09765,2.14453 -4.44531,2.14453 -0.375,0 -0.75391,-0.0508 -1.14063,-0.17188 -1.41796,-0.4414 -2.5,-1.65625 -3.27734,-3.64844 -0.63672,1.40625 -1.54297,2.62891 -2.85547,3.13672 -0.4375,0.17188 -0.89062,0.25391 -1.35937,0.25391 -1.55469,0 -3.29297,-0.93359 -5.17969,-2.78516 l 1.47266,-1.49609 c 1.24609,1.22266 3.0039,2.57812 4.30468,2.07422 1.44532,-0.5625 2.2461,-3.1211 2.64453,-5.25 -1.39062,-0.61328 -2.27734,-2.85156 -2.42187,-4.97656 -0.19141,-2.85938 7.43359,-1.64844 6.98437,0.1289 -0.125,0.49219 -0.57031,3.26563 -2.37109,4.5 -0.0234,0.16797 -0.0508,0.33594 -0.082,0.51563 0.54687,3.18359 1.52344,5.15625 2.76562,5.54297 1.30469,0.41015 2.96485,-0.92579 3.44922,-1.42579 z m -47.03515,-2.28515 c -0.0508,-0.17188 -0.0937,-0.33594 -0.13672,-0.5 -1.92188,-1.03125 -2.66797,-3.74219 -2.84766,-4.21485 -0.64062,-1.71875 6.8086,-3.74609 6.92969,-0.88671 0.0898,2.13281 -0.55078,4.45703 -1.87109,5.21093 0.67578,2.23047 1.79296,4.55078 3.20703,4.92969 1.34765,0.36719 2.94531,-1.17969 4.05078,-2.52734 l 1.6289,1.32812 c -1.82421,2.22656 -3.58984,3.35547 -5.26171,3.35547 -0.32422,0 -0.64454,-0.043 -0.96094,-0.12891 -1.36328,-0.36718 -2.39844,-1.48046 -3.1836,-2.8125 -0.55468,2.06641 -1.49609,3.39063 -2.85937,3.98438 -0.51953,0.22656 -1.05469,0.32031 -1.57422,0.32031 -2.15625,0 -4.09375,-1.59375 -4.19531,-1.67578 l 1.34375,-1.61328 c 0.57812,0.47656 2.34765,1.59375 3.58984,1.04297 1.19141,-0.51953 1.94531,-2.58594 2.14063,-5.8125 z m 62.38672,-19.14844 c 0.10156,-0.0898 0.19531,-0.17187 0.26562,-0.23828 1.26953,-1.22266 2.94922,-2.30469 4.98438,-3.21484 0.13671,-0.0625 0.32031,-0.16016 0.53515,-0.27344 0.29688,-0.16016 1.12891,-0.60156 1.5625,-0.67578 0,0.0937 -0.0156,0.20703 -0.0234,0.26172 -0.35156,2.76953 -2.23828,5.1875 -3.625,6.76953 l -0.13281,0.15234 c -0.30469,0.34375 -0.61719,0.69922 -0.9375,1.01953 -0.0625,-0.082 -0.13281,-0.16797 -0.21094,-0.25781 l -2.48828,-2.86328 c -0.0977,-0.11328 -0.19531,-0.21485 -0.28515,-0.3086 -0.008,-0.008 -0.0156,-0.0156 -0.0234,-0.0234 0.125,-0.125 0.28516,-0.26563 0.37891,-0.34766 z m -1.66016,2.05078 2.49219,2.86719 c 0.10156,0.11719 0.1914,0.23437 0.26562,0.33594 0.29297,0.375 0.65625,0.84375 1.32031,0.90234 0.043,0.004 0.082,0.004 0.1211,0.004 0.5664,0 1.01172,-0.34766 1.30078,-0.61328 0.48047,-0.44141 0.90234,-0.92188 1.30859,-1.38672 l 0.12891,-0.15235 c 1.57031,-1.78515 3.70703,-4.54687 4.13281,-7.88672 0.043,-0.35156 0.082,-0.76953 -0.0469,-1.22265 -0.16797,-0.58594 -0.54297,-1.03125 -1.0586,-1.25 -1.14062,-0.48438 -2.51172,0.24219 -3.50781,0.77344 -0.16406,0.0859 -0.30469,0.16406 -0.41016,0.21093 -2.25781,1.01172 -4.13281,2.22657 -5.57812,3.61328 -0.0547,0.0547 -0.125,0.11329 -0.19922,0.17969 -0.42578,0.375 -0.95703,0.84375 -1.13281,1.4375 -0.0586,0.20313 -0.082,0.41016 -0.0664,0.60938 0.0391,0.64843 0.4336,1.05859 0.72266,1.35547 0.0664,0.0703 0.13672,0.14062 0.20703,0.22265"
         fill-opacity="1"
         fill-rule="nonzero"
         id="path65" />
    </g>
    <g
       clip-path="url(#id7)"
       id="g71"
       transform="translate(-750.49148,-49.769645)">
      <path
         fill="#52947c"
         d="m 278.26172,212.35547 c 0.16015,-0.2461 0.32031,-0.50781 0.50781,-0.76953 0.21484,-0.29297 0.43359,-0.59766 0.70703,-0.84375 0.28906,-0.26172 0.44922,-0.625 0.75391,-0.85938 0.30469,-0.23047 0.51953,-0.5664 0.82422,-0.8125 0.67968,-0.55469 1.44922,-0.85937 2.34375,-0.71094 0.63672,0.10157 1.08593,0.46485 1.43359,1.01563 0.28906,0.44922 0.40625,0.94531 0.36328,1.4375 -0.0469,0.48047 -0.23437,0.94531 -0.3789,1.41406 -0.14454,0.4336 -0.30469,0.85547 -0.47657,1.27735 -0.0859,0.23437 -0.20312,0.46484 -0.33203,0.68359 -0.40625,0.68359 -0.82422,1.35156 -1.23047,2.01953 -0.20312,0.33594 -0.41797,0.66797 -0.62109,1.00391 -0.28906,0.48047 -0.57813,0.96093 -0.85547,1.45312 -0.34766,0.61328 -0.66406,1.23828 -1.01172,1.83203 -0.46484,0.81641 -0.95703,1.61328 -1.41797,2.42969 -0.20312,0.36328 -0.34765,0.76953 -0.53515,1.14844 -0.23047,0.44922 -0.76953,0.52344 -1.0586,0.11719 -0.43359,-0.58204 -0.82422,-1.19532 -1.24218,-1.78907 -0.36329,-0.51172 -0.72266,-1.0039 -1.07032,-1.51172 -0.36328,-0.55468 -0.71093,-1.10546 -0.98437,-1.71484 -0.2461,-0.55469 -0.60938,-1.04687 -0.91406,-1.57031 -0.25782,-0.42188 -0.4336,-0.875 -0.54688,-1.35547 -0.10156,-0.43359 -0.26172,-0.83984 -0.36328,-1.27734 -0.10156,-0.42188 -0.17188,-0.85938 -0.26172,-1.29297 -0.15625,-0.78516 -0.0547,-1.57032 0.0586,-2.34375 0.10157,-0.66797 0.28907,-1.33594 0.75391,-1.85938 0.31641,-0.36328 0.70703,-0.60937 1.19922,-0.74219 0.43359,-0.11328 0.85547,-0.1289 1.28906,-0.0703 0.40625,0.043 0.72266,0.2461 1,0.55078 0.23047,0.27735 0.50391,0.50782 0.78125,0.74219 0.39063,0.32031 0.64844,0.71094 0.83594,1.16406 0.17578,0.42188 0.32031,0.85547 0.44922,1.23438 z m -2.45703,-1.7461 c 0.15625,-0.28906 0.15625,-0.53515 -0.0742,-0.72656 -0.28906,-0.21875 -0.55078,-0.52344 -0.96875,-0.33203 -0.0742,0.0273 -0.11719,0.0859 -0.17578,0.12891 0.60937,0.043 0.83984,0.5664 1.21875,0.92968 z m 0.1875,9.82813 c -0.0312,0.0156 -0.0586,0.043 -0.0899,0.0586 0.30469,0.48047 0.60938,0.94532 0.92969,1.42578 0.0273,-0.0156 0.0547,-0.0312 0.0703,-0.043 -0.16015,-0.56641 -0.63672,-0.94532 -0.91015,-1.44141 z m 1.96484,-3.73438 c 0.0312,0 0.0742,0 0.10156,-0.0156 0.0742,-0.42188 0.0312,-0.82813 -0.0859,-1.22266 -0.0274,0 -0.043,0 -0.0703,0 0.0274,0.42188 0.043,0.83203 0.0547,1.23828 z m -5.19141,-5.30859 c 0.1875,-0.49219 0.39063,-0.97266 0.57813,-1.46875 -0.375,0.42188 -0.52344,0.93359 -0.57813,1.46875 z m 9.2461,-0.34766 c 0.0117,0.0156 0.0273,0.0273 0.043,0.043 0.23047,-0.21875 0.47656,-0.43359 0.70703,-0.65234 -0.0117,-0.0156 -0.0274,-0.0312 -0.043,-0.043 -0.30469,0.14453 -0.50391,0.39063 -0.70703,0.65234 z m -8.0625,-0.21875 c -0.0274,-0.0156 -0.0547,-0.0156 -0.10156,-0.0273 -0.0977,0.32031 -0.19922,0.625 -0.31641,0.94531 0.0273,0.0117 0.043,0.0117 0.0742,0.0273 0.1289,-0.32032 0.24219,-0.64063 0.34375,-0.94532 z m 10.17187,0.4961 c 0.0312,0 0.0469,-0.0156 0.0742,-0.0156 -0.0586,-0.23437 -0.11719,-0.44922 -0.17187,-0.68359 -0.0312,0.0156 -0.0586,0.0156 -0.0899,0.0312 0.1875,0.1875 -0.0859,0.49219 0.1875,0.66797 z m -10.02734,3.70703 c -0.0273,-0.21875 -0.043,-0.39453 -0.0703,-0.58203 -0.0156,0 -0.043,0.0156 -0.0586,0.0156 0.0586,0.17188 -0.0859,0.40625 0.12891,0.56641 z m 0,0"
         fill-opacity="1"
         fill-rule="nonzero"
         id="path69" />
    </g>
    <g
       fill="#52947c"
       fill-opacity="0.7608"
       id="g79"
       transform="translate(-750.49148,-49.769645)">
      <g
         transform="translate(90.595585,216.71128)"
         id="g77">
        <g
           id="g75">
          <path
             d="m 7.34375,4.925781 c 4.542969,2.667969 8.847656,0.417969 14.046875,-3.378906 1.59375,1.222656 3.308594,2.566406 4.355469,3.300781 -2.328125,2.265625 -4.59375,4.515625 -6.054688,6.261719 -0.21875,1.257813 2.933594,3.179687 4.097656,2.496094 1.550782,-1.890625 3.957032,-4.203125 6.0625,-6.351563 2.851563,1.4375 6.066407,2.203125 8.996094,1.152344 C 39.554688,8.144531 39.625,6.394531 38.574219,6.652344 36.429688,7.234375 33.914062,6.546875 31.539062,5.296875 33.59375,3.316406 38.398438,-1.464844 40.578125,-4.960938 42.878906,-8.734375 38.925781,-12.285156 33.675781,-10.859375 29.503906,-9.722656 25.140625,-6.5625 20.25,-3.027344 15.363281,-6.601562 9.15625,-7.351562 5.621094,-3.589844 3.035156,-0.738281 3.347656,2.585938 7.34375,4.925781 Z M 27.667969,2.835938 c -0.9375,-0.667969 -2.582031,-1.96875 -3.898438,-3.070313 3.792969,-2.960937 8.167969,-6.460937 11.679688,-7.652344 1.804687,-0.59375 2.472656,0.261719 1.417969,1.507813 -2.660157,3.054687 -6.78125,6.960937 -9.199219,9.214844 z M 9.023438,2.414062 C 7.609375,1.554688 8.253906,0.0078125 9.515625,-1.164062 11.835938,-3.179688 14.867188,-2.925781 17.6875,-1.105469 13.886719,1.699219 11.113281,3.640625 9.023438,2.414062 Z m 0,0"
             id="path73" />
        </g>
      </g>
    </g>
    <g
       fill="#52947c"
       fill-opacity="0.7608"
       id="g87"
       transform="translate(-750.49148,-49.769645)">
      <g
         transform="translate(123.10589,235.50895)"
         id="g85">
        <g
           id="g83">
          <path
             d="m 26.21875,-21.039062 c -1.90625,2.191406 -5.433594,6.539062 -7.398438,9.25 -2.5,-1.566407 -7.191406,-2.59375 -11.605468,0.113281 -5.945313,3.535156 -9.398438,11.449219 -3.410156,13.503906 3.160156,1.136719 6.140624,-0.652344 8.238281,-2.636719 -1.511719,2.835938 -0.898438,5.199219 1.226562,5.945313 3.597657,1.296875 8.035157,-1.488281 11.5625,-4.976563 0.414063,-0.390625 -0.679687,-1.703125 -1.097656,-1.316406 -2.484375,2.652344 -5.960937,4.800781 -7.53125,4.261719 -3.210937,-1.109375 9.652344,-16.617188 13.878906,-21.75 0.457031,-1.097657 -3.078125,-2.917969 -3.863281,-2.394531 z m -9.222656,11.699218 c -1.554688,2.230469 -3.050782,4.164063 -4.222656,5.359375 C 9.59375,-0.679688 6.464844,0.417969 5.5625,-1.050781 4.421875,-2.609375 7.140625,-6.492188 9.324219,-8.214844 c 2.90625,-2.316406 5.871093,-2.25 7.671875,-1.125 z m 0,0"
             id="path81" />
        </g>
      </g>
    </g>
    <g
       fill="#52947c"
       fill-opacity="0.7608"
       id="g95"
       transform="translate(-750.49148,-49.769645)">
      <g
         transform="translate(144.99723,243.52808)"
         id="g93">
        <g
           id="g91">
          <path
             d="m 14.316406,-15.390625 c -4.914062,-0.988281 -10.167968,1.777344 -12.582031,7.25 -2.621094,6.035156 0.167969,8.992187 4.191406,9.871094 2.738281,0.597656 5.289063,0.066406 7.554688,-1.351563 C 16.375,1.664062 20.035156,1.8125 24.019531,-3.492188 24.386719,-3.976562 23.109375,-5.082031 22.75,-4.636719 c -2.699219,3.800781 -5.324219,4.269531 -7.3125,3.617188 4.796875,-5.039063 6.292969,-12.882813 -1.121094,-14.371094 z m -1.179687,2.828125 c 3.148437,0.511719 1.683593,5.019531 -0.769531,8.484375 -1.105469,-0.503906 -2.519532,0.796875 -1.996094,2.171875 -0.9375,0.707031 -2.101563,1.0625 -3.136719,0.835938 -2.574219,-0.5625 -1.796875,-3.523438 -0.738281,-5.988282 1.304687,-2.976562 4.164062,-5.914062 6.640625,-5.503906 z m 0,0"
             id="path89" />
        </g>
      </g>
    </g>
    <g
       fill="#52947c"
       fill-opacity="0.7608"
       id="g103"
       transform="translate(-750.49148,-49.769645)">
      <g
         transform="translate(167.20007,248.25964)"
         id="g101">
        <g
           id="g99">
          <path
             d="m 14.214844,-17 c -2.449219,-0.308594 -5.003906,0.820312 -6.910156,2.425781 0.203124,-0.453125 0.554687,-1.195312 0.722656,-1.695312 -0.144532,-1.5 -3.996094,-1.828125 -4.3125,-1 C 0.152344,-7.1875 -2.808594,1.707031 -5.769531,11.15625 -5.886719,12.125 -1.875,12.59375 -1.34375,11.738281 0,7.453125 1.433594,3.046875 2.773438,-1.199219 c 2.355468,2.6875 7.097656,3.042969 10.84375,-0.382812 3.03125,1.074219 6.828124,0.421875 9.804687,-5.234375 C 23.714844,-7.304688 22.25,-8.265625 22,-7.773438 20.101562,-3.996094 17.828125,-2.632812 15.101562,-3.175781 18.144531,-6.867188 20.59375,-16.3125 14.214844,-17 Z m -2.660156,3.082031 c 2.832031,0.296875 1.949218,4.746094 -0.05859,8.257813 -0.933594,-0.625 -2.601563,1.167968 -1.589844,2.4375 -1.785156,1.699218 -4.910156,1.335937 -6.207031,-0.675782 0.96875,-2.738281 1.746093,-5.152343 2.710937,-7.804687 1.457032,-1.296875 3.625,-2.371094 5.144532,-2.214844 z m 0,0"
             id="path97" />
        </g>
      </g>
    </g>
    <g
       fill="#52947c"
       fill-opacity="0.7608"
       id="g111"
       transform="translate(-750.49148,-49.769645)">
      <g
         transform="translate(189.64485,249.62265)"
         id="g109">
        <g
           id="g107">
          <path
             d="m 5.234375,0.171875 c 4.242187,-0.2109375 7.199219,-3.855469 9.28125,-9.253906 0.1875,-0.558594 -1.289063,-1.351563 -1.523437,-0.832031 C 11.371094,-5.8125 8.472656,-2.890625 6.007812,-2.832031 3.925781,-2.792969 3.8125,-5.679688 4.546875,-9.617188 c 0.308594,-1.796874 0.855469,-4.074218 1.40625,-6.304687 l 3.988281,-0.160156 C 10.570312,-16.320312 11,-18.335938 10.167969,-18.898438 l -3.566407,0.144532 c 0.847657,-3.265625 1.703126,-6.316406 2.535157,-8.941406 -0.09375,-1.230469 -3.972657,-1.542969 -4.53125,-0.671876 -0.765625,2.199219 -1.921875,6.199219 -2.882813,9.808594 l -1.6953122,0.06641 c -0.6718748,0.28125 -1.0976558,2.382813 -0.2304688,2.816407 l 1.273437,-0.05078 C -0.582031,-8.222656 -2.1875,0.554688 5.234375,0.171875 Z m 0,0"
             id="path105" />
        </g>
      </g>
    </g>
    <g
       fill="#52947c"
       fill-opacity="0.7608"
       id="g119"
       transform="translate(-750.49148,-49.769645)">
      <g
         transform="translate(204.60125,249.5618)"
         id="g117">
        <g
           id="g115">
          <path
             d="m 13.667969,-32.652344 c -4.0625,0.46875 -8.398438,3.113282 -8.378907,8.210938 0.046876,6.824218 6.625,11.40625 13.902344,10.796875 -0.695312,4.066406 -2.355468,7.84375 -6.207031,8.492187 -5.28125,0.875 -6.972656,-6.414062 -5.515625,-10.796875 C 7.644531,-17.066406 4.875,-18.222656 4.066406,-17.246094 2.144531,-13.25 2.882812,-7.335938 5.421875,-4.449219 7.242188,-2.375 9.875,-1.492188 13.507812,-2.183594 c 5.972657,-1.09375 9.230469,-6.472656 10.261719,-12.160156 2.324219,-0.746094 4.335938,-1.992188 6.089844,-3.667969 0.515625,-0.484375 0.183594,-2.453125 -0.324219,-1.925781 -1.394531,1.304688 -3.628906,2.507812 -5.425781,3.066406 0.636719,-5.742187 -0.335937,-16.972656 -10.441406,-15.78125 z m 0.253906,3.148438 c 5.40625,-0.683594 5.871094,9.476562 5.570313,13.121094 -5.675782,0.175781 -9.648438,-4.128907 -9.660157,-8.492188 -0.00781,-2.765625 1.597657,-4.324219 4.089844,-4.628906 z m 0,0"
             id="path113" />
        </g>
      </g>
    </g>
    <g
       fill="#52947c"
       fill-opacity="0.7608"
       id="g127"
       transform="translate(-750.49148,-49.769645)">
      <g
         transform="translate(237.2496,242.68681)"
         id="g125">
        <g
           id="g123">
          <path
             d="m 5.949219,-21.597656 c -2.636719,0.953125 -4.359375,4.558594 -5.160157,6.765625 -0.078124,-1.285157 -0.175781,-2.023438 -0.296874,-3.429688 -0.863282,-1.078125 -4.039063,-0.105469 -4.34375,1.007813 0.609374,6.402344 0.96875,11.441406 1.699218,17.207031 0.574219,1.28125 4.460938,-0.328125 4.570313,-1.367187 -0.519531,-3.890626 -0.851563,-6.082032 -1.152344,-10.238282 0.71875,-2.542968 2.117187,-5.203125 3.492187,-5.769531 1.335938,-0.550781 1.632813,0.835937 1.808594,2.132813 0.257813,1.761718 0.785156,6.511718 1.058594,7.953124 0.5,2.761719 2.074219,4.164063 5.0625,2.941407 3.839844,-1.496094 4.984375,-7.46875 5.265625,-11.527344 0.01563,-0.550781 -1.671875,-0.820313 -1.691406,-0.269531 -0.175781,3.972656 -1.410157,7.800781 -3.039063,8.417968 -0.992187,0.375 -1.363281,-1.210937 -1.601562,-2.800781 -0.285156,-2.070312 -0.292969,-4.613281 -0.546875,-6.605469 -0.464844,-3.503906 -2.089844,-5.519531 -5.125,-4.417968 z m 0,0"
             id="path121" />
        </g>
      </g>
    </g>
    <g
       fill="#52947c"
       fill-opacity="0.7608"
       id="g135"
       transform="translate(-750.49148,-49.769645)">
      <g
         transform="translate(257.99027,234.65564)"
         id="g133">
        <g
           id="g131">
          <path
             d="m 0.972656,-20.96875 c -4.457031,2.203125 -6.734375,7.382812 -5.109375,12.824219 1.316407,4.695312 5.507813,7.648437 11.296875,4.777343 3.613282,-1.796874 7.4375,-5.445312 6.828125,-13.847656 -0.05469,-0.546875 -1.765625,-0.59375 -1.75,-0.02344 0.484375,6.105469 -2.773437,9.546875 -5.460937,10.652343 -2.757813,1.144532 -4.96875,0.355469 -6.03125,-2.160156 4.882812,-1.320312 7.734375,-4.542968 7.609375,-8.089844 -0.046875,-3.496093 -3.109375,-6.238281 -7.382813,-4.132812 z m 0.941406,2.917969 c 1.445313,-0.726563 2.203126,0.597656 2.269532,2.15625 0.136718,2.046875 -1.210938,4.023437 -4.199219,5.101562 -0.773437,-3.054687 0.1132812,-6.425781 1.929687,-7.257812 z m 0,0"
             id="path129" />
        </g>
      </g>
    </g>
    <g
       fill="#52947c"
       fill-opacity="1"
       id="g143"
       transform="translate(-750.49148,-49.769645)">
      <g
         transform="translate(89.532498,215.52491)"
         id="g141">
        <g
           id="g139">
          <path
             d="m 7.34375,4.925781 c 4.542969,2.667969 8.847656,0.417969 14.046875,-3.378906 1.59375,1.222656 3.308594,2.566406 4.355469,3.300781 -2.328125,2.265625 -4.59375,4.515625 -6.054688,6.261719 -0.21875,1.257813 2.933594,3.179687 4.097656,2.496094 1.550782,-1.890625 3.957032,-4.203125 6.0625,-6.351563 2.851563,1.4375 6.066407,2.203125 8.996094,1.152344 C 39.554688,8.144531 39.625,6.394531 38.574219,6.652344 36.429688,7.234375 33.914062,6.546875 31.539062,5.296875 33.59375,3.316406 38.398438,-1.464844 40.578125,-4.960938 42.878906,-8.734375 38.925781,-12.285156 33.675781,-10.859375 29.503906,-9.722656 25.140625,-6.5625 20.25,-3.027344 15.363281,-6.601562 9.15625,-7.351562 5.621094,-3.589844 3.035156,-0.738281 3.347656,2.585938 7.34375,4.925781 Z M 27.667969,2.835938 c -0.9375,-0.667969 -2.582031,-1.96875 -3.898438,-3.070313 3.792969,-2.960937 8.167969,-6.460937 11.679688,-7.652344 1.804687,-0.59375 2.472656,0.261719 1.417969,1.507813 -2.660157,3.054687 -6.78125,6.960937 -9.199219,9.214844 z M 9.023438,2.414062 C 7.609375,1.554688 8.253906,0.0078125 9.515625,-1.164062 11.835938,-3.179688 14.867188,-2.925781 17.6875,-1.105469 13.886719,1.699219 11.113281,3.640625 9.023438,2.414062 Z m 0,0"
             id="path137" />
        </g>
      </g>
    </g>
    <g
       fill="#52947c"
       fill-opacity="1"
       id="g151"
       transform="translate(-750.49148,-49.769645)">
      <g
         transform="translate(122.0428,234.32258)"
         id="g149">
        <g
           id="g147">
          <path
             d="m 26.21875,-21.039062 c -1.90625,2.191406 -5.433594,6.539062 -7.398438,9.25 -2.5,-1.566407 -7.191406,-2.59375 -11.605468,0.113281 -5.945313,3.535156 -9.398438,11.449219 -3.410156,13.503906 3.160156,1.136719 6.140624,-0.652344 8.238281,-2.636719 -1.511719,2.835938 -0.898438,5.199219 1.226562,5.945313 3.597657,1.296875 8.035157,-1.488281 11.5625,-4.976563 0.414063,-0.390625 -0.679687,-1.703125 -1.097656,-1.316406 -2.484375,2.652344 -5.960937,4.800781 -7.53125,4.261719 -3.210937,-1.109375 9.652344,-16.617188 13.878906,-21.75 0.457031,-1.097657 -3.078125,-2.917969 -3.863281,-2.394531 z m -9.222656,11.699218 c -1.554688,2.230469 -3.050782,4.164063 -4.222656,5.359375 C 9.59375,-0.679688 6.464844,0.417969 5.5625,-1.050781 4.421875,-2.609375 7.140625,-6.492188 9.324219,-8.214844 c 2.90625,-2.316406 5.871093,-2.25 7.671875,-1.125 z m 0,0"
             id="path145" />
        </g>
      </g>
    </g>
    <g
       fill="#52947c"
       fill-opacity="1"
       id="g159"
       transform="translate(-750.49148,-49.769645)">
      <g
         transform="translate(143.93414,242.34168)"
         id="g157">
        <g
           id="g155">
          <path
             d="m 14.316406,-15.390625 c -4.914062,-0.988281 -10.167968,1.777344 -12.582031,7.25 -2.621094,6.035156 0.167969,8.992187 4.191406,9.871094 2.738281,0.597656 5.289063,0.066406 7.554688,-1.351563 C 16.375,1.664062 20.035156,1.8125 24.019531,-3.492188 24.386719,-3.976562 23.109375,-5.082031 22.75,-4.636719 c -2.699219,3.800781 -5.324219,4.269531 -7.3125,3.617188 4.796875,-5.039063 6.292969,-12.882813 -1.121094,-14.371094 z m -1.179687,2.828125 c 3.148437,0.511719 1.683593,5.019531 -0.769531,8.484375 -1.105469,-0.503906 -2.519532,0.796875 -1.996094,2.171875 -0.9375,0.707031 -2.101563,1.0625 -3.136719,0.835938 -2.574219,-0.5625 -1.796875,-3.523438 -0.738281,-5.988282 1.304687,-2.976562 4.164062,-5.914062 6.640625,-5.503906 z m 0,0"
             id="path153" />
        </g>
      </g>
    </g>
    <g
       fill="#52947c"
       fill-opacity="1"
       id="g167"
       transform="translate(-750.49148,-49.769645)">
      <g
         transform="translate(166.13698,247.07328)"
         id="g165">
        <g
           id="g163">
          <path
             d="m 14.214844,-17 c -2.449219,-0.308594 -5.003906,0.820312 -6.910156,2.425781 0.203124,-0.453125 0.554687,-1.195312 0.722656,-1.695312 -0.144532,-1.5 -3.996094,-1.828125 -4.3125,-1 C 0.152344,-7.1875 -2.808594,1.707031 -5.769531,11.15625 -5.886719,12.125 -1.875,12.59375 -1.34375,11.738281 0,7.453125 1.433594,3.046875 2.773438,-1.199219 c 2.355468,2.6875 7.097656,3.042969 10.84375,-0.382812 3.03125,1.074219 6.828124,0.421875 9.804687,-5.234375 C 23.714844,-7.304688 22.25,-8.265625 22,-7.773438 20.101562,-3.996094 17.828125,-2.632812 15.101562,-3.175781 18.144531,-6.867188 20.59375,-16.3125 14.214844,-17 Z m -2.660156,3.082031 c 2.832031,0.296875 1.949218,4.746094 -0.05859,8.257813 -0.933594,-0.625 -2.601563,1.167968 -1.589844,2.4375 -1.785156,1.699218 -4.910156,1.335937 -6.207031,-0.675782 0.96875,-2.738281 1.746093,-5.152343 2.710937,-7.804687 1.457032,-1.296875 3.625,-2.371094 5.144532,-2.214844 z m 0,0"
             id="path161" />
        </g>
      </g>
    </g>
    <g
       fill="#52947c"
       fill-opacity="1"
       id="g175"
       transform="translate(-750.49148,-49.769645)">
      <g
         transform="translate(188.58176,248.43629)"
         id="g173">
        <g
           id="g171">
          <path
             d="m 5.234375,0.171875 c 4.242187,-0.2109375 7.199219,-3.855469 9.28125,-9.253906 0.1875,-0.558594 -1.289063,-1.351563 -1.523437,-0.832031 C 11.371094,-5.8125 8.472656,-2.890625 6.007812,-2.832031 3.925781,-2.792969 3.8125,-5.679688 4.546875,-9.617188 c 0.308594,-1.796874 0.855469,-4.074218 1.40625,-6.304687 l 3.988281,-0.160156 C 10.570312,-16.320312 11,-18.335938 10.167969,-18.898438 l -3.566407,0.144532 c 0.847657,-3.265625 1.703126,-6.316406 2.535157,-8.941406 -0.09375,-1.230469 -3.972657,-1.542969 -4.53125,-0.671876 -0.765625,2.199219 -1.921875,6.199219 -2.882813,9.808594 l -1.6953122,0.06641 c -0.6718748,0.28125 -1.0976558,2.382813 -0.2304688,2.816407 l 1.273437,-0.05078 C -0.582031,-8.222656 -2.1875,0.554688 5.234375,0.171875 Z m 0,0"
             id="path169" />
        </g>
      </g>
    </g>
    <g
       fill="#52947c"
       fill-opacity="1"
       id="g183"
       transform="translate(-750.49148,-49.769645)">
      <g
         transform="translate(203.53817,248.37543)"
         id="g181">
        <g
           id="g179">
          <path
             d="m 13.667969,-32.652344 c -4.0625,0.46875 -8.398438,3.113282 -8.378907,8.210938 0.046876,6.824218 6.625,11.40625 13.902344,10.796875 -0.695312,4.066406 -2.355468,7.84375 -6.207031,8.492187 -5.28125,0.875 -6.972656,-6.414062 -5.515625,-10.796875 C 7.644531,-17.066406 4.875,-18.222656 4.066406,-17.246094 2.144531,-13.25 2.882812,-7.335938 5.421875,-4.449219 7.242188,-2.375 9.875,-1.492188 13.507812,-2.183594 c 5.972657,-1.09375 9.230469,-6.472656 10.261719,-12.160156 2.324219,-0.746094 4.335938,-1.992188 6.089844,-3.667969 0.515625,-0.484375 0.183594,-2.453125 -0.324219,-1.925781 -1.394531,1.304688 -3.628906,2.507812 -5.425781,3.066406 0.636719,-5.742187 -0.335937,-16.972656 -10.441406,-15.78125 z m 0.253906,3.148438 c 5.40625,-0.683594 5.871094,9.476562 5.570313,13.121094 -5.675782,0.175781 -9.648438,-4.128907 -9.660157,-8.492188 -0.00781,-2.765625 1.597657,-4.324219 4.089844,-4.628906 z m 0,0"
             id="path177" />
        </g>
      </g>
    </g>
    <g
       fill="#52947c"
       fill-opacity="1"
       id="g191"
       transform="translate(-750.49148,-49.769645)">
      <g
         transform="translate(236.18652,241.50045)"
         id="g189">
        <g
           id="g187">
          <path
             d="m 5.949219,-21.597656 c -2.636719,0.953125 -4.359375,4.558594 -5.160157,6.765625 -0.078124,-1.285157 -0.175781,-2.023438 -0.296874,-3.429688 -0.863282,-1.078125 -4.039063,-0.105469 -4.34375,1.007813 0.609374,6.402344 0.96875,11.441406 1.699218,17.207031 0.574219,1.28125 4.460938,-0.328125 4.570313,-1.367187 -0.519531,-3.890626 -0.851563,-6.082032 -1.152344,-10.238282 0.71875,-2.542968 2.117187,-5.203125 3.492187,-5.769531 1.335938,-0.550781 1.632813,0.835937 1.808594,2.132813 0.257813,1.761718 0.785156,6.511718 1.058594,7.953124 0.5,2.761719 2.074219,4.164063 5.0625,2.941407 3.839844,-1.496094 4.984375,-7.46875 5.265625,-11.527344 0.01563,-0.550781 -1.671875,-0.820313 -1.691406,-0.269531 -0.175781,3.972656 -1.410157,7.800781 -3.039063,8.417968 -0.992187,0.375 -1.363281,-1.210937 -1.601562,-2.800781 -0.285156,-2.070312 -0.292969,-4.613281 -0.546875,-6.605469 -0.464844,-3.503906 -2.089844,-5.519531 -5.125,-4.417968 z m 0,0"
             id="path185" />
        </g>
      </g>
    </g>
    <g
       fill="#52947c"
       fill-opacity="1"
       id="g199"
       transform="translate(-750.49148,-49.769645)">
      <g
         transform="translate(256.92716,233.46929)"
         id="g197">
        <g
           id="g195">
          <path
             d="m 0.972656,-20.96875 c -4.457031,2.203125 -6.734375,7.382812 -5.109375,12.824219 1.316407,4.695312 5.507813,7.648437 11.296875,4.777343 3.613282,-1.796874 7.4375,-5.445312 6.828125,-13.847656 -0.05469,-0.546875 -1.765625,-0.59375 -1.75,-0.02344 0.484375,6.105469 -2.773437,9.546875 -5.460937,10.652343 -2.757813,1.144532 -4.96875,0.355469 -6.03125,-2.160156 4.882812,-1.320312 7.734375,-4.542968 7.609375,-8.089844 -0.046875,-3.496093 -3.109375,-6.238281 -7.382813,-4.132812 z m 0.941406,2.917969 c 1.445313,-0.726563 2.203126,0.597656 2.269532,2.15625 0.136718,2.046875 -1.210938,4.023437 -4.199219,5.101562 -0.773437,-3.054687 0.1132812,-6.425781 1.929687,-7.257812 z m 0,0"
             id="path193" />
        </g>
      </g>
    </g>
  </g>
</svg>
