<?xml version="1.0" encoding="UTF-8" standalone="no"?>
<!-- Created with Inkscape (http://www.inkscape.org/) -->

<svg
   version="1.1"
   id="svg69"
   width="163.84"
   height="163.52"
   viewBox="0 0 163.84 163.52"
   sodipodi:docname="button.svg"
   inkscape:version="1.1.2 (0a00cf5339, 2022-02-04, custom)"
   xmlns:inkscape="http://www.inkscape.org/namespaces/inkscape"
   xmlns:sodipodi="http://sodipodi.sourceforge.net/DTD/sodipodi-0.dtd"
   xmlns="http://www.w3.org/2000/svg"
   xmlns:svg="http://www.w3.org/2000/svg">
  <defs
     id="defs73" />
  <sodipodi:namedview
     id="namedview71"
     pagecolor="#ffffff"
     bordercolor="#666666"
     borderopacity="1.0"
     inkscape:pageshadow="2"
     inkscape:pageopacity="0.0"
     inkscape:pagecheckerboard="0"
     showgrid="false"
     inkscape:zoom="1"
     inkscape:cx="88"
     inkscape:cy="82.5"
     inkscape:window-width="1366"
     inkscape:window-height="709"
     inkscape:window-x="0"
     inkscape:window-y="23"
     inkscape:window-maximized="1"
     inkscape:current-layer="g75" />
  <g
     inkscape:groupmode="layer"
     inkscape:label="Image"
     id="g75">
    <path
       style="fill:#3f9694;stroke:none;stroke-width:0.32"
       d="M 76.48,0.13580064 C 59.2592,2.396896 43.80992,7.22976 30.08,18.387168 22.158368,24.824512 15.69568,32.80992 10.563712,41.6 6.46224,48.62496 3.773728,56.42368 1.9580256,64.32 0.24618752,71.7648 -0.23117664,79.45216 0.29135808,87.04 3.514624,133.84512 46.0544,169.25664 92.8,163.10976 131.69248,157.99584 162.11232,124.60096 163.82752,85.44 165.56544,45.75168 137.2368,9.398208 98.24,1.6 91.304,0.21297856 83.54432,-0.7917376 76.48,0.13580064 M 86.08,5.12 c -1.30048,1.840576 -5.92928,0.96 -8,0.96 1.88576,-1.428736 5.70048,-0.96 8,-0.96 M 73.92,5.44 c -1.12928,1.761888 -4.79136,1.447776 -6.72,1.6 1.83488,-1.466208 4.45568,-1.598496 6.72,-1.6 m 15.36,0 7.36,1.28 V 7.04 C 95.44896,7.475328 88.55936,7.377632 89.28,5.44 M 64.96,7.36 C 63.05056,9.581632 60.00128,9.6 57.28,9.6 l 7.68,-2.24 m 40.64,1.92 -6.4,-1.6 c 1.81152,-0.758432 5.38048,-0.1512 6.4,1.6 m -50.88,1.28 v 0.32 l -7.36,3.2 c 1.52576,-1.65136 5.07552,-3.788032 7.36,-3.52 m 54.72,0 7.36,3.2 c -2.65824,0.235616 -5.45248,-1.579936 -7.68,-2.88 l 0.32,-0.32 m 10.24,4.48 6.08,4.48 c -2.07552,-0.212576 -6.13152,-2.044352 -6.08,-4.48 m -75.84,0.64 -6.08,3.84 c 1.29088,-1.7944 3.7296,-4.110592 6.08,-3.84 m 84.16,4.8 5.12,4.48 C 131.1872,24.500512 128.48128,22.464832 128,20.48 M 36.16,20.8 c -0.86752,2.551488 -3.48096,4.336416 -6.08,4.8 l 6.08,-4.8 m -8.32,6.72 c -0.05674,2.39104 -3.037664,5.42624 -5.12,6.4 l 5.12,-6.4 M 136,27.84 c 1.90688,1.756416 4.712,3.485984 5.44,6.08 -1.90336,-0.808 -5.51296,-3.865888 -5.44,-6.08 m 7.36,8.32 4.16,6.4 c -2.32768,-0.65536 -4.3808,-3.97344 -4.16,-6.4 M 20.16,36.8 c -0.430656,2.22688 -2.102368,4.35456 -3.84,5.76 0.621312,-2.1568 1.75168,-4.73952 3.84,-5.76 m 48,0.096 C 77.67104,35.54016 81.50176,48.33664 80.54752,55.68 80.0896,59.20384 78.52096,63.5072 74.56,64.21472 61.64032,66.5216 53.09952,39.04288 68.16,36.896 m 34.24,3.2 c 6.6096,-0.94432 9.35584,3.72992 10.05472,9.504 0.89344,7.38304 -3.7696,18.14528 -11.97472,19.14112 C 92.11072,69.75648 85.5008,62.3472 87.25408,54.08 88.74496,47.0496 95.3024,41.11008 102.4,40.096 M 64.64,41.6 64.96,41.92 64.64,41.6 m 8.64,0.64 0.32,0.32 -0.32,-0.32 m 31.68,0 v 0.96 h 0.32 l -0.32,-0.96 m -30.72,0.96 2.88,9.28 h 0.32 c -0.24896,-3.128 -1.16608,-6.82528 -3.2,-9.28 m 1.28,0 0.64,0.64 -0.64,-0.64 m 30.72,0.32 -0.32,1.6 0.32,-1.6 m 1.28,0 0.32,3.2 h 0.32 l -0.64,-3.2 m -41.6,0.32 -1.28,2.88 c 0.93632,-0.784 1.6848,-1.63232 1.28,-2.88 m 37.44,0 -0.64,2.24 1.28,-0.32 -0.64,-1.92 m -27.2,0.32 0.32,0.32 -0.32,-0.32 m 24.64,0 v 1.92 h 0.32 l -0.32,-1.92 m -1.92,0.32 -3.52,6.08 h 0.32 c 1.08032,-1.58816 3.7536,-4.05376 3.2,-6.08 m 49.92,0 c 1.53472,1.93536 3.06784,3.85216 3.2,6.4 -1.70592,-0.968 -3.26112,-4.4496 -3.2,-6.4 M 15.36,44.8 c -0.06589,2.80224 -1.577248,5.41152 -3.84,7.04 l 3.2,-7.04 h 0.64 m 61.12,0 0.32,0.32 -0.32,-0.32 m 16,2.56 2.56,-2.24 -2.56,2.24 m -15.68,-1.92 0.32,1.28 h 0.32 L 76.8,45.44 m 28.8,0.32 -0.32,1.28 h 0.32 v -1.28 m -5.44,0.64 -1.6,5.12 h 0.32 c 1.00288,-1.63392 2.09824,-3.16928 1.28,-5.12 m 3.52,0.32 -0.32,2.56 h 0.32 v -2.56 m -26.13344,0.53344 0.10688,0.21312 -0.10688,-0.21312 M 68.16,47.36 l 1.28,8.32 h 0.32 l -1.6,-8.32 m 40.64,0 v 2.24 h 0.32 L 108.8,47.36 M 77.76,48 78.08,48.32 77.76,48 m -15.04,0.32 0.32,0.32 -0.32,-0.32 m 0.64,1.28 -0.64,2.24 h 0.32 l 0.32,-2.24 m 2.56,0.64 -1.28,3.52 h 0.32 c 0.72832,-1.15776 1.51168,-2.15072 0.96,-3.52 m 24.96,0 -0.64,1.6 h 0.32 l 0.32,-1.6 m 2.02656,0.53344 0.10688,0.21312 -0.10688,-0.21312 M 108.16,50.56 l 0.32,2.88 h 0.32 c 0.22528,-1.23264 0.44704,-2.0928 -0.64,-2.88 m -33.6,0.64 0.32,0.32 -0.32,-0.32 m 25.92,0 -2.24,4.48 h 0.32 c 0.91616,-1.27936 2.48704,-2.82624 1.92,-4.48 m -8,0.32 -0.64,3.84 h 0.32 l 0.32,-3.84 m 4.48,0 -1.92,4.48 c 1.27872,-1.04096 3.33056,-2.94336 1.92,-4.48 m -33.6,0.96 -0.32,0.96 0.32,-0.96 m 39.68,0.32 -1.6,2.88 h 0.32 l 1.28,-2.88 m -12.48,0.64 -0.32,3.2 h 0.32 v -3.2 m -25.28,0.32 -0.64,2.56 0.64,-2.56 m 40.64,0 -0.64,2.88 h 0.32 l 0.32,-2.88 M 41.6,54.17632 C 48.68768,53.1296 55.32576,59.86016 57.77504,65.92 60.09088,71.64928 58.35584,76.99552 51.84,78.05376 44.4304,79.25728 37.65024,71.55584 36.25152,64.96 35.21312,60.06336 35.34592,55.09984 41.6,54.17632 M 10.56,54.4 c 0.519968,2.43072 -0.940544,5.4704 -1.92,7.68 H 8.32 c 0.18496,-2.32416 0.682624,-5.89728 2.24,-7.68 m 65.6,0 0.64,1.28 -0.64,-1.28 m 77.12,0.32 2.88,7.36 c -1.91168,-0.65472 -3.4288,-5.50464 -2.88,-7.36 m -55.68,1.6 0.32,0.32 -0.32,-0.32 m 10.34656,0.21344 0.10688,0.21312 -0.10688,-0.21312 M 99.2,56.64 99.52,56.96 99.2,56.64 m 3.52,0.32 v 0.64 h 0.64 l -0.64,-0.64 M 43.2,57.6 v 0.32 l 7.68,4.8 C 49.0464,59.7904 46.5424,58.25056 43.2,57.6 m 62.4,0 0.96,1.6 0.32,-1.6 h -1.28 m -13.12,0.32 v 3.52 h 0.32 l -0.32,-3.52 m -25.81344,0.85344 0.10688,0.21312 -0.10688,-0.21312 M 38.4,59.84 c 5.24288,0.04384 9.99072,4.06912 13.12,8 0.53184,-3.66592 -5.77184,-7.24096 -8.64,-8.20608 C 41.36768,59.1248 39.47968,58.34464 38.4,59.84 m 59.2,-0.96 c -0.96096,1.4832 -1.25664,2.47232 -0.64,4.16 0.77312,-1.2304 1.21344,-2.78016 0.64,-4.16 M 77.12,59.2 76.8,60.48 77.12,59.2 m -7.36,0.32 -0.64,1.92 0.64,-1.92 m 34.24,0 v 1.6 h 0.32 L 104,59.52 m -3.84,0.64 v 3.2 h 0.32 l -0.32,-3.2 m 2.02656,0.53344 0.10688,0.21312 -0.10688,-0.21312 M 75.52,60.8 75.2,62.08 76.16,61.76 75.52,60.8 m -37.44,0.64 0.64,4.8 c 0.61536,-1.46624 1.06272,-4.11328 -0.64,-4.8 m 35.52,0 -0.32,1.28 0.32,-1.28 m 16.64,0 1.92,2.24 -1.92,-2.24 m -19.52,0.32 0.32,0.32 -0.32,-0.32 m 1.6,0 -0.32,0.96 h 0.32 0.32 l -0.32,-0.96 m 34.24,0.32 -0.64,0.96 0.64,-0.96 M 94.4,62.4 95.36,64.64 94.4,62.4 m -57.6,0.32 v 1.92 h 0.32 L 36.8,62.72 m 4.16,0.32 0.32,6.08 h 0.32 c 0.03968,-1.92672 1.35328,-4.96992 -0.64,-6.08 m 61.86656,1.17344 0.10688,0.21312 -0.10688,-0.21312 M 46.08,64.64 46.4,64.96 46.08,64.64 m 110.72,0.32 1.28,7.68 c -2.2096,-1.18912 -2.632,-5.70112 -1.28,-7.68 m -112.96,0.32 0.64,7.04 h 0.32 c 0.34848,-2.74208 1.64448,-5.14272 -0.96,-7.04 m 75.21248,0.09952 c 7.35232,-1.09568 13.93568,4.72288 12.30176,12.38048 -1.1152,5.22688 -5.84448,9.33696 -11.03424,10.1936 -1.8896,0.312 -3.55744,0.35168 -5.44,-0.04512 -1.36512,-0.288 -2.68448,-0.79072 -3.83968,-1.58016 -9.5888,-6.552 -1.1872,-19.57792 8.01216,-20.9488 M 7.36,65.92 6.4,72.64 H 6.08 l 0.64,-6.72 h 0.64 m 88.96,0.32 v 0.64 h 0.64 l -0.64,-0.64 m 2.98656,0.21344 0.10688,0.21312 -0.10688,-0.21312 M 47.68,66.56 l 0.96,1.6 h 0.32 l -1.28,-1.6 M 80,66.97152 c 17.00448,-2.08832 27.59552,15.09536 31.58592,29.34848 2.29856,8.21056 0.86432,20.16896 -9.50592,21.664 -8.61792,1.24224 -15.08992,-5.6688 -23.36,-6.2752 -10.02688,-0.73504 -18.56992,12.31296 -28.42432,3.34144 C 44.44704,109.72608 46.78912,100.52352 49.84096,94.4 56.18848,81.664 64.56224,68.86752 80,66.97152 M 125.12,68.48 v 0.32 l 1.28,0.32 V 68.8 l -1.28,-0.32 m -77.76,0.96 v 3.2 h 0.32 l -0.32,-3.2 m 3.2,0 0.32,1.6 0.96,-0.64 v -0.32 l -1.28,-0.64 m 62.4,0 -3.84,5.44 h 0.32 l 3.52,-5.44 M 39.68,69.76 40,70.72 h 0.32 v -0.96 h -0.64 m 85.76,0.32 0.64,1.92 h 0.32 l -0.96,-1.92 m -44.48,0.32 0.32,0.32 -0.32,-0.32 m 1.17344,0.10656 0.21312,0.10688 -0.21312,-0.10688 m 39.89312,0.10688 0.10688,0.21312 -0.10688,-0.21312 M 84.16,70.72 l -0.32,1.6 1.6,-1.6 h -1.28 m 29.12,0 -2.88,3.84 2.88,-3.84 m -26.56,0.32 -0.96,1.6 1.6,-1.6 h -0.64 m -11.84,0.32 v 0.96 h 0.32 l -0.32,-0.96 m 39.68,0 -0.32,0.64 h 0.64 l -0.32,-0.64 m 12.8,0 0.64,4.8 h 0.32 l -0.96,-4.8 m -40.64,3.2 3.84,-2.24 c -1.90048,-0.77792 -2.82944,0.7632 -3.84,2.24 M 82.88,72 82.56,73.28 h 0.32 V 72 m 37.44,0 v 3.52 h 0.32 L 120.32,72 m -47.36,0.32 -2.56,2.24 c 1.02016,-0.44064 2.59008,-0.98912 2.56,-2.24 m 51.84,0 0.87328,6.58432 L 123.2,83.52 h 0.32 c 2.71104,-3.78528 4.66464,-7.0064 1.28,-11.2 m -81.81344,0.53344 0.10688,0.21312 -0.10688,-0.21312 M 52.16,72.64 l 0.32,0.32 -0.32,-0.32 m 39.68,0.32 -3.52,3.84 c 1.2528,-0.85664 3.5552,-2.18912 3.52,-3.84 m 31.68,0.64 0.96,5.12 v 0.32 l -0.64,0.64 c 1.33728,-1.39296 0.46016,-4.45728 -0.32,-6.08 m -30.08,0.32 -0.96,1.6 1.6,-1.28 -0.64,-0.32 m -47.68,0.64 0.32,0.32 -0.32,-0.32 m 2.88,0 v 1.6 h 0.32 l -0.32,-1.6 m 63.36,0 0.32,0.32 -0.32,-0.32 m 7.04,0.32 -0.64,1.28 1.28,-1.28 h -0.64 M 6.4,75.2 5.76,82.88 H 5.44 L 5.76,75.2 H 6.4 m 77.86656,0.21344 0.10688,0.21312 -0.10688,-0.21312 M 111.68,75.2 l -0.32,0.64 0.32,-0.64 m 1.28,0 -1.6,3.52 h 0.32 l 1.28,-3.52 m 45.44,0 c 0.15424,1.9392 1.65344,5.44064 -0.32,6.72 -0.2544,-2.01184 -0.98112,-5.00256 0.32,-6.72 m -63.04,0.32 0.32,0.32 -0.32,-0.32 m -43.94656,0.42656 0.21312,0.10688 -0.21312,-0.10688 M 121.6,75.84 v 2.24 h 0.32 l -0.32,-2.24 m -35.2,0.32 c -1.42624,1.2496 -2.65984,2.18464 -2.88,4.16 1.21568,-0.9808 2.87648,-2.50848 2.88,-4.16 m 7.36,0 -0.32,1.6 h 0.32 v -1.6 m 2.88,0.32 1.28,1.28 -1.28,-1.28 m 23.68,0 v 0.96 h 0.32 l -0.32,-0.96 m 9.06656,0.53344 0.10688,0.21312 -0.10688,-0.21312 M 119.36,77.44 l -1.6,1.92 1.6,-1.92 m -44.48,0.32 -0.64,3.52 h 0.64 v -3.52 m 40.32,0 0.32,0.32 -0.32,-0.32 m -43.52,0.32 -0.64,0.96 0.64,-0.96 m 17.92,0.64 v 0.32 l 1.6,-0.96 -1.6,0.64 m 27.52,-0.64 c -2.28256,1.7392 -4.00832,3.744 -5.12,6.4 h 0.32 l 4.8,-6.4 M 98.56,78.4 99.2,79.36 98.56,78.4 m 22.4,2.56 1.6,-1.92 -1.6,1.92 m -1.6,-1.28 -0.32,0.64 0.32,-0.64 m -48,0.64 -0.96,2.24 2.56,-0.96 v -0.32 l -1.6,-0.96 m 4.8,0.32 0.32,0.32 -0.32,-0.32 M 88,81.6 v 0.32 L 90.88,81.6 90.56,80.64 88,81.6 m 5.12,-0.64 0.96,0.96 -0.96,-0.96 m 24.96,2.56 2.24,-2.24 -2.24,2.24 m -22.93344,-1.06656 0.10688,0.21312 -0.10688,-0.21312 M 76.48,82.56 c 0.65056,0.92224 1.25984,0.89088 1.92,0 h -1.92 m 23.68,0 0.64,4.8 h 0.32 l -0.96,-4.8 m 15.04,0 -2.24,2.88 2.24,-2.88 m -47.68,0.32 0.32,0.32 -0.32,-0.32 m 24.32,0 0.32,0.32 -0.32,-0.32 m 6.4,0 0.32,0.32 -0.32,-0.32 m 26.88,0 -0.96,1.6 0.96,-1.6 m -42.24,0.64 -0.32,0.64 0.32,-0.64 m -1.28,5.12 c -2.20288,-1.29984 -3.4144,-3.47008 -6.08,-4.22752 -5.18304,-1.47328 -10.704,2.4528 -8.7648,8.06752 1.42016,4.112 6.32032,6.67936 9.7248,8.96032 1.10464,0.73984 2.50528,2.19424 3.84,2.42944 1.69632,0.2992 6.16608,-3.5744 8,-4.39424 C 91.976,97.84128 96.57184,94.87264 96.15072,90.24 95.43456,82.36576 84.08928,81.31808 81.6,88.64 m 14.82656,-4.90656 0.10688,0.21312 -0.10688,-0.21312 M 94.08,83.84 95.04,84.8 94.08,83.84 m 25.28,0 -2.24,2.56 c 1.32416,-0.2272 2.19936,-1.19424 2.24,-2.56 m -3.52,0.64 -1.28,1.28 1.28,0.32 v -1.6 M 61.12,84.8 59.84,88 61.12,84.8 m 59.84,0 -0.96,1.28 0.96,-1.28 M 96,85.12 l 0.64,1.6 h 0.32 v -1.6 H 96 m -90.24,0.64 1.28,8 c -1.414336,-1.14368 -2.248896,-6.49888 -1.28,-8 m 152.32,0 c 0,2.03712 0.8944,6.79776 -0.96,8 l 0.96,-8 m -95.68,0.32 -1.6,4.48 c 1.58976,-0.46304 2.27648,-3.06432 1.6,-4.48 m 35.84,0.32 -1.28,7.68 h 0.32 c 0.91008,-2.11488 2.53024,-5.69504 0.96,-7.68 m -44.48,3.84 -2.24,6.08 h 0.32 c 1.01344,-1.60608 2.50816,-4.14304 1.92,-6.08 m 9.28,0 -0.32,2.88 L 64,92.8 63.04,90.24 M 56,91.84 55.68,94.08 H 56 v -2.24 m 1.92,0 -0.96,4.48 h 1.28 l -0.32,-4.48 m 42.88,0 0.64,2.24 h 0.32 l -0.96,-2.24 m 5.76,1.6 1.28,2.88 -1.28,-2.88 m -47.04,0.64 v 7.36 l 1.28,-0.32 -1.28,-7.04 m 6.4,0.32 2.56,3.2 -2.56,-3.2 m -10.24,0.64 -0.32,2.56 h 0.32 v -2.56 m 40.64,0.32 -0.96,1.92 h 0.32 l 0.64,-1.92 m 5.76,0.64 v 1.28 h 0.32 L 102.08,96 m 55.04,0.64 c -0.28992,1.96352 -0.86976,6.61472 -2.56,7.68 0.002,-2.80384 0.58208,-5.56736 2.56,-7.68 m -59.84,0.64 -0.96,3.52 h 0.32 l 1.28,-3.52 h -0.64 m -89.6,0.64 1.28,6.4 H 8.64 l -1.92,-6.4 h 0.96 m 83.52,1.92 0.32,1.28 1.28,-1.92 1.28,0.64 0.32,-1.92 -3.2,1.92 m -33.28,-1.6 -0.32,2.56 h 0.64 l -0.32,-2.56 m -6.72,0.32 -0.32,2.88 h 0.32 v -2.88 m 53.76,1.92 -0.64,1.6 h 1.92 l -0.64,-1.6 h -0.64 m 4.16,0 0.32,0.32 -0.32,-0.32 m -52.37344,0.85344 0.10688,0.21312 -0.10688,-0.21312 M 62.72,101.12 l 0.32,0.32 -0.32,-0.32 m 29.76,0.32 -0.32,0.96 0.32,-0.96 m -38.72,0.32 -1.6,2.88 1.6,-2.88 m 55.36,0.64 -0.32,1.92 h 0.32 v -1.92 m -25.6,3.84 3.2,-3.2 -3.2,3.2 m 9.28,-3.2 v 1.28 h 0.32 l -0.32,-1.28 m -43.84,0.32 0.32,4.16 h 0.32 l -0.64,-4.16 m 39.68,0 -0.32,0.64 0.32,-0.64 m -24.96,0.64 -0.96,3.2 h 0.32 l 1.28,-3.2 h -0.64 m 8,0 0.32,0.32 -0.32,-0.32 m 17.92,0 -0.64,2.24 c 0.90368,-0.58528 1.04416,-1.24256 0.64,-2.24 m -32,0.32 0.32,0.32 -0.32,-0.32 m 9.70656,0.21344 0.10688,0.21312 -0.10688,-0.21312 M 78.08,104.32 l 0.64,0.64 -0.64,-0.64 m 8.96,0.32 -0.64,1.28 0.64,-1.28 m -18.56,0.64 -0.64,1.6 h 0.32 l 0.96,-1.6 h -0.64 m 9.06656,0.53344 0.10688,0.21312 -0.10688,-0.21312 M 105.92,105.6 l 0.32,0.32 -0.32,-0.32 m -40.64,0.64 -0.64,1.6 1.6,-0.32 -0.32,-1.28 h -0.64 m 14.08,2.88 2.24,-2.88 -2.24,2.88 m 15.04,-2.88 0.32,0.32 -0.32,-0.32 m -84.48,0.32 h 0.32 c 1.53712,2.3328 2.232288,4.5696 2.24,7.36 h -0.32 l -2.24,-7.36 m 144.32,0.32 c -0.0928,2.13088 -0.52608,5.016 -2.56,6.08 l 2.56,-6.08 m -78.4,0.64 -0.96,1.28 0.96,-1.28 m -26.24,0.32 0.32,0.32 -0.32,-0.32 m 3.84,0 -0.32,0.96 h 0.32 v -0.96 m 28.8,0 0.32,0.32 -0.32,-0.32 m 26.88,0 -0.32,1.92 h 0.32 v -1.92 m -52.48,0.32 0.32,0.32 -0.32,-0.32 m 38.08,0.32 -0.96,2.56 h 0.32 l 1.28,-2.56 h -0.64 m -26.24,0.32 -1.28,1.92 c 0.86848,-0.48544 1.49728,-0.88032 1.28,-1.92 m 14.72,0 -1.28,1.6 1.28,-1.6 m -6.4,0.32 0.32,0.32 -0.32,-0.32 m 28.16,0.96 0.96,-0.96 -0.96,0.96 m -24.64,-0.64 0.32,0.32 -0.32,-0.32 m -25.6,1.28 -1.28,2.56 c 1.13824,-0.3328 1.48864,-1.4336 1.28,-2.56 m 8.96,0 -0.32,1.6 h 0.32 l 0.64,-1.6 h -0.64 m 20.16,0 0.32,0.32 -0.32,-0.32 m 2.24,0 -0.64,0.96 0.32,0.32 0.32,-1.28 m 23.04,0 -4.48,4.8 c 1.82464,-0.80256 4.4064,-2.61888 4.48,-4.8 m -47.04,0.64 -0.32,1.28 h 0.32 v -1.28 m 40.64,1.6 0.96,-0.64 -0.96,0.64 m -47.04,0 0.96,1.28 -0.32,-1.28 h -0.64 m 2.88,0 -0.64,1.6 1.28,-1.6 h -0.64 m 41.28,0.32 -1.6,2.88 h 0.32 l 1.28,-2.88 m -9.38656,0.42656 0.21312,0.10688 -0.21312,-0.10688 m 6.93312,0.42688 0.10688,0.21312 -0.10688,-0.21312 M 93.44,115.2 l 0.96,0.32 0.32,-1.28 -1.28,0.96 m 9.6,-0.32 0.96,-0.32 -0.96,0.32 m -0.64,0 0.32,0.32 -0.32,-0.32 m -6.72,0.32 -0.32,0.64 H 96 l -0.32,-0.64 m -81.6,1.28 4.16,7.04 c -1.459936,-1.12672 -5.061568,-5.17376 -4.16,-7.04 m 135.68,0 c -0.38656,2.16928 -1.8768,5.92576 -3.84,7.04 0.43904,-2.46272 2.05024,-5.30592 3.84,-7.04 m -5.44,9.6 -4.8,6.08 c -0.0192,-2.74752 2.51264,-4.94048 4.8,-6.08 m -123.84,0.64 3.84,5.44 c -1.52208,-0.95232 -5.067744,-3.3952 -3.84,-5.44 m 11.2,12.8 -5.76,-5.76 c 2.778112,0.55872 4.694432,3.29088 5.76,5.76 m 106.24,-5.44 c -1.09952,1.97248 -2.53184,4.1632 -4.8,4.8 0.59104,-2.10432 2.8656,-3.90336 4.8,-4.8 m -97.28,11.84 c -2.39744,-0.70528 -5.4224,-2.57888 -7.04,-4.48 2.45152,-0.25056 5.5776,2.672 7.04,4.48 m 89.28,-4.8 c -1.46304,2.03392 -4.0032,4.31168 -6.4,5.12 1.09824,-2.34816 3.95712,-4.34144 6.4,-5.12 m -8.64,6.4 v 0.32 l -7.04,3.52 c 0.81408,-2.76704 4.51392,-3.51392 7.04,-3.84 m -71.36,3.52 v 0.32 c -2.21024,-0.3264 -5.18624,-1.20128 -6.4,-3.2 l 6.4,2.88 m 9.28,4.16 c -1.95264,-0.75744 -5.92416,-1.42784 -7.04,-3.2 2.53536,0.0211 5.67264,0.88128 7.04,3.2 m 52.48,-2.88 v 0.32 l -6.08,2.24 c 1.07776,-1.7808 4.13056,-2.27328 6.08,-2.56 m -41.6,5.12 c -2.12448,-0.39424 -6.75552,0.001 -8,-1.92 2.16192,0.006 6.5584,0.13568 8,1.92 m 31.36,-1.92 v 0.32 l -7.68,1.92 c 1.33248,-2.01056 5.44832,-2.19392 7.68,-2.24 m -10.56,2.24 v 0.32 c -1.848,0 -6.60896,1.23328 -7.68,-0.32 2.75616,-0.56864 4.92352,-0.71328 7.68,0 m -10.24,0.32 v 0.32 c -1.79232,0.42688 -5.52768,1.04768 -6.72,-0.64 z"
       id="path367" />
  </g>
</svg>
