<svg width="36" height="29" viewBox="0 0 36 29" fill="none" xmlns="http://www.w3.org/2000/svg">
<path d="M16.2773 15.4618C15.5028 15.4618 14.875 16.0038 14.875 16.6725C14.875 17.0021 15.0307 17.3175 15.3062 17.5458L15.5887 17.78C16.095 18.1996 16.7115 18.4615 17.3555 18.5658C17.2491 19.6503 16.7153 20.4862 15.9278 20.9525C15.0573 21.4678 13.7338 21.615 12 20.9618C11.6836 20.8426 11.3152 20.9674 11.1772 21.2405C11.0391 21.5136 11.1837 21.8317 11.5 21.9509C13.5162 22.7105 15.3177 22.6222 16.6347 21.8425C17.2136 21.4998 17.6706 21.0399 18 20.4995C18.3294 21.0399 18.7864 21.4998 19.3653 21.8425C20.6823 22.6222 22.4838 22.7105 24.5 21.9509C24.8164 21.8317 24.9609 21.5136 24.8228 21.2405C24.6848 20.9674 24.3164 20.8426 24 20.9618C22.2662 21.615 20.9427 21.4678 20.0722 20.9525C19.2847 20.4862 18.7509 19.6503 18.6446 18.5658C19.2885 18.4615 19.905 18.1996 20.4113 17.78L20.6938 17.5458C20.9693 17.3175 21.125 17.0021 21.125 16.6725C21.125 16.0038 20.4972 15.4618 19.7227 15.4618H16.2773Z" fill="#D57A66"/>
<path d="M14.25 13.843C14.25 14.439 13.6904 14.9222 13 14.9222C12.3096 14.9222 11.75 14.439 11.75 13.843C11.75 13.247 12.3096 12.7639 13 12.7639C13.6904 12.7639 14.25 13.247 14.25 13.843Z" fill="#D57A66"/>
<path d="M23 14.9222C23.6904 14.9222 24.25 14.439 24.25 13.843C24.25 13.247 23.6904 12.7639 23 12.7639C22.3097 12.7639 21.75 13.247 21.75 13.843C21.75 14.439 22.3097 14.9222 23 14.9222Z" fill="#D57A66"/>
<path fill-rule="evenodd" clip-rule="evenodd" d="M13.414 4.70817C13.0651 4.16695 12.485 3.68637 11.8432 3.27499C11.0701 2.77947 10.1368 2.33989 9.20966 1.97964C8.28071 1.61868 7.33918 1.33011 6.53977 1.14171C6.1403 1.04757 5.76848 0.976578 5.44621 0.934781C5.13754 0.894746 4.82595 0.874699 4.56926 0.90877C4.3372 0.939572 4.14471 1.08006 4.07091 1.27248C3.46968 2.84015 3.54495 5.04164 3.89347 6.90365C4.06963 7.84482 4.32088 8.72791 4.61024 9.43441C4.75475 9.78723 4.91291 10.1063 5.08242 10.3704C5.16985 10.5066 5.26843 10.6412 5.37996 10.7621C5.07373 11.5111 4.89953 12.3025 4.87741 13.1245C3.30572 14.7163 2.375 16.6296 2.375 18.6993C2.375 19.0143 2.39651 19.3255 2.43851 19.6325L1.04748 19.7826C0.704971 19.8196 0.462017 20.0893 0.504831 20.385C0.547645 20.6807 0.860014 20.8904 1.20253 20.8534L2.66954 20.6951C2.88518 21.415 3.21481 22.1057 3.64378 22.7592L1.49138 23.6039C1.17714 23.7272 1.03819 24.0471 1.18103 24.3184C1.32386 24.5897 1.69439 24.7096 2.00863 24.5863L4.32987 23.6754C5.05884 24.5372 5.9684 25.3189 7.0184 25.9987C9.85107 27.8329 13.7357 28.9514 18 28.9514C22.2643 28.9514 26.1489 27.8329 28.9816 25.9987C30.0316 25.3189 30.9412 24.5372 31.6701 23.6754L33.9914 24.5863C34.3056 24.7096 34.6762 24.5897 34.819 24.3184C34.9618 24.0471 34.8229 23.7272 34.5086 23.6039L32.3562 22.7592C32.7852 22.1057 33.1148 21.415 33.3305 20.6951L34.7975 20.8534C35.14 20.8904 35.4524 20.6807 35.4952 20.385C35.538 20.0893 35.295 19.8196 34.9525 19.7826L33.5615 19.6325C33.6035 19.3255 33.625 19.0143 33.625 18.6993C33.625 16.6296 32.6943 14.7163 31.1226 13.1245C31.1005 12.3025 30.9263 11.5111 30.62 10.7621C30.7316 10.6412 30.8302 10.5066 30.9176 10.3704C31.0871 10.1063 31.2453 9.78724 31.3898 9.43441C31.6791 8.72791 31.9304 7.84483 32.1065 6.90365C32.4551 5.04164 32.5303 2.84016 31.9291 1.27249C31.8553 1.08006 31.6628 0.939578 31.4308 0.908776C31.1738 0.874671 30.867 0.894726 30.5645 0.935147C30.2494 0.977247 29.8887 1.04867 29.503 1.14318C28.7313 1.33229 27.8276 1.62171 26.937 1.98344C26.048 2.34455 25.1538 2.78505 24.4106 3.28145C23.7657 3.71221 23.1882 4.2155 22.853 4.7801C21.3433 4.36002 19.7031 4.13055 18 4.13055C16.3967 4.13055 14.8493 4.33389 13.414 4.70817ZM28.3009 9.28529C26.9786 7.71359 24.902 6.45778 22.375 5.77477V8.44721C22.375 8.74522 22.0952 8.98679 21.75 8.98679C21.4048 8.98679 21.125 8.74522 21.125 8.44721V5.49129C20.3251 5.34338 19.4891 5.25083 18.625 5.22061V9.52638C18.625 9.82438 18.3452 10.066 18 10.066C17.6548 10.066 17.375 9.82438 17.375 9.52638V5.22061C16.5109 5.25083 15.6749 5.34338 14.875 5.49129V8.44721C14.875 8.74522 14.5952 8.98679 14.25 8.98679C13.9048 8.98679 13.625 8.74522 13.625 8.44721V5.77477C11.5502 6.33557 9.77894 7.28251 8.47962 8.47341C7.92295 9.0274 7.41514 9.64466 6.9693 10.3139C6.42331 11.2454 6.125 12.2561 6.125 13.3035L6.12505 13.3266L6.1259 13.5325L5.96773 13.6865C4.47372 15.1414 3.625 16.8645 3.625 18.6993C3.625 18.9682 3.64328 19.2348 3.6792 19.4986L6.04748 19.243C6.39 19.2061 6.70236 19.4158 6.74518 19.7115C6.78799 20.0072 6.54504 20.2769 6.20253 20.3139L3.92257 20.5599C4.11905 21.1656 4.40998 21.7516 4.7868 22.3107L8.36638 20.906C8.68062 20.7827 9.05115 20.9026 9.19398 21.1739C9.33682 21.4452 9.19787 21.7651 8.88363 21.8884L5.4945 23.2184C6.11677 23.9166 6.88137 24.561 7.7684 25.1354C10.3647 26.8165 13.98 27.8722 18 27.8722C22.02 27.8722 25.6353 26.8165 28.2316 25.1354C29.1186 24.561 29.8832 23.9166 30.5055 23.2184L27.1164 21.8884C26.8021 21.7651 26.6632 21.4452 26.806 21.1739C26.9489 20.9026 27.3194 20.7827 27.6336 20.906L31.2132 22.3107C31.59 21.7516 31.881 21.1656 32.0774 20.5599L29.7975 20.3139C29.455 20.2769 29.212 20.0072 29.2548 19.7115C29.2976 19.4158 29.61 19.2061 29.9525 19.243L32.3208 19.4986C32.3567 19.2348 32.375 18.9682 32.375 18.6993C32.375 16.8645 31.5263 15.1414 30.0323 13.6865L29.8741 13.5325L29.875 13.3267L29.875 13.3035C29.875 12.2272 29.56 11.1895 28.9849 10.2368C28.7669 9.90573 28.5389 9.58814 28.3009 9.28529Z" fill="#D57A66"/>
</svg>
