<?xml version="1.0" encoding="UTF-8" standalone="no"?>
<!-- Generator: Adobe Illustrator 17.1.0, SVG Export Plug-In . SVG Version: 6.00 Build 0)  -->

<svg
   xmlns:dc="http://purl.org/dc/elements/1.1/"
   xmlns:cc="http://creativecommons.org/ns#"
   xmlns:rdf="http://www.w3.org/1999/02/22-rdf-syntax-ns#"
   xmlns:svg="http://www.w3.org/2000/svg"
   xmlns="http://www.w3.org/2000/svg"
   xmlns:sodipodi="http://sodipodi.sourceforge.net/DTD/sodipodi-0.dtd"
   xmlns:inkscape="http://www.inkscape.org/namespaces/inkscape"
   version="1.1"
   id="Capa_1"
   x="0px"
   y="0px"
   viewBox="0 0 302.489 302.489"
   style="enable-background:new 0 0 302.489 302.489;"
   xml:space="preserve"
   sodipodi:docname="Coeur-Deux.svg"
   inkscape:version="0.92.5 (2060ec1f9f, 2020-04-08)"><metadata
   id="metadata39"><rdf:RDF><cc:Work
       rdf:about=""><dc:format>image/svg+xml</dc:format><dc:type
         rdf:resource="http://purl.org/dc/dcmitype/StillImage" /></cc:Work></rdf:RDF></metadata><defs
   id="defs37" /><sodipodi:namedview
   pagecolor="#ffffff"
   bordercolor="#666666"
   borderopacity="1"
   objecttolerance="10"
   gridtolerance="10"
   guidetolerance="10"
   inkscape:pageopacity="0"
   inkscape:pageshadow="2"
   inkscape:window-width="1366"
   inkscape:window-height="697"
   id="namedview35"
   showgrid="false"
   inkscape:zoom="0.78019362"
   inkscape:cx="151.24451"
   inkscape:cy="148.52677"
   inkscape:window-x="0"
   inkscape:window-y="0"
   inkscape:window-maximized="1"
   inkscape:current-layer="Capa_1" />
<path
   d="M 289.29389,104.07585 C 288.26595,85.338292 280.13644,67.742272 266.40027,54.529079 252.4891,41.1478 234.33632,33.778074 215.28824,33.778074 c -28.34737,0 -48.89314,21.872778 -59.93052,33.62443 -1.70401,1.814791 -3.70093,3.940587 -5.09085,5.237637 -1.11267,-1.12357 -2.62049,-2.799039 -4.00765,-4.339679 -10.08037,-11.205147 -31.05905,-34.521489 -61.317677,-34.521489 -19.048077,0 -37.199936,7.369726 -51.111112,20.751005 -13.73709,13.212294 -21.868445,30.807414 -22.896378,49.545872 -1.0233271,18.707 3.879618,34.9844 15.89796,52.78086 9.509301,14.08419 34.582208,41.5865 60.971347,66.88213 13.59248,13.02893 26.10268,24.07048 36.17753,31.93098 16.36035,12.76377 22.6265,14.40058 26.25651,14.40058 3.40341,0 9.83997,-1.4894 26.3569,-14.36462 10.05182,-7.83534 22.51873,-18.85981 36.0541,-31.88065 26.15242,-25.159 51.13414,-52.69817 60.75121,-66.97111 8.08899,-12.00603 17.20498,-28.8533 15.89428,-52.77817 z"
   id="path2"
   style="fill:#d57a66;fill-opacity:1;stroke:#d57a66;stroke-width:10.64587498;stroke-miterlimit:4;stroke-dasharray:none;stroke-opacity:1"
   inkscape:connector-curvature="0" />
<g
   id="g4">
</g>
<g
   id="g6">
</g>
<g
   id="g8">
</g>
<g
   id="g10">
</g>
<g
   id="g12">
</g>
<g
   id="g14">
</g>
<g
   id="g16">
</g>
<g
   id="g18">
</g>
<g
   id="g20">
</g>
<g
   id="g22">
</g>
<g
   id="g24">
</g>
<g
   id="g26">
</g>
<g
   id="g28">
</g>
<g
   id="g30">
</g>
<g
   id="g32">
</g>
</svg>