<?xml version="1.0" encoding="UTF-8" standalone="no"?>
<!-- Generator: Adobe Illustrator 17.1.0, SVG Export Plug-In . SVG Version: 6.00 Build 0)  -->

<svg
   xmlns:dc="http://purl.org/dc/elements/1.1/"
   xmlns:cc="http://creativecommons.org/ns#"
   xmlns:rdf="http://www.w3.org/1999/02/22-rdf-syntax-ns#"
   xmlns:svg="http://www.w3.org/2000/svg"
   xmlns="http://www.w3.org/2000/svg"
   xmlns:sodipodi="http://sodipodi.sourceforge.net/DTD/sodipodi-0.dtd"
   xmlns:inkscape="http://www.inkscape.org/namespaces/inkscape"
   version="1.1"
   id="Capa_1"
   x="0px"
   y="0px"
   viewBox="0 0 302.489 302.489"
   style="enable-background:new 0 0 302.489 302.489;"
   xml:space="preserve"
   sodipodi:docname="Coeur.svg"
   inkscape:version="0.92.5 (2060ec1f9f, 2020-04-08)"><metadata
   id="metadata39"><rdf:RDF><cc:Work
       rdf:about=""><dc:format>image/svg+xml</dc:format><dc:type
         rdf:resource="http://purl.org/dc/dcmitype/StillImage" /></cc:Work></rdf:RDF></metadata><defs
   id="defs37" /><sodipodi:namedview
   pagecolor="#ffffff"
   bordercolor="#666666"
   borderopacity="1"
   objecttolerance="10"
   gridtolerance="10"
   guidetolerance="10"
   inkscape:pageopacity="0"
   inkscape:pageshadow="2"
   inkscape:window-width="1366"
   inkscape:window-height="697"
   id="namedview35"
   showgrid="false"
   inkscape:zoom="2.2067208"
   inkscape:cx="-7.8150321"
   inkscape:cy="184.77966"
   inkscape:window-x="0"
   inkscape:window-y="0"
   inkscape:window-maximized="1"
   inkscape:current-layer="Capa_1" />
<path
   d="M 280.75939,111.31931 C 279.81958,94.61974 272.38708,78.937556 259.82863,67.161497 247.11019,55.235634 230.5138,48.667477 213.09888,48.667477 c -25.91691,0 -44.70111,19.493783 -54.79217,29.967266 -1.55791,1.617405 -3.38361,3.511988 -4.65436,4.667964 -1.01727,-1.001364 -2.39582,-2.494601 -3.66404,-3.867673 -9.2161,-9.986418 -28.39609,-30.766756 -56.060391,-30.766756 -17.414921,0 -34.010466,6.568157 -46.728917,18.49402 -12.559291,11.775258 -19.993476,27.456642 -20.933275,44.157012 -0.935588,16.67233 3.546985,31.17932 14.534891,47.04015 8.693987,12.55232 31.617179,37.06334 55.74375,59.60769 12.427082,11.61183 23.864672,21.45245 33.075722,28.458 14.95764,11.37552 20.68654,12.8343 24.00531,12.8343 3.11161,0 8.99631,-1.32741 24.0971,-12.80225 9.18999,-6.98313 20.58801,-16.80852 32.96287,-28.41315 23.91015,-22.42258 46.74997,-46.96645 55.54249,-59.68699 7.39545,-10.70019 15.72985,-25.71507 14.53153,-47.03775 z"
   id="path2"
   style="fill:none;fill-opacity:1;stroke:#d57a66;stroke-width:16.31;stroke-miterlimit:4;stroke-dasharray:none;stroke-opacity:1"
   inkscape:connector-curvature="0" />
<g
   id="g4">
</g>
<g
   id="g6">
</g>
<g
   id="g8">
</g>
<g
   id="g10">
</g>
<g
   id="g12">
</g>
<g
   id="g14">
</g>
<g
   id="g16">
</g>
<g
   id="g18">
</g>
<g
   id="g20">
</g>
<g
   id="g22">
</g>
<g
   id="g24">
</g>
<g
   id="g26">
</g>
<g
   id="g28">
</g>
<g
   id="g30">
</g>
<g
   id="g32">
</g>
</svg>