<?xml version="1.0" encoding="UTF-8" standalone="no"?>
<!-- Generator: Adobe Illustrator 19.0.0, SVG Export Plug-In . SVG Version: 6.00 Build 0)  -->

<svg
   xmlns:dc="http://purl.org/dc/elements/1.1/"
   xmlns:cc="http://creativecommons.org/ns#"
   xmlns:rdf="http://www.w3.org/1999/02/22-rdf-syntax-ns#"
   xmlns:svg="http://www.w3.org/2000/svg"
   xmlns="http://www.w3.org/2000/svg"
   xmlns:sodipodi="http://sodipodi.sourceforge.net/DTD/sodipodi-0.dtd"
   xmlns:inkscape="http://www.inkscape.org/namespaces/inkscape"
   version="1.1"
   id="Capa_1"
   x="0px"
   y="0px"
   viewBox="0 0 490 490"
   style="enable-background:new 0 0 490 490;"
   xml:space="preserve"
   sodipodi:docname="Conv.svg"
   inkscape:version="0.92.5 (2060ec1f9f, 2020-04-08)"><metadata
   id="metadata38"><rdf:RDF><cc:Work
       rdf:about=""><dc:format>image/svg+xml</dc:format><dc:type
         rdf:resource="http://purl.org/dc/dcmitype/StillImage" /></cc:Work></rdf:RDF></metadata><defs
   id="defs36" /><sodipodi:namedview
   pagecolor="#ffffff"
   bordercolor="#666666"
   borderopacity="1"
   objecttolerance="10"
   gridtolerance="10"
   guidetolerance="10"
   inkscape:pageopacity="0"
   inkscape:pageshadow="2"
   inkscape:window-width="1366"
   inkscape:window-height="697"
   id="namedview34"
   showgrid="false"
   inkscape:zoom="0.68113143"
   inkscape:cx="-164.89076"
   inkscape:cy="156.91127"
   inkscape:window-x="0"
   inkscape:window-y="0"
   inkscape:window-maximized="1"
   inkscape:current-layer="Capa_1" />
<path
   id="XMLID_823_"
   d="M427,220h-27V84.625C400,37.962,362.037,0,315.375,0H84.625C37.963,0,0,37.962,0,84.625v160.75  C0,292.038,37.963,330,84.625,330H210v121c0,21.505,17.495,39,39,39c3.245,0,6.403-1.053,9-3l36-27h133c34.738,0,63-28.262,63-63  V283C490,248.262,461.738,220,427,220z M84.625,300C54.505,300,30,275.495,30,245.375V84.625C30,54.505,54.505,30,84.625,30h230.75  C345.495,30,370,54.505,370,84.625v245.563c0,9.245-6.365,17.031-14.943,19.207l-53.098-45.757  c-2.723-2.347-6.197-3.637-9.792-3.637H84.625z M460,397c0,18.196-14.804,33-33,33H289c-3.245,0-6.403,1.053-9,3l-34.848,26.136  C242.109,457.69,240,454.587,240,451V330h46.596l53.8,46.363c2.723,2.347,6.197,3.637,9.792,3.637  C377.654,380,400,357.654,400,330.188V250h27c18.196,0,33,14.804,33,33V397z M227.752,89.558c-10.216,0-19.987,2.879-28.419,8.259  c-8.434-5.38-18.205-8.259-28.42-8.259c-14.35,0-27.824,5.683-37.942,16c-20.698,21.104-20.698,55.442-0.001,76.545l43.3,44.149  c6.144,6.265,14.335,9.715,23.064,9.715c8.729,0,16.92-3.45,23.063-9.715c0,0,42.909-43.751,43.306-44.156  c20.689-21.104,20.688-55.437-0.007-76.538C255.578,95.24,242.103,89.558,227.752,89.558z M244.278,161.096L244.278,161.096  l-43.3,44.149c-0.938,0.958-2.353,0.957-3.291,0c0,0-42.869-43.71-43.299-44.15c-9.338-9.521-9.338-25.012,0-34.533  c4.431-4.517,10.299-7.005,16.525-7.005s12.096,2.488,16.52,6.999c0.247,0.252,0.485,0.51,0.72,0.771  c1.995,2.217,5.909,4.965,11.537,4.965c4.139,0,8.054-1.888,10.822-4.965c0.23-0.256,0.465-0.51,0.714-0.764  c4.431-4.518,10.3-7.005,16.525-7.005c6.227,0,12.096,2.488,16.526,7.005C253.615,136.084,253.615,151.576,244.278,161.096z"
   style="fill:#d57a66;fill-opacity:1;stroke:#d57a66;stroke-opacity:1" />
<g
   id="g3">
</g>
<g
   id="g5">
</g>
<g
   id="g7">
</g>
<g
   id="g9">
</g>
<g
   id="g11">
</g>
<g
   id="g13">
</g>
<g
   id="g15">
</g>
<g
   id="g17">
</g>
<g
   id="g19">
</g>
<g
   id="g21">
</g>
<g
   id="g23">
</g>
<g
   id="g25">
</g>
<g
   id="g27">
</g>
<g
   id="g29">
</g>
<g
   id="g31">
</g>
<path
   style="fill:#63a375;fill-opacity:1;stroke:#63a375;stroke-width:3.78712177;stroke-linecap:round;stroke-linejoin:bevel;stroke-miterlimit:4;stroke-dasharray:none;stroke-opacity:1"
   d="m 328.08682,325.7113 c -14.6321,-12.61688 -27.80963,-23.60044 -29.28341,-24.40792 -2.63769,-1.44519 -4.41828,-1.47389 -113.8916,-1.83518 l -111.212016,-0.36704 -5.872581,-2.06111 c -18.238594,-6.40121 -31.389956,-20.67187 -36.167055,-39.24518 -1.170028,-4.54906 -1.270654,-11.85808 -1.270654,-92.29495 0,-99.034595 -0.362722,-92.715802 6.060038,-105.568674 2.782894,-5.568973 4.531568,-7.901032 10.033256,-13.380512 7.526794,-7.496412 14.347874,-11.54376 24.322245,-14.431822 l 5.831042,-1.688368 H 199.9603 c 139.19928,0 126.53385,-0.539851 139.76191,5.957218 15.86855,7.79397 27.10661,23.6472 29.43503,41.52322 0.5517,4.235458 0.73085,44.573658 0.58466,131.633308 l -0.2108,125.52643 -1.94603,3.67037 c -1.07033,2.0187 -2.72199,4.37892 -3.67037,5.24495 -2.42388,2.2134 -6.64313,4.65903 -8.04346,4.66228 -0.64934,10e-4 -13.15233,-10.32015 -27.78442,-22.93702 z M 205.54917,235.59999 c 9.26206,-1.72858 11.01144,-3.13535 38.12892,-30.66177 13.81173,-14.02 26.42747,-27.42759 28.03499,-29.79464 6.58047,-9.68961 9.58191,-19.5104 9.56558,-31.2988 -0.0135,-9.77952 -1.48606,-16.03889 -5.87149,-24.95847 -4.59907,-9.35413 -13.67447,-18.67252 -22.7502,-23.35936 -15.27368,-7.887549 -33.49841,-8.140139 -48.31677,-0.669659 l -4.95634,2.498669 -4.85029,-2.457443 c -25.75349,-13.048238 -58.52907,-1.979395 -71.40864,24.115853 -4.03829,8.18194 -5.11181,12.50176 -5.53213,22.26115 -0.48231,11.19866 1.16065,18.76861 6.18472,28.49613 3.284,6.35843 4.63651,7.9056 27.14115,31.04743 13.0267,13.39553 25.20738,25.69565 27.06819,27.3336 7.55447,6.64972 17.47428,9.33004 27.56231,7.44731 z"
   id="path1026"
   inkscape:connector-curvature="0" /><path
   style="fill:#63a375;fill-opacity:1;stroke:#63a375;stroke-width:3.78712177;stroke-linecap:round;stroke-linejoin:bevel;stroke-miterlimit:4;stroke-dasharray:none;stroke-opacity:1"
   d="m 243.01398,457.04434 c -0.8875,-0.9447 -1.93607,-2.84193 -2.33017,-4.21607 -0.43979,-1.53347 -0.71654,-25.67817 -0.71654,-62.51373 v -60.01529 l 23.3068,0.0192 23.30681,0.0192 27.16069,23.52352 c 14.93838,12.93795 28.48202,24.15335 30.09698,24.92313 6.18802,2.94956 17.98963,1.25257 28.96415,-4.16483 11.4967,-5.67517 20.22624,-15.61042 24.85865,-28.29208 l 1.96673,-5.38416 0.21005,-45.32899 0.21005,-45.32899 h 15.23477 c 16.6775,0 20.9295,0.655 27.55744,4.24508 5.58359,3.0244 10.56205,8.44135 13.59533,14.79277 l 2.65225,5.55359 0.22041,63.13025 c 0.24681,70.68789 0.40316,68.2744 -4.96055,76.57309 -3.40774,5.27244 -7.81931,9.09544 -13.97871,12.11375 l -4.77148,2.33818 -75.24245,0.36704 c -71.68717,0.34969 -75.36134,0.43181 -77.75845,1.73787 -1.3838,0.75397 -10.37839,7.27804 -19.98797,14.49794 -9.60958,7.2199 -17.58653,13.1271 -17.72656,13.1271 -0.14002,0 -0.98073,-0.77294 -1.86823,-1.71764 z"
   id="path1028"
   inkscape:connector-curvature="0" /><path
   style="fill:#ffffff;fill-opacity:1;stroke:#d57a66;stroke-width:7.57424355;stroke-linecap:round;stroke-linejoin:bevel;stroke-miterlimit:4;stroke-dasharray:none;stroke-opacity:1"
   d="m 339.0826,336.68569 c -8.40825,-7.06545 -21.09889,-17.80127 -28.20144,-23.85737 L 297.96742,301.81723 184.79744,301.08316 71.627476,300.34909 62.080324,295.82454 C 50.381914,290.28047 40.151175,280.3236 34.657191,269.13548 l -4.137788,-8.42632 V 164.54563 68.382108 l 5.031526,-9.280045 C 41.446747,48.227937 50.793097,39.400738 62.08453,34.042292 l 8.0748,-3.831966 H 200.0902 330.02107 l 8.79014,4.315787 c 11.19634,5.497191 21.03681,15.337658 26.534,26.534006 l 4.31579,8.790134 0.39715,134.110887 0.39715,134.11087 -5.72997,5.72998 c -3.15149,3.15148 -6.7706,5.72997 -8.04249,5.72997 -1.27188,0 -9.192,-5.78082 -17.60024,-12.84627 z M 211.10129,232.28347 c 6.06999,-2.75836 53.5224,-49.42624 60.10062,-59.10697 8.69553,-12.79663 10.81427,-33.75404 4.95922,-49.05421 -4.18603,-10.93881 -15.12558,-22.87318 -25.71599,-28.054585 -12.32439,-6.029762 -28.77649,-6.6072 -41.63884,-1.461448 l -9.50907,3.804227 -9.42199,-3.805707 c -12.65334,-5.110914 -28.84942,-4.53092 -41.4493,1.484332 -10.87055,5.189661 -21.9695,17.258781 -26.16717,28.454471 -4.39145,11.71254 -3.69363,31.52274 1.48446,42.14136 5.31657,10.90258 52.13051,59.63485 62.02289,64.56443 8.93945,4.45472 17.07694,4.78686 25.33517,1.0341 z"
   id="path829"
   inkscape:connector-curvature="0" /><path
   style="fill:#ffffff;fill-opacity:1;stroke:#d57a66;stroke-width:7.57424355;stroke-linecap:round;stroke-linejoin:bevel;stroke-miterlimit:4;stroke-dasharray:none;stroke-opacity:1"
   d="m 240.88289,456.33954 c -1.45463,-2.54666 -1.88683,-17.42774 -1.88683,-64.96543 V 329.712 l 24.01585,-0.40417 24.01586,-0.40416 14.88999,12.95589 c 8.1895,7.12574 21.43583,18.45606 29.43628,25.17849 l 14.54628,12.22259 8.37649,-0.75956 c 17.00406,-1.54187 32.30631,-12.38982 39.82875,-28.23505 l 4.18196,-8.80887 0.001,-45.99051 10e-4,-45.99052 20.43398,0.47801 c 20.03594,0.46869 20.55718,0.56468 26.75892,4.92784 3.47871,2.44742 8.14313,7.40241 10.36536,11.0111 l 4.04042,6.56124 0.20579,66.06655 c 0.14943,47.97122 -0.27161,67.27111 -1.53716,70.46448 -2.79444,7.05107 -8.51237,13.61992 -15.1716,17.42936 l -6.18986,3.54095 -76.55116,0.73939 -76.55117,0.7394 -19.19137,14.10421 c -10.55525,7.75731 -19.85307,14.10421 -20.66181,14.10421 -0.80875,0 -2.31953,-1.4865 -3.35729,-3.30333 z"
   id="path831"
   inkscape:connector-curvature="0" /></svg>