<?xml version="1.0" encoding="UTF-8" standalone="no"?>
<!-- Generator: Adobe Illustrator 19.0.0, SVG Export Plug-In . SVG Version: 6.00 Build 0)  -->

<svg
   xmlns:dc="http://purl.org/dc/elements/1.1/"
   xmlns:cc="http://creativecommons.org/ns#"
   xmlns:rdf="http://www.w3.org/1999/02/22-rdf-syntax-ns#"
   xmlns:svg="http://www.w3.org/2000/svg"
   xmlns="http://www.w3.org/2000/svg"
   xmlns:sodipodi="http://sodipodi.sourceforge.net/DTD/sodipodi-0.dtd"
   xmlns:inkscape="http://www.inkscape.org/namespaces/inkscape"
   version="1.1"
   id="Capa_1"
   x="0px"
   y="0px"
   viewBox="0 0 490 490"
   style="enable-background:new 0 0 490 490;"
   xml:space="preserve"
   sodipodi:docname="Conv (cópia).svg"
   inkscape:version="0.92.5 (2060ec1f9f, 2020-04-08)"><metadata
   id="metadata38"><rdf:RDF><cc:Work
       rdf:about=""><dc:format>image/svg+xml</dc:format><dc:type
         rdf:resource="http://purl.org/dc/dcmitype/StillImage" /></cc:Work></rdf:RDF></metadata><defs
   id="defs36"><inkscape:path-effect
     effect="simplify"
     id="path-effect919"
     is_visible="true"
     steps="1"
     threshold="0.5"
     smooth_angles="360"
     helper_size="0"
     simplify_individual_paths="false"
     simplify_just_coalesce="false"
     simplifyindividualpaths="false"
     simplifyJustCoalesce="false" /><inkscape:path-effect
     effect="spiro"
     id="path-effect915"
     is_visible="true" /><inkscape:path-effect
     effect="spiro"
     id="path-effect911"
     is_visible="true" /><inkscape:path-effect
     effect="simplify"
     id="path-effect909"
     is_visible="true"
     steps="1"
     threshold="0.0146921"
     smooth_angles="360"
     helper_size="0"
     simplify_individual_paths="false"
     simplify_just_coalesce="false"
     simplifyindividualpaths="false"
     simplifyJustCoalesce="false" /></defs><sodipodi:namedview
   pagecolor="#ffffff"
   bordercolor="#666666"
   borderopacity="1"
   objecttolerance="10"
   gridtolerance="10"
   guidetolerance="10"
   inkscape:pageopacity="0"
   inkscape:pageshadow="2"
   inkscape:window-width="1366"
   inkscape:window-height="697"
   id="namedview34"
   showgrid="false"
   inkscape:zoom="4"
   inkscape:cx="149.10601"
   inkscape:cy="335.03523"
   inkscape:window-x="0"
   inkscape:window-y="0"
   inkscape:window-maximized="1"
   inkscape:current-layer="Capa_1" />
<path
   id="XMLID_823_"
   d="M427,220h-27V84.625C400,37.962,362.037,0,315.375,0H84.625C37.963,0,0,37.962,0,84.625v160.75  C0,292.038,37.963,330,84.625,330H210v121c0,21.505,17.495,39,39,39c3.245,0,6.403-1.053,9-3l36-27h133c34.738,0,63-28.262,63-63  V283C490,248.262,461.738,220,427,220z M84.625,300C54.505,300,30,275.495,30,245.375V84.625C30,54.505,54.505,30,84.625,30h230.75  C345.495,30,370,54.505,370,84.625v245.563c0,9.245-6.365,17.031-14.943,19.207l-53.098-45.757  c-2.723-2.347-6.197-3.637-9.792-3.637H84.625z M460,397c0,18.196-14.804,33-33,33H289c-3.245,0-6.403,1.053-9,3l-34.848,26.136  C242.109,457.69,240,454.587,240,451V330h46.596l53.8,46.363c2.723,2.347,6.197,3.637,9.792,3.637  C377.654,380,400,357.654,400,330.188V250h27c18.196,0,33,14.804,33,33V397z M227.752,89.558c-10.216,0-19.987,2.879-28.419,8.259  c-8.434-5.38-18.205-8.259-28.42-8.259c-14.35,0-27.824,5.683-37.942,16c-20.698,21.104-20.698,55.442-0.001,76.545l43.3,44.149  c6.144,6.265,14.335,9.715,23.064,9.715c8.729,0,16.92-3.45,23.063-9.715c0,0,42.909-43.751,43.306-44.156  c20.689-21.104,20.688-55.437-0.007-76.538C255.578,95.24,242.103,89.558,227.752,89.558z M244.278,161.096L244.278,161.096  l-43.3,44.149c-0.938,0.958-2.353,0.957-3.291,0c0,0-42.869-43.71-43.299-44.15c-9.338-9.521-9.338-25.012,0-34.533  c4.431-4.517,10.299-7.005,16.525-7.005s12.096,2.488,16.52,6.999c0.247,0.252,0.485,0.51,0.72,0.771  c1.995,2.217,5.909,4.965,11.537,4.965c4.139,0,8.054-1.888,10.822-4.965c0.23-0.256,0.465-0.51,0.714-0.764  c4.431-4.518,10.3-7.005,16.525-7.005c6.227,0,12.096,2.488,16.526,7.005C253.615,136.084,253.615,151.576,244.278,161.096z"
   style="fill:#d57a66;fill-opacity:1;stroke:none;stroke-opacity:1" />
<g
   id="g3">
</g>
<g
   id="g5">
</g>
<g
   id="g7">
</g>
<g
   id="g9">
</g>
<g
   id="g11">
</g>
<g
   id="g13">
</g>
<g
   id="g15">
</g>
<g
   id="g17">
</g>
<g
   id="g19">
</g>
<g
   id="g21">
</g>
<g
   id="g23">
</g>
<g
   id="g25">
</g>
<g
   id="g27">
</g>
<g
   id="g29">
</g>
<g
   id="g31">
</g>
<path
   style="fill:#63a375;fill-opacity:1;stroke:#63a375;stroke-width:3.78712177;stroke-linecap:round;stroke-linejoin:bevel;stroke-miterlimit:4;stroke-dasharray:none;stroke-opacity:1"
   d="m 328.08682,325.7113 c -14.6321,-12.61688 -27.80963,-23.60044 -29.28341,-24.40792 -2.63769,-1.44519 -4.41828,-1.47389 -113.8916,-1.83518 l -111.212016,-0.36704 -5.872581,-2.06111 c -18.238594,-6.40121 -31.389956,-20.67187 -36.167055,-39.24518 -1.170028,-4.54906 -1.270654,-11.85808 -1.270654,-92.29495 0,-99.034595 -0.362722,-92.715802 6.060038,-105.568674 2.782894,-5.568973 4.531568,-7.901032 10.033256,-13.380512 7.526794,-7.496412 14.347874,-11.54376 24.322245,-14.431822 l 5.831042,-1.688368 H 199.9603 c 139.19928,0 126.53385,-0.539851 139.76191,5.957218 15.86855,7.79397 27.10661,23.6472 29.43503,41.52322 0.5517,4.235458 0.73085,44.573658 0.58466,131.633308 l -0.2108,125.52643 -1.94603,3.67037 c -1.07033,2.0187 -2.72199,4.37892 -3.67037,5.24495 -2.42388,2.2134 -6.64313,4.65903 -8.04346,4.66228 -0.64934,10e-4 -13.15233,-10.32015 -27.78442,-22.93702 z M 205.54917,235.59999 c 9.26206,-1.72858 11.01144,-3.13535 38.12892,-30.66177 13.81173,-14.02 26.42747,-27.42759 28.03499,-29.79464 6.58047,-9.68961 9.58191,-19.5104 9.56558,-31.2988 -0.0135,-9.77952 -1.48606,-16.03889 -5.87149,-24.95847 -4.59907,-9.35413 -13.67447,-18.67252 -22.7502,-23.35936 -15.27368,-7.887549 -33.49841,-8.140139 -48.31677,-0.669659 l -4.95634,2.498669 -4.85029,-2.457443 c -25.75349,-13.048238 -58.52907,-1.979395 -71.40864,24.115853 -4.03829,8.18194 -5.11181,12.50176 -5.53213,22.26115 -0.48231,11.19866 1.16065,18.76861 6.18472,28.49613 3.284,6.35843 4.63651,7.9056 27.14115,31.04743 13.0267,13.39553 25.20738,25.69565 27.06819,27.3336 7.55447,6.64972 17.47428,9.33004 27.56231,7.44731 z"
   id="path1026"
   inkscape:connector-curvature="0" /><path
   style="fill:#63a375;fill-opacity:1;stroke:#63a375;stroke-width:3.78712177;stroke-linecap:round;stroke-linejoin:bevel;stroke-miterlimit:4;stroke-dasharray:none;stroke-opacity:1"
   d="m 243.01398,457.04434 c -0.8875,-0.9447 -1.93607,-2.84193 -2.33017,-4.21607 -0.43979,-1.53347 -0.71654,-25.67817 -0.71654,-62.51373 v -60.01529 l 23.3068,0.0192 23.30681,0.0192 27.16069,23.52352 c 14.93838,12.93795 28.48202,24.15335 30.09698,24.92313 6.18802,2.94956 17.98963,1.25257 28.96415,-4.16483 11.4967,-5.67517 20.22624,-15.61042 24.85865,-28.29208 l 1.96673,-5.38416 0.21005,-45.32899 0.21005,-45.32899 h 15.23477 c 16.6775,0 20.9295,0.655 27.55744,4.24508 5.58359,3.0244 10.56205,8.44135 13.59533,14.79277 l 2.65225,5.55359 0.22041,63.13025 c 0.24681,70.68789 0.40316,68.2744 -4.96055,76.57309 -3.40774,5.27244 -7.81931,9.09544 -13.97871,12.11375 l -4.77148,2.33818 -75.24245,0.36704 c -71.68717,0.34969 -75.36134,0.43181 -77.75845,1.73787 -1.3838,0.75397 -10.37839,7.27804 -19.98797,14.49794 -9.60958,7.2199 -17.58653,13.1271 -17.72656,13.1271 -0.14002,0 -0.98073,-0.77294 -1.86823,-1.71764 z"
   id="path1028"
   inkscape:connector-curvature="0" /><path
   style="fill:#ffffff;fill-opacity:1;stroke:#d57a66;stroke-width:7.57424355;stroke-linecap:round;stroke-linejoin:bevel;stroke-miterlimit:4;stroke-dasharray:none;stroke-opacity:1"
   d="m 339.0826,336.68569 c -8.40825,-7.06545 -21.09889,-17.80127 -28.20144,-23.85737 L 297.96742,301.81723 184.79744,301.08316 71.627476,300.34909 62.080324,295.82454 C 50.381914,290.28047 40.151175,280.3236 34.657191,269.13548 l -4.137788,-8.42632 V 164.54563 68.382108 l 5.031526,-9.280045 C 41.446747,48.227937 50.793097,39.400738 62.08453,34.042292 l 8.0748,-3.831966 H 200.0902 330.02107 l 8.79014,4.315787 c 11.19634,5.497191 21.03681,15.337658 26.534,26.534006 l 4.31579,8.790134 0.39715,134.110887 0.39715,134.11087 -5.72997,5.72998 c -3.15149,3.15148 -6.7706,5.72997 -8.04249,5.72997 -1.27188,0 -9.192,-5.78082 -17.60024,-12.84627 z M 211.10129,232.28347 c 6.06999,-2.75836 53.5224,-49.42624 60.10062,-59.10697 8.69553,-12.79663 10.81427,-33.75404 4.95922,-49.05421 -4.18603,-10.93881 -15.12558,-22.87318 -25.71599,-28.054585 -12.32439,-6.029762 -28.77649,-6.6072 -41.63884,-1.461448 l -9.50907,3.804227 -9.42199,-3.805707 c -12.65334,-5.110914 -28.84942,-4.53092 -41.4493,1.484332 -10.87055,5.189661 -21.9695,17.258781 -26.16717,28.454471 -4.39145,11.71254 -3.69363,31.52274 1.48446,42.14136 5.31657,10.90258 52.13051,59.63485 62.02289,64.56443 8.93945,4.45472 17.07694,4.78686 25.33517,1.0341 z"
   id="path829"
   inkscape:connector-curvature="0" /><path
   style="fill:#ffffff;fill-opacity:1;stroke:#d57a66;stroke-width:7.57424355;stroke-linecap:round;stroke-linejoin:bevel;stroke-miterlimit:4;stroke-dasharray:none;stroke-opacity:1"
   d="m 240.88289,456.33954 c -1.45463,-2.54666 -1.88683,-17.42774 -1.88683,-64.96543 V 329.712 l 24.01585,-0.40417 24.01586,-0.40416 14.88999,12.95589 c 8.1895,7.12574 21.43583,18.45606 29.43628,25.17849 l 14.54628,12.22259 8.37649,-0.75956 c 17.00406,-1.54187 32.30631,-12.38982 39.82875,-28.23505 l 4.18196,-8.80887 0.001,-45.99051 10e-4,-45.99052 20.43398,0.47801 c 20.03594,0.46869 20.55718,0.56468 26.75892,4.92784 3.47871,2.44742 8.14313,7.40241 10.36536,11.0111 l 4.04042,6.56124 0.20579,66.06655 c 0.14943,47.97122 -0.27161,67.27111 -1.53716,70.46448 -2.79444,7.05107 -8.51237,13.61992 -15.1716,17.42936 l -6.18986,3.54095 -76.55116,0.73939 -76.55117,0.7394 -19.19137,14.10421 c -10.55525,7.75731 -19.85307,14.10421 -20.66181,14.10421 -0.80875,0 -2.31953,-1.4865 -3.35729,-3.30333 z"
   id="path831"
   inkscape:connector-curvature="0" /><path
   style="fill:#ffffff;fill-opacity:1;stroke:none;stroke-width:1.89356089;stroke-linecap:round;stroke-linejoin:bevel;stroke-miterlimit:4;stroke-dasharray:none;stroke-opacity:1"
   d="m 181.29253,188.27453 c -30.93472,-31.50013 -29.19869,-29.63899 -30.91389,-33.14183 -0.83568,-1.70665 -1.77817,-4.094 -2.09442,-5.30522 -0.76299,-2.92221 -0.75753,-9.22346 0.0105,-12.1122 4.02291,-15.13113 20.43889,-22.43059 33.80547,-15.03178 1.22853,0.68002 3.65664,2.55795 5.39581,4.17316 4.68817,4.35403 8.19383,5.81532 13.0571,5.44267 3.99185,-0.30587 6.2869,-1.41067 9.79509,-4.71517 5.24602,-4.94142 8.91247,-6.84539 14.75554,-7.66244 8.63197,-1.20703 17.66313,3.29153 22.4438,11.1796 4.4706,7.37646 4.71465,16.39139 0.65598,24.2317 -1.74566,3.37219 -1.1734,2.75959 -29.56868,31.65348 -13.48301,13.71977 -18.71159,18.81402 -19.31012,18.81402 -0.59793,0 -5.49399,-4.75863 -18.03218,-17.52599 z"
   id="path853"
   inkscape:connector-curvature="0" /><path
   style="fill:#ffffff;fill-opacity:1;stroke:none;stroke-width:1.89356089;stroke-linecap:round;stroke-linejoin:bevel;stroke-miterlimit:4;stroke-dasharray:none;stroke-opacity:1"
   d="m 180.18042,187.17343 c -27.46285,-27.93112 -28.01072,-28.51482 -29.54162,-31.47337 -1.74524,-3.3728 -2.47594,-5.70393 -2.85923,-9.12178 -1.59402,-14.21385 8.92496,-26.60353 22.7275,-26.76937 6.48861,-0.078 11.28756,1.8594 16.68346,6.73523 3.93384,3.55468 5.50739,4.52417 8.6511,5.33011 5.31185,1.36176 9.91793,-0.0645 14.78644,-4.57866 5.90639,-5.47648 10.48418,-7.47269 17.13667,-7.47269 4.9171,0 8.63715,1.1161 12.63711,3.79144 4.65083,3.11067 7.79346,7.37732 9.66522,13.12218 0.74616,2.29015 0.91923,3.56546 0.92975,6.85134 0.0155,4.8467 -0.63424,7.57849 -2.78966,11.72841 -1.79559,3.45713 -2.10812,3.79253 -29.00002,31.12308 -14.02737,14.25618 -19.26947,19.36117 -19.88117,19.36117 -0.61145,0 -5.66509,-4.91679 -19.14555,-18.62709 z"
   id="path855"
   inkscape:connector-curvature="0" /><path
   style="fill:#d57a66;fill-opacity:1;stroke:none;stroke-width:1.89356089;stroke-linecap:round;stroke-linejoin:bevel;stroke-miterlimit:4;stroke-dasharray:none;stroke-opacity:1"
   d="m 179.80095,186.80639 c -28.61626,-29.09595 -27.701,-28.10382 -29.61371,-32.10107 -2.03032,-4.24303 -2.54959,-6.4736 -2.54275,-10.92241 0.007,-4.26402 0.72811,-7.29562 2.66714,-11.20614 3.84927,-7.76296 11.63633,-12.68934 20.19544,-12.77638 6.5719,-0.0668 11.33597,1.86846 16.84959,6.84472 5.32891,4.80955 9.46017,6.37724 14.38974,5.46049 3.34193,-0.6215 5.61722,-1.88507 9.20147,-5.11 1.74866,-1.57337 4.07057,-3.39939 5.1598,-4.05782 4.23772,-2.56168 9.65747,-3.70799 14.40763,-3.0473 5.57992,0.77609 9.52485,2.77237 13.66071,6.91283 2.12012,2.12247 2.99702,3.36145 4.28629,6.0561 2.07227,4.33117 2.58463,6.55427 2.55718,11.09548 -0.025,4.13812 -0.72661,7.27975 -2.36167,10.57523 -2.05647,4.14484 -1.29403,3.3171 -28.71577,31.17516 -14.69654,14.93037 -19.99636,20.09524 -20.62031,20.09524 -0.62356,0 -5.64987,-4.8907 -19.52078,-18.99413 z"
   id="path857"
   inkscape:connector-curvature="0" /><path
   style="fill:#d57a66;fill-opacity:1;stroke:none;stroke-width:0.47339022;stroke-linecap:round;stroke-linejoin:bevel;stroke-miterlimit:4;stroke-dasharray:none;stroke-opacity:1"
   d=""
   id="path859"
   inkscape:connector-curvature="0" /><path
   style="fill:#d57a66;fill-opacity:1;stroke:none;stroke-width:0.47339022;stroke-linecap:round;stroke-linejoin:bevel;stroke-miterlimit:4;stroke-dasharray:none;stroke-opacity:1"
   d=""
   id="path861"
   inkscape:connector-curvature="0" /><path
   style="fill:#d57a66;fill-opacity:1;stroke:none;stroke-width:0.47339022;stroke-linecap:round;stroke-linejoin:bevel;stroke-miterlimit:4;stroke-dasharray:none;stroke-opacity:1"
   d=""
   id="path863"
   inkscape:connector-curvature="0" /><path
   style="fill:#d57a66;fill-opacity:1;stroke:none;stroke-width:0.23669511;stroke-linecap:round;stroke-linejoin:bevel;stroke-miterlimit:4;stroke-dasharray:none;stroke-opacity:1"
   d=""
   id="path865"
   inkscape:connector-curvature="0" /><path
   style="fill:#d57a66;fill-opacity:1;stroke:none;stroke-width:0.04184218;stroke-linecap:round;stroke-linejoin:bevel;stroke-miterlimit:4;stroke-dasharray:none;stroke-opacity:1"
   d="m 153.65596,160.30914 c -1.19677,-1.33241 -2.22235,-2.76306 -3.11195,-4.34111 -0.32334,-0.57356 -0.71464,-1.34976 -0.98741,-1.95867 -0.0821,-0.18335 -0.28189,-0.64955 -0.28189,-0.6579 0,-0.004 0.0635,-0.007 0.14105,-0.007 h 0.14105 l 0.0122,0.0304 c 0.0901,0.22482 0.81742,1.76997 1.12138,2.38244 0.33014,0.66525 0.62265,1.1613 1.0091,1.7113 0.5182,0.73751 1.24703,1.62625 2.27162,2.77004 0.11404,0.12731 0.21008,0.23589 0.21341,0.24129 0.005,0.008 -0.0365,0.01 -0.1802,0.01 h -0.18627 z"
   id="path867"
   inkscape:connector-curvature="0" /><path
   style="fill:#d57a66;fill-opacity:1;stroke:none;stroke-width:0.02015256;stroke-linecap:round;stroke-linejoin:bevel;stroke-miterlimit:4;stroke-dasharray:none;stroke-opacity:1"
   d=""
   id="path869"
   inkscape:connector-curvature="0" /><path
   style="fill:#d57a66;fill-opacity:1;stroke:none;stroke-width:0.02015256;stroke-linecap:round;stroke-linejoin:bevel;stroke-miterlimit:4;stroke-dasharray:none;stroke-opacity:1"
   d="m 145.31617,154.96751 v -1.72071 h 1.95418 1.95418 l 0.0269,0.0654 c 0.0793,0.19322 0.28255,0.66537 0.2893,0.67212 0.009,0.009 6.3e-4,-0.0141 -0.0326,-0.0895 -0.0481,-0.10925 -0.14404,-0.3323 -0.19376,-0.45047 -0.0266,-0.0633 -0.0363,-0.0903 -0.033,-0.0924 0.006,-0.004 0.17085,-0.009 0.22952,-0.007 l 0.0443,10e-4 0.0362,0.084 c 0.0807,0.18699 0.31688,0.69651 0.59494,1.2832 0.51587,1.08848 0.71035,1.47207 0.97884,1.93067 l 0.0257,0.0439 -0.11217,-1.2e-4 -0.11217,-1.2e-4 -0.0624,-0.10437 c -0.30357,-0.50788 -0.5027,-0.86608 -0.78475,-1.41158 -0.0207,-0.0401 -0.0404,-0.0739 -0.0437,-0.0751 -0.003,-0.001 0.007,0.0234 0.026,0.0592 0.0176,0.0338 0.0539,0.10365 0.0807,0.15521 0.1491,0.28655 0.32787,0.61228 0.49416,0.90039 0.0754,0.13058 0.21811,0.37249 0.25534,0.43272 0.0136,0.0221 0.0248,0.041 0.0248,0.042 0,0.001 -1.26914,0.002 -2.82031,0.002 h -2.82031 z m 4.66817,-0.0641 c -0.10049,-0.20093 -0.17232,-0.3485 -0.25875,-0.53152 -0.0299,-0.0633 -0.0551,-0.1159 -0.0561,-0.11687 -0.0132,-0.0132 0.0466,0.11767 0.18108,0.39645 0.065,0.13464 0.21086,0.42719 0.21651,0.43416 0.017,0.021 -0.001,-0.0196 -0.0827,-0.18222 z m -0.31661,-0.65461 c 0,-0.005 -0.0216,-0.045 -0.0242,-0.045 -0.002,0 -0.003,8.4e-4 -0.003,0.002 0,0.005 0.0216,0.045 0.0242,0.045 0.002,0 0.003,-8.4e-4 0.003,-0.002 z m -0.0234,-0.0508 c 0,-0.005 -0.0176,-0.0372 -0.0203,-0.0372 -0.005,0 -0.004,0.002 0.005,0.0214 0.007,0.0148 0.0148,0.023 0.0148,0.0158 z m -0.0234,-0.0508 c 0,-0.005 -0.0176,-0.0372 -0.0203,-0.0372 -0.005,0 -0.004,0.002 0.005,0.0214 0.007,0.0148 0.0148,0.023 0.0148,0.0158 z m -0.0195,-0.0429 c 0,-0.005 -0.0136,-0.0294 -0.0163,-0.0294 -0.004,0 -0.004,0.002 0.003,0.0174 0.006,0.0116 0.0129,0.0185 0.0129,0.012 z m -0.0195,-0.043 c 0,-0.005 -0.0136,-0.0294 -0.0163,-0.0294 -0.004,0 -0.004,0.002 0.003,0.0174 0.006,0.0116 0.0129,0.0185 0.0129,0.012 z m -0.0195,-0.0429 c 0,-0.005 -0.01,-0.0217 -0.0123,-0.0217 -0.004,0 -0.004,0.002 0.001,0.0135 0.004,0.008 0.0111,0.0138 0.0111,0.008 z"
   id="path871"
   inkscape:connector-curvature="0" /><path
   style="fill:#d57a66;fill-opacity:1;stroke:none;stroke-width:0.02015256;stroke-linecap:round;stroke-linejoin:bevel;stroke-miterlimit:4;stroke-dasharray:none;stroke-opacity:1"
   d="m 145.31617,154.96751 v -1.72071 h 1.95427 1.95428 l 0.0424,0.10254 c 0.0782,0.18916 0.26811,0.62955 0.27398,0.63542 0.007,0.007 0.001,-0.0109 -0.0223,-0.0642 -0.051,-0.11623 -0.17196,-0.39789 -0.2071,-0.482 -0.0248,-0.0593 -0.0336,-0.0845 -0.0303,-0.0865 0.007,-0.004 0.14207,-0.008 0.21398,-0.007 l 0.0601,0.001 0.0321,0.0742 c 0.17962,0.41557 0.94915,2.04127 1.17876,2.49024 0.14216,0.27796 0.29083,0.55083 0.40438,0.74218 l 0.0197,0.0332 -0.11172,0.001 c -0.0868,8e-4 -0.11239,-7e-5 -0.11473,-0.004 -0.0405,-0.0663 -0.20939,-0.35168 -0.26762,-0.45221 -0.18656,-0.32207 -0.33096,-0.58551 -0.5128,-0.93555 -0.0936,-0.18015 -0.10567,-0.20242 -0.10836,-0.19972 -0.002,0.002 0.0784,0.16097 0.16383,0.32259 0.20808,0.39349 0.43822,0.80126 0.66659,1.18109 0.0282,0.0469 0.0512,0.086 0.0512,0.0869 0,9.4e-4 -1.26914,0.002 -2.82031,0.002 h -2.82031 z m 4.62979,-0.14158 c -0.11319,-0.22829 -0.22645,-0.46252 -0.26355,-0.54503 -0.0124,-0.0276 -0.0201,-0.0338 -0.01,-0.008 0.0305,0.0763 0.37821,0.79265 0.39443,0.81266 0.0159,0.0196 -0.007,-0.0302 -0.12119,-0.25984 z m -0.28355,-0.58791 c -0.0113,-0.0264 -0.0156,-0.0342 -0.0188,-0.0342 -0.003,0 4.6e-4,0.0103 0.0125,0.0361 0.007,0.0152 0.0128,0.0134 0.006,-0.002 z m -0.0243,-0.0527 c -0.003,-0.008 -0.007,-0.0168 -0.008,-0.0195 -0.002,-0.005 -0.009,-0.007 -0.009,-0.003 0,10e-4 0.004,0.01 0.009,0.0195 0.0103,0.0213 0.0176,0.0238 0.009,0.003 z m -0.0234,-0.0508 c -0.003,-0.008 -0.007,-0.0169 -0.008,-0.0195 -0.001,-0.003 -0.004,-0.005 -0.006,-0.005 -0.002,0 -7.2e-4,0.007 0.003,0.0146 0.003,0.008 0.007,0.0169 0.008,0.0195 0.001,0.003 0.004,0.005 0.006,0.005 0.002,0 7.2e-4,-0.007 -0.003,-0.0146 z m -0.0193,-0.0428 c -0.007,-0.0156 -0.009,-0.019 -0.0113,-0.0165 -0.003,0.003 0.01,0.0309 0.0138,0.0309 0.002,0 8.2e-4,-0.006 -0.002,-0.0144 z m -0.0136,-0.0303 c 0,-0.001 -0.003,-0.008 -0.007,-0.0156 -0.009,-0.0182 -0.0147,-0.0179 -0.007,3.4e-4 0.003,0.008 0.006,0.0148 0.006,0.0156 0,8.2e-4 0.002,0.001 0.004,0.001 0.002,0 0.004,-8.2e-4 0.004,-0.002 z m -0.0195,-0.0429 c 0,-0.005 -0.01,-0.0217 -0.0123,-0.0217 -0.004,0 -0.004,0.002 0.001,0.0135 0.004,0.008 0.0111,0.0138 0.0111,0.008 z"
   id="path873"
   inkscape:connector-curvature="0" /><path
   style="fill:#d57a66;fill-opacity:1;stroke:none;stroke-width:0.02015256;stroke-linecap:round;stroke-linejoin:bevel;stroke-miterlimit:4;stroke-dasharray:none;stroke-opacity:1"
   d="m 145.31617,154.96751 v -1.72071 h 1.95443 1.95443 l 0.0384,0.0928 c 0.10172,0.24599 0.27641,0.64845 0.2786,0.64186 7.1e-4,-0.002 -0.0245,-0.0632 -0.0561,-0.13584 -0.0755,-0.17362 -0.157,-0.36428 -0.18578,-0.43447 -0.0162,-0.0394 -0.0218,-0.0572 -0.0186,-0.0592 0.007,-0.004 0.13561,-0.008 0.21024,-0.007 l 0.0643,10e-4 0.0133,0.0312 c 0.16253,0.38099 0.82739,1.79017 1.13805,2.41211 0.1847,0.36976 0.31071,0.60363 0.48252,0.89551 9.4e-4,0.002 -0.049,0.003 -0.11093,0.003 h -0.11266 l -0.0729,-0.12207 c -0.30185,-0.50565 -0.45846,-0.78724 -0.76702,-1.37914 -0.0255,-0.049 -0.0471,-0.0873 -0.0478,-0.085 -0.002,0.005 0.0634,0.13215 0.16834,0.33034 0.2045,0.38642 0.41855,0.76598 0.64487,1.14352 0.0357,0.0596 0.065,0.10925 0.065,0.11035 0,0.001 -1.26914,0.002 -2.82031,0.002 h -2.82031 z m 4.75239,0.11035 c -0.003,-0.007 -0.0643,-0.13223 -0.13622,-0.27832 -0.11565,-0.23505 -0.20747,-0.42524 -0.24777,-0.51321 -0.007,-0.0159 -0.0141,-0.0279 -0.0152,-0.0268 -0.005,0.005 0.34735,0.73941 0.39112,0.8141 0.0117,0.02 0.0159,0.0222 0.008,0.004 z m -0.40901,-0.8457 c -0.004,-0.0102 -0.0105,-0.0212 -0.0138,-0.0244 -0.006,-0.006 0.007,0.029 0.0148,0.038 0.007,0.009 0.007,0.005 -0.001,-0.0135 z m -0.0217,-0.0469 c -0.003,-0.008 -0.009,-0.0173 -0.0119,-0.0205 -0.005,-0.005 -0.005,-0.004 4.3e-4,0.009 0.006,0.0141 0.0131,0.0257 0.0162,0.0257 7e-4,0 -0.001,-0.007 -0.005,-0.0146 z m -0.0256,-0.0557 c -0.004,-0.0108 -0.01,-0.0195 -0.0113,-0.0195 -0.002,0 4.8e-4,0.009 0.005,0.0195 0.004,0.0107 0.01,0.0195 0.0113,0.0195 0.002,0 -4.8e-4,-0.009 -0.005,-0.0195 z m -0.0157,-0.0342 c -0.002,-0.006 -0.007,-0.0134 -0.01,-0.0166 -0.005,-0.005 -0.005,-0.004 -10e-4,0.006 0.004,0.011 0.011,0.0216 0.0141,0.0216 7.6e-4,0 -6.6e-4,-0.005 -0.003,-0.0107 z m -0.0192,-0.0437 c -0.002,-0.006 -0.007,-0.0137 -0.01,-0.0164 -0.005,-0.004 -0.005,-0.003 3.1e-4,0.01 0.003,0.008 0.006,0.0156 0.006,0.0164 0,8.2e-4 0.002,0.001 0.004,0.001 0.002,0 0.002,-0.004 -3.1e-4,-0.0115 z m -0.0179,-0.0392 c -0.001,-0.004 -0.004,-0.01 -0.008,-0.0123 -0.005,-0.004 -0.005,-0.003 -0.003,0.003 0.003,0.007 0.009,0.0172 0.0113,0.0172 6.1e-4,0 2.1e-4,-0.003 -9e-4,-0.008 z"
   id="path875"
   inkscape:connector-curvature="0" /><path
   style="fill:#d57a66;fill-opacity:1;stroke:none;stroke-width:0.02015256;stroke-linecap:round;stroke-linejoin:bevel;stroke-miterlimit:4;stroke-dasharray:none;stroke-opacity:1"
   d="m 145.31617,154.96751 v -1.72071 h 1.95447 1.95447 l 0.0344,0.083 c 0.0984,0.2373 0.27512,0.64512 0.27817,0.64207 9.3e-4,-9.4e-4 -0.0343,-0.0849 -0.0782,-0.18663 -0.14172,-0.32786 -0.18381,-0.42894 -0.18015,-0.43261 0.007,-0.007 0.27903,-0.0115 0.27903,-0.004 0,0.0101 0.12245,0.28215 0.27252,0.60546 0.2731,0.58835 0.78373,1.65988 0.78866,1.65495 7.4e-4,-7.3e-4 -0.02,-0.0451 -0.046,-0.0986 -0.0973,-0.19985 -0.52078,-1.09028 -0.63708,-1.33951 -0.14845,-0.31813 -0.40519,-0.88457 -0.41511,-0.91582 l -0.003,-0.008 h 1.69166 1.69166 l 9.8e-4,1.72071 9.9e-4,1.7207 -0.85352,-2e-5 -0.85351,-2e-5 -0.0506,-0.0868 c -0.0934,-0.16039 -0.22427,-0.39672 -0.2693,-0.4864 -0.008,-0.0156 -0.0151,-0.0283 -0.0162,-0.0283 -0.007,0 0.15999,0.30653 0.2707,0.49789 0.0311,0.0538 0.0573,0.0991 0.0583,0.10074 9.3e-4,0.002 -0.049,0.003 -0.11087,0.003 h -0.11255 l -0.0545,-0.0908 c -0.28201,-0.46963 -0.47301,-0.81097 -0.73823,-1.31934 -0.0488,-0.0935 -0.0904,-0.17168 -0.0926,-0.17382 -0.008,-0.008 0.01,0.0283 0.0696,0.14386 0.23416,0.45071 0.47243,0.87764 0.73405,1.31528 0.0396,0.0663 0.072,0.12149 0.072,0.12268 0,10e-4 -1.26914,0.002 -2.82031,0.002 h -2.82031 z m 5.51758,1.06445 c -0.014,-0.0279 -0.0263,-0.0508 -0.0274,-0.0508 -0.001,0 0.009,0.0229 0.0235,0.0508 0.014,0.0279 0.0263,0.0508 0.0274,0.0508 0.001,0 -0.01,-0.0229 -0.0235,-0.0508 z m -0.11805,-0.23222 c -0.0467,-0.0933 -0.0854,-0.16912 -0.0862,-0.16839 -0.002,0.002 0.16649,0.33811 0.16905,0.33811 0.001,0 -0.0362,-0.0764 -0.0829,-0.16972 z m -0.67091,-0.77071 c -0.095,-0.19187 -0.26362,-0.53753 -0.31259,-0.64061 -0.0319,-0.0671 -0.0586,-0.12145 -0.0593,-0.12072 -0.001,0.001 0.019,0.0462 0.0632,0.14121 0.0929,0.1998 0.32927,0.67991 0.3329,0.67628 0.001,-0.001 -0.01,-0.0266 -0.0241,-0.0562 z m -0.38906,-0.80343 c -0.0111,-0.0236 -0.014,-0.0207 -0.004,0.004 0.004,0.0103 0.009,0.0178 0.0101,0.0166 0.001,-10e-4 -0.002,-0.0102 -0.006,-0.0202 z m -0.023,-0.0487 c -0.004,-0.009 -0.009,-0.016 -0.0103,-0.016 -0.001,0 -0.001,0.001 -4.4e-4,0.003 9.2e-4,0.002 0.005,0.01 0.009,0.0177 0.004,0.008 0.008,0.014 0.009,0.0131 9.4e-4,-9.4e-4 -0.002,-0.009 -0.006,-0.0177 z m -0.0219,-0.049 c -0.003,-0.008 -0.007,-0.0138 -0.008,-0.0127 -0.001,0.001 8.1e-4,0.009 0.004,0.0166 0.003,0.008 0.007,0.0138 0.008,0.0127 10e-4,-0.001 -8.1e-4,-0.009 -0.004,-0.0166 z m -0.0189,-0.0399 c -0.007,-0.0129 -0.008,-0.0104 -0.002,0.005 0.002,0.006 0.005,0.01 0.006,0.008 10e-4,-0.001 -5.5e-4,-0.007 -0.004,-0.0132 z m -0.0195,-0.043 c -0.007,-0.0128 -0.008,-0.0104 -0.002,0.005 0.002,0.006 0.005,0.01 0.006,0.008 0.001,-0.001 -5.6e-4,-0.007 -0.004,-0.0132 z m -0.013,-0.0324 c -0.001,-0.004 -0.004,-0.01 -0.008,-0.0123 -0.005,-0.004 -0.005,-0.003 -0.003,0.003 0.003,0.007 0.009,0.0172 0.0113,0.0172 6.1e-4,0 2.1e-4,-0.003 -9e-4,-0.008 z"
   id="path877"
   inkscape:connector-curvature="0" /><path
   style="fill:#d57a66;fill-opacity:1;stroke:none;stroke-width:0.02015256;stroke-linecap:round;stroke-linejoin:bevel;stroke-miterlimit:4;stroke-dasharray:none;stroke-opacity:1"
   d="m 145.31617,154.96751 v -1.72071 h 1.95471 1.95472 l 0.0125,0.0303 c 0.10553,0.25526 0.29287,0.68981 0.29603,0.68665 7.9e-4,-8e-4 -0.0337,-0.0829 -0.0767,-0.18243 -0.14571,-0.33743 -0.18197,-0.42477 -0.17797,-0.42877 0.007,-0.007 0.27891,-0.0114 0.27891,-0.005 0,0.0159 0.43899,0.97292 0.44399,0.96792 7.6e-4,-7.6e-4 -0.009,-0.0241 -0.0225,-0.0518 -0.12144,-0.25616 -0.46055,-1.00266 -0.46055,-1.01383 0,-0.002 0.74134,-0.003 1.6914,-0.003 h 1.6914 l 9.8e-4,1.72071 9.9e-4,1.7207 h -0.85367 -0.85368 l -0.019,-0.0322 c -0.0105,-0.0177 -0.0521,-0.0902 -0.0925,-0.16113 -0.0404,-0.0709 -0.0753,-0.13154 -0.0776,-0.13476 -0.0173,-0.025 0.0461,0.0893 0.12992,0.23437 0.0279,0.0483 0.0515,0.0892 0.0524,0.0908 9.1e-4,0.002 -0.0492,0.003 -0.11143,0.003 h -0.11308 l -0.0878,-0.14746 c -0.28382,-0.47663 -0.45545,-0.78466 -0.71772,-1.28809 -0.0634,-0.12177 -0.0889,-0.16777 -0.0736,-0.13281 0.009,0.0198 0.11048,0.21698 0.16638,0.32227 0.20405,0.38434 0.3936,0.72073 0.62447,1.10824 0.0438,0.0735 0.0796,0.13459 0.0796,0.13575 0,0.001 -1.26914,0.002 -2.82031,0.002 h -2.82031 z m 5.67969,1.36914 c -0.004,-0.009 -0.009,-0.0156 -0.01,-0.0156 -0.001,0 0.002,0.007 0.006,0.0156 0.004,0.009 0.009,0.0156 0.01,0.0156 0.001,0 -0.002,-0.007 -0.006,-0.0156 z m -0.0215,-0.0391 c -0.005,-0.0108 -0.0108,-0.0195 -0.0118,-0.0195 -0.001,0 0.002,0.009 0.008,0.0195 0.005,0.0107 0.0108,0.0195 0.0118,0.0195 0.001,0 -0.003,-0.009 -0.008,-0.0195 z m -0.0254,-0.0469 c -0.004,-0.009 -0.009,-0.0156 -0.01,-0.0156 -0.001,0 0.002,0.007 0.006,0.0156 0.004,0.009 0.009,0.0156 0.01,0.0156 0.001,0 -0.002,-0.007 -0.006,-0.0156 z m -0.0293,-0.0547 c -0.005,-0.0107 -0.0108,-0.0195 -0.0119,-0.0195 -0.001,0 0.002,0.009 0.008,0.0195 0.005,0.0108 0.0108,0.0195 0.0118,0.0195 0.001,0 -0.002,-0.009 -0.008,-0.0195 z m -0.0351,-0.0664 c -0.008,-0.015 -0.0147,-0.0273 -0.0157,-0.0273 -0.001,0 0.004,0.0123 0.0118,0.0273 0.008,0.015 0.0147,0.0273 0.0157,0.0273 0.001,0 -0.004,-0.0123 -0.0118,-0.0273 z m -0.0488,-0.0937 c -0.009,-0.0172 -0.0166,-0.0312 -0.0177,-0.0312 -0.001,0 0.005,0.0141 0.0138,0.0312 0.009,0.0172 0.0166,0.0312 0.0177,0.0312 0.001,0 -0.005,-0.0141 -0.0138,-0.0312 z m -0.11805,-0.23223 c -0.037,-0.074 -0.0678,-0.13396 -0.0686,-0.13323 -0.002,0.002 0.13132,0.2678 0.13389,0.2678 0.001,0 -0.0283,-0.0606 -0.0653,-0.13457 z m -0.13541,-0.2742 c -0.0108,-0.0212 -0.0197,-0.0372 -0.0198,-0.0356 -3e-4,0.004 0.0363,0.0771 0.038,0.0755 7.6e-4,-7.6e-4 -0.007,-0.0187 -0.0182,-0.0399 z m -0.0567,-0.11718 c -0.014,-0.0276 -0.0255,-0.0489 -0.0256,-0.0473 -3e-4,0.004 0.0481,0.10053 0.0497,0.0989 7.5e-4,-7.6e-4 -0.0101,-0.024 -0.0241,-0.0516 z m -0.21954,-0.46057 c -0.1064,-0.22333 -0.21735,-0.45662 -0.24656,-0.51842 -0.0292,-0.0618 -0.0537,-0.11173 -0.0545,-0.11096 -0.002,0.002 0.18715,0.40163 0.35312,0.74871 0.11485,0.24019 0.13881,0.28931 0.14038,0.28775 5.6e-4,-5.7e-4 -0.086,-0.18375 -0.19243,-0.40708 z m -0.24568,0.11008 c -0.005,-0.0115 -0.0263,-0.055 -0.0472,-0.0967 -0.0588,-0.11727 -0.22486,-0.45799 -0.28298,-0.58045 -0.0288,-0.0606 -0.0529,-0.10964 -0.0536,-0.10893 -0.006,0.006 0.38327,0.80703 0.39165,0.80703 7.8e-4,0 -0.003,-0.009 -0.008,-0.021 z m -0.40586,-0.83704 c -0.005,-0.0104 -0.01,-0.0178 -0.01,-0.0165 -3.7e-4,0.005 0.0162,0.0392 0.018,0.0373 0.001,-0.001 -0.003,-0.0104 -0.008,-0.0208 z m -0.0215,-0.0469 c -0.004,-0.008 -0.008,-0.0138 -0.008,-0.0122 -2.7e-4,0.004 0.0128,0.0305 0.0145,0.0288 8.4e-4,-8.4e-4 -0.002,-0.008 -0.006,-0.0165 z m -0.0234,-0.0508 c -0.004,-0.008 -0.008,-0.0139 -0.008,-0.0126 -3.7e-4,0.005 0.0121,0.0315 0.014,0.0296 0.001,-0.001 -0.002,-0.009 -0.006,-0.017 z m -0.0176,-0.0391 c -0.003,-0.006 -0.006,-0.01 -0.006,-0.008 -2.7e-4,0.005 0.009,0.0228 0.0105,0.0211 8.9e-4,-8.9e-4 -0.001,-0.007 -0.004,-0.0127 z m -0.0195,-0.043 c -0.007,-0.0128 -0.008,-0.0104 -0.002,0.005 0.002,0.006 0.005,0.01 0.006,0.008 0.001,-0.001 -5.6e-4,-0.007 -0.004,-0.0132 z m -0.0176,-0.0391 c -0.005,-0.008 -0.006,-0.005 -0.002,0.004 0.001,0.003 0.003,0.006 0.004,0.005 0.001,-0.001 -4e-5,-0.005 -0.002,-0.009 z"
   id="path879"
   inkscape:connector-curvature="0" /><path
   style="fill:#d57a66;fill-opacity:1;stroke:none;stroke-width:0.02015256;stroke-linecap:round;stroke-linejoin:bevel;stroke-miterlimit:4;stroke-dasharray:none;stroke-opacity:1"
   d="m 145.31617,154.96751 v -1.72071 h 1.95471 1.95472 l 0.0125,0.0303 c 0.10553,0.25526 0.29287,0.68981 0.29603,0.68665 7.9e-4,-8e-4 -0.0337,-0.0829 -0.0767,-0.18243 -0.14571,-0.33743 -0.18197,-0.42477 -0.17797,-0.42877 0.007,-0.007 0.27891,-0.0114 0.27891,-0.005 0,0.0159 0.43899,0.97292 0.44399,0.96792 7.6e-4,-7.6e-4 -0.009,-0.0241 -0.0225,-0.0518 -0.12144,-0.25616 -0.46055,-1.00266 -0.46055,-1.01383 0,-0.002 0.74134,-0.003 1.6914,-0.003 h 1.6914 l 9.8e-4,1.72071 9.9e-4,1.7207 h -0.85367 -0.85368 l -0.019,-0.0322 c -0.0105,-0.0177 -0.0521,-0.0902 -0.0925,-0.16113 -0.0404,-0.0709 -0.0753,-0.13154 -0.0776,-0.13476 -0.0173,-0.025 0.0461,0.0893 0.12992,0.23437 0.0279,0.0483 0.0515,0.0892 0.0524,0.0908 9.1e-4,0.002 -0.0492,0.003 -0.11143,0.003 h -0.11308 l -0.0878,-0.14746 c -0.28382,-0.47663 -0.45545,-0.78466 -0.71772,-1.28809 -0.0634,-0.12177 -0.0889,-0.16777 -0.0736,-0.13281 0.009,0.0198 0.11048,0.21698 0.16638,0.32227 0.20405,0.38434 0.3936,0.72073 0.62447,1.10824 0.0438,0.0735 0.0796,0.13459 0.0796,0.13575 0,0.001 -1.26914,0.002 -2.82031,0.002 h -2.82031 z m 5.67969,1.36914 c -0.004,-0.009 -0.009,-0.0156 -0.01,-0.0156 -0.001,0 0.002,0.007 0.006,0.0156 0.004,0.009 0.009,0.0156 0.01,0.0156 0.001,0 -0.002,-0.007 -0.006,-0.0156 z m -0.0215,-0.0391 c -0.005,-0.0108 -0.0108,-0.0195 -0.0118,-0.0195 -0.001,0 0.002,0.009 0.008,0.0195 0.005,0.0107 0.0108,0.0195 0.0118,0.0195 0.001,0 -0.003,-0.009 -0.008,-0.0195 z m -0.0254,-0.0469 c -0.004,-0.009 -0.009,-0.0156 -0.01,-0.0156 -0.001,0 0.002,0.007 0.006,0.0156 0.004,0.009 0.009,0.0156 0.01,0.0156 0.001,0 -0.002,-0.007 -0.006,-0.0156 z m -0.0293,-0.0547 c -0.005,-0.0107 -0.0108,-0.0195 -0.0119,-0.0195 -0.001,0 0.002,0.009 0.008,0.0195 0.005,0.0108 0.0108,0.0195 0.0118,0.0195 0.001,0 -0.002,-0.009 -0.008,-0.0195 z m -0.0351,-0.0664 c -0.008,-0.015 -0.0147,-0.0273 -0.0157,-0.0273 -0.001,0 0.004,0.0123 0.0118,0.0273 0.008,0.015 0.0147,0.0273 0.0157,0.0273 0.001,0 -0.004,-0.0123 -0.0118,-0.0273 z m -0.0488,-0.0937 c -0.009,-0.0172 -0.0166,-0.0312 -0.0177,-0.0312 -0.001,0 0.005,0.0141 0.0138,0.0312 0.009,0.0172 0.0166,0.0312 0.0177,0.0312 0.001,0 -0.005,-0.0141 -0.0138,-0.0312 z m -0.11805,-0.23223 c -0.037,-0.074 -0.0678,-0.13396 -0.0686,-0.13323 -0.002,0.002 0.13132,0.2678 0.13389,0.2678 0.001,0 -0.0283,-0.0606 -0.0653,-0.13457 z m -0.13541,-0.2742 c -0.0108,-0.0212 -0.0197,-0.0372 -0.0198,-0.0356 -3e-4,0.004 0.0363,0.0771 0.038,0.0755 7.6e-4,-7.6e-4 -0.007,-0.0187 -0.0182,-0.0399 z m -0.0567,-0.11718 c -0.014,-0.0276 -0.0255,-0.0489 -0.0256,-0.0473 -3e-4,0.004 0.0481,0.10053 0.0497,0.0989 7.5e-4,-7.6e-4 -0.0101,-0.024 -0.0241,-0.0516 z m -0.21954,-0.46057 c -0.1064,-0.22333 -0.21735,-0.45662 -0.24656,-0.51842 -0.0292,-0.0618 -0.0537,-0.11173 -0.0545,-0.11096 -0.002,0.002 0.18715,0.40163 0.35312,0.74871 0.11485,0.24019 0.13881,0.28931 0.14038,0.28775 5.6e-4,-5.7e-4 -0.086,-0.18375 -0.19243,-0.40708 z m -0.24568,0.11008 c -0.005,-0.0115 -0.0263,-0.055 -0.0472,-0.0967 -0.0588,-0.11727 -0.22486,-0.45799 -0.28298,-0.58045 -0.0288,-0.0606 -0.0529,-0.10964 -0.0536,-0.10893 -0.006,0.006 0.38327,0.80703 0.39165,0.80703 7.8e-4,0 -0.003,-0.009 -0.008,-0.021 z m -0.40586,-0.83704 c -0.005,-0.0104 -0.01,-0.0178 -0.01,-0.0165 -3.7e-4,0.005 0.0162,0.0392 0.018,0.0373 0.001,-0.001 -0.003,-0.0104 -0.008,-0.0208 z m -0.0215,-0.0469 c -0.004,-0.008 -0.008,-0.0138 -0.008,-0.0122 -2.7e-4,0.004 0.0128,0.0305 0.0145,0.0288 8.4e-4,-8.4e-4 -0.002,-0.008 -0.006,-0.0165 z m -0.0234,-0.0508 c -0.004,-0.008 -0.008,-0.0139 -0.008,-0.0126 -3.7e-4,0.005 0.0121,0.0315 0.014,0.0296 0.001,-0.001 -0.002,-0.009 -0.006,-0.017 z m -0.0176,-0.0391 c -0.003,-0.006 -0.006,-0.01 -0.006,-0.008 -2.7e-4,0.005 0.009,0.0228 0.0105,0.0211 8.9e-4,-8.9e-4 -0.001,-0.007 -0.004,-0.0127 z m -0.0195,-0.043 c -0.007,-0.0128 -0.008,-0.0104 -0.002,0.005 0.002,0.006 0.005,0.01 0.006,0.008 0.001,-0.001 -5.6e-4,-0.007 -0.004,-0.0132 z m -0.0176,-0.0391 c -0.005,-0.008 -0.006,-0.005 -0.002,0.004 0.001,0.003 0.003,0.006 0.004,0.005 0.001,-0.001 -4e-5,-0.005 -0.002,-0.009 z"
   id="path881"
   inkscape:connector-curvature="0" /><path
   style="fill:#d57a66;fill-opacity:1;stroke:none;stroke-width:0.02015256;stroke-linecap:round;stroke-linejoin:bevel;stroke-miterlimit:4;stroke-dasharray:none;stroke-opacity:1"
   d="m 145.31617,154.9675 v -1.7207 l 1.95526,9.8e-4 1.95527,9.8e-4 0.0597,0.14258 c 0.10747,0.2567 0.21048,0.49369 0.20034,0.46093 -0.001,-0.003 -0.0373,-0.0885 -0.0807,-0.18945 -0.11043,-0.25709 -0.13041,-0.30675 -0.12544,-0.31171 0.003,-0.003 0.0526,-0.005 0.14093,-0.006 0.0752,-9.8e-4 0.13681,-0.002 0.13681,-0.002 0,-3.5e-4 -0.009,-0.0205 -0.0195,-0.0448 -0.0107,-0.0243 -0.0195,-0.0457 -0.0195,-0.0477 0,-0.002 0.70006,-0.004 1.6914,-0.004 h 1.6914 l 9.8e-4,1.72071 9.9e-4,1.7207 h -0.85439 -0.85439 l -0.006,-0.0117 c -0.003,-0.006 -0.007,-0.0117 -0.008,-0.0117 -0.001,0 7.9e-4,0.005 0.004,0.0118 l 0.006,0.0118 -0.11394,-0.001 -0.11393,-0.001 -0.0836,-0.14063 c -0.28604,-0.48101 -0.45441,-0.78292 -0.71019,-1.27343 -0.0403,-0.0773 -0.0751,-0.14239 -0.0773,-0.14454 -0.005,-0.005 0.0837,0.16891 0.15251,0.29883 0.20447,0.38586 0.40515,0.74201 0.64136,1.13829 0.037,0.0621 0.0682,0.11527 0.0693,0.11817 0.002,0.004 -0.45465,0.005 -2.81871,0.005 h -2.82073 z m 5.85742,1.68165 c -0.003,-0.006 -0.007,-0.0117 -0.008,-0.0117 -0.001,0 7.7e-4,0.005 0.004,0.0117 0.003,0.006 0.007,0.0117 0.008,0.0117 0.001,0 -7.8e-4,-0.005 -0.004,-0.0117 z m -0.0137,-0.0234 c -0.002,-0.004 -0.005,-0.008 -0.006,-0.008 -10e-4,0 -7e-5,0.004 0.002,0.008 0.002,0.004 0.005,0.008 0.006,0.008 0.001,0 7e-5,-0.004 -0.002,-0.008 z m -0.0137,-0.0234 c -0.003,-0.006 -0.007,-0.0117 -0.008,-0.0117 -0.001,0 7.8e-4,0.005 0.004,0.0117 0.003,0.006 0.007,0.0117 0.008,0.0117 0.001,0 -7.7e-4,-0.005 -0.004,-0.0117 z m -0.0156,-0.0273 c -0.003,-0.006 -0.007,-0.0117 -0.008,-0.0117 -0.001,0 7.7e-4,0.005 0.004,0.0117 0.003,0.006 0.007,0.0117 0.008,0.0117 0.001,0 -7.8e-4,-0.005 -0.004,-0.0117 z m -0.0137,-0.0234 c -0.002,-0.004 -0.005,-0.008 -0.006,-0.008 -0.001,0 -7e-5,0.004 0.002,0.008 0.002,0.004 0.005,0.008 0.006,0.008 0.001,0 7e-5,-0.004 -0.002,-0.008 z m -0.0137,-0.0234 c -0.003,-0.006 -0.007,-0.0117 -0.008,-0.0117 -0.001,0 7.8e-4,0.005 0.004,0.0117 0.003,0.006 0.007,0.0117 0.008,0.0117 0.001,0 -7.7e-4,-0.005 -0.004,-0.0117 z m -0.0156,-0.0273 c -0.003,-0.006 -0.007,-0.0117 -0.008,-0.0117 -0.001,0 7.7e-4,0.005 0.004,0.0117 0.003,0.006 0.007,0.0117 0.008,0.0117 0.001,0 -7.7e-4,-0.005 -0.004,-0.0117 z m -0.0176,-0.0312 c -0.002,-0.004 -0.005,-0.008 -0.006,-0.008 -10e-4,0 -7e-5,0.004 0.002,0.008 0.002,0.004 0.005,0.008 0.006,0.008 0.001,0 7e-5,-0.004 -0.002,-0.008 z m -0.0156,-0.0273 c -0.002,-0.004 -0.005,-0.008 -0.006,-0.008 -0.001,0 -7e-5,0.004 0.002,0.008 0.002,0.004 0.005,0.008 0.006,0.008 0.001,0 7e-5,-0.004 -0.002,-0.008 z m -0.0195,-0.0352 c -0.002,-0.004 -0.005,-0.008 -0.006,-0.008 -10e-4,0 -7e-5,0.004 0.002,0.008 0.002,0.004 0.005,0.008 0.006,0.008 0.001,0 7e-5,-0.004 -0.002,-0.008 z m -0.0391,-0.0703 c -0.002,-0.004 -0.005,-0.008 -0.006,-0.008 -0.001,0 -7e-5,0.004 0.002,0.008 0.002,0.004 0.005,0.008 0.006,0.008 0.001,0 7e-5,-0.004 -0.002,-0.008 z m -0.0469,-0.0859 c -0.002,-0.004 -0.005,-0.008 -0.006,-0.008 -0.001,0 -7e-5,0.004 0.002,0.008 0.002,0.004 0.005,0.008 0.006,0.008 0.001,0 7e-5,-0.004 -0.002,-0.008 z m -0.0273,-0.0508 c -0.002,-0.004 -0.005,-0.008 -0.006,-0.008 -0.001,0 -7e-5,0.004 0.002,0.008 0.002,0.004 0.005,0.008 0.006,0.008 0.001,0 7e-5,-0.004 -0.002,-0.008 z m -0.0352,-0.0664 c -0.002,-0.004 -0.005,-0.008 -0.006,-0.008 -0.001,0 -7e-5,0.004 0.002,0.008 0.002,0.004 0.005,0.008 0.006,0.008 0.001,0 7e-5,-0.004 -0.002,-0.008 z m -0.0542,-0.1026 c -0.004,-0.004 -0.004,-0.003 -0.002,0.002 0.001,0.004 0.004,0.006 0.005,0.005 10e-4,-0.001 0,-0.004 -0.003,-0.007 z m -0.11943,-0.23685 c -0.006,-0.011 -0.0109,-0.0199 -0.0119,-0.0199 -0.001,0 0.003,0.01 0.009,0.0214 0.006,0.0118 0.0111,0.0207 0.0119,0.0199 8e-4,-8e-4 -0.003,-0.0104 -0.009,-0.0214 z m -0.1892,-0.38576 c -0.004,-0.008 -0.008,-0.0138 -0.008,-0.0122 -2.8e-4,0.004 0.0128,0.0305 0.0145,0.0288 8.5e-4,-8.5e-4 -0.002,-0.008 -0.006,-0.0165 z m -0.0527,-0.1094 c -0.003,-0.006 -0.006,-0.01 -0.006,-0.008 -2.6e-4,0.005 0.009,0.0228 0.0105,0.0211 9e-4,-8.9e-4 -0.001,-0.007 -0.004,-0.0127 z m -0.043,-0.0898 c -0.008,-0.0147 -0.0138,-0.0255 -0.0139,-0.0239 -2.9e-4,0.004 0.0246,0.0537 0.0262,0.0521 7.8e-4,-7.9e-4 -0.005,-0.0135 -0.0123,-0.0282 z m -0.041,-0.0859 c -0.0108,-0.0212 -0.0197,-0.0372 -0.0198,-0.0356 -3e-4,0.004 0.0363,0.0771 0.038,0.0755 7.6e-4,-7.6e-4 -0.007,-0.0187 -0.0182,-0.0399 z m -0.34002,-0.0883 c -0.0103,-0.022 -0.0386,-0.0796 -0.0628,-0.12793 -0.0511,-0.10207 -0.18746,-0.38177 -0.24607,-0.50484 -0.0222,-0.0467 -0.041,-0.0844 -0.0417,-0.0837 -0.004,0.004 0.36113,0.75648 0.36751,0.75648 0.001,0 -0.007,-0.018 -0.017,-0.04 z m 0.29901,0.002 c -0.01,-0.019 -0.0177,-0.0333 -0.0178,-0.0317 -2.9e-4,0.004 0.0324,0.0693 0.0341,0.0677 7.7e-4,-7.7e-4 -0.007,-0.017 -0.0162,-0.036 z m -0.0753,-0.15892 c -0.0315,-0.0659 -0.0579,-0.1192 -0.0586,-0.11847 -7.3e-4,7.3e-4 0.0244,0.0552 0.0559,0.12113 0.0315,0.0659 0.0579,0.1192 0.0586,0.11847 7.3e-4,-7.3e-4 -0.0244,-0.0552 -0.0559,-0.12113 z m -0.077,-0.16139 c -0.01,-0.019 -0.0177,-0.0333 -0.0178,-0.0317 -2.9e-4,0.004 0.0324,0.0693 0.0341,0.0677 7.7e-4,-7.7e-4 -0.007,-0.017 -0.0162,-0.036 z m -0.0371,-0.0781 c -0.009,-0.0169 -0.0158,-0.0294 -0.0159,-0.0278 -2.9e-4,0.004 0.0285,0.0615 0.0301,0.0599 7.8e-4,-7.8e-4 -0.006,-0.0152 -0.0143,-0.0321 z m -0.0371,-0.0781 c -0.008,-0.0147 -0.0138,-0.0255 -0.0139,-0.0239 -2.9e-4,0.004 0.0246,0.0538 0.0262,0.0521 7.9e-4,-7.8e-4 -0.005,-0.0135 -0.0123,-0.0282 z m -0.0351,-0.0742 c -0.005,-0.0104 -0.01,-0.0177 -0.01,-0.0161 -2.8e-4,0.004 0.0167,0.0382 0.0184,0.0365 8.2e-4,-8.2e-4 -0.003,-0.01 -0.008,-0.0204 z m -0.0332,-0.0703 c -0.004,-0.008 -0.008,-0.0138 -0.008,-0.0122 -2.7e-4,0.004 0.0128,0.0305 0.0145,0.0288 8.4e-4,-8.4e-4 -0.002,-0.008 -0.006,-0.0165 z m -0.0312,-0.0665 c -0.005,-0.008 -0.006,-0.005 -0.002,0.004 10e-4,0.003 0.003,0.006 0.004,0.005 0.001,-0.001 -4e-5,-0.005 -0.002,-0.009 z m -0.0293,-0.0624 c -0.003,-0.006 -0.006,-0.01 -0.006,-0.008 -2.6e-4,0.005 0.009,0.0228 0.0106,0.0211 9e-4,-8.9e-4 -0.001,-0.007 -0.004,-0.0127 z m -0.0293,-0.0625 c -0.004,-0.008 -0.008,-0.0138 -0.008,-0.0122 -2.8e-4,0.004 0.0128,0.0305 0.0145,0.0288 8.5e-4,-8.4e-4 -0.002,-0.008 -0.006,-0.0166 z m -0.30663,-2e-5 c -0.003,-0.006 -0.006,-0.01 -0.006,-0.008 -2.7e-4,0.005 0.009,0.0228 0.0105,0.0211 8.9e-4,-8.9e-4 -0.001,-0.007 -0.004,-0.0127 z m -0.02,-0.0443 c -0.003,-0.006 -0.007,-0.0117 -0.008,-0.0117 -0.001,0 7.8e-4,0.005 0.004,0.0117 0.003,0.006 0.007,0.0117 0.008,0.0117 0.001,0 -7.7e-4,-0.005 -0.004,-0.0117 z m 0.29537,-0.0221 c -0.004,-0.008 -0.008,-0.0138 -0.008,-0.0122 -2.8e-4,0.004 0.0128,0.0305 0.0145,0.0288 8.5e-4,-8.5e-4 -0.002,-0.008 -0.006,-0.0165 z m -0.32029,-0.0313 c -0.005,-0.008 -0.006,-0.005 -0.002,0.004 0.001,0.003 0.003,0.006 0.004,0.005 10e-4,-0.001 -4e-5,-0.005 -0.002,-0.009 z m 0.29295,-0.0273 c -0.004,-0.008 -0.008,-0.0138 -0.008,-0.0122 -2.8e-4,0.004 0.0128,0.0305 0.0145,0.0288 8.4e-4,-8.4e-4 -0.002,-0.008 -0.006,-0.0166 z m -0.30905,-0.009 c -0.002,-0.004 -0.005,-0.008 -0.006,-0.008 -0.001,0 -7e-5,0.004 0.002,0.008 0.002,0.004 0.005,0.008 0.006,0.008 0.001,0 7e-5,-0.004 -0.002,-0.008 z m 0.28366,-0.0455 c -0.005,-0.0104 -0.01,-0.0177 -0.01,-0.0161 -2.8e-4,0.004 0.0167,0.0382 0.0184,0.0365 8.2e-4,-8.2e-4 -0.003,-0.01 -0.008,-0.0204 z m -0.30319,0.003 c -0.002,-0.004 -0.005,-0.008 -0.006,-0.008 -0.001,0 -7e-5,0.004 0.002,0.008 0.002,0.004 0.005,0.008 0.006,0.008 0.001,0 7e-5,-0.004 -0.002,-0.008 z m 0.27975,-0.0533 c -0.005,-0.0104 -0.01,-0.0177 -0.01,-0.0161 -2.8e-4,0.004 0.0167,0.0382 0.0184,0.0365 8.1e-4,-8.2e-4 -0.003,-0.01 -0.008,-0.0204 z m -0.29793,0.0121 c -0.001,-0.003 -0.003,-0.005 -0.004,-0.004 -10e-4,0.001 -7e-4,0.004 7.2e-4,0.006 0.004,0.006 0.006,0.005 0.003,-0.002 z m 0.27254,-0.0668 c -0.006,-0.0126 -0.0119,-0.0216 -0.012,-0.02 -2.9e-4,0.004 0.0207,0.046 0.0223,0.0443 8e-4,-8e-4 -0.004,-0.0117 -0.0103,-0.0243 z m -0.30857,-0.0118 c -0.005,-0.008 -0.006,-0.005 -0.002,0.004 10e-4,0.003 0.003,0.006 0.004,0.005 0.001,-0.001 -4e-5,-0.005 -0.002,-0.009 z m 0.21894,-0.18512 c -0.0425,-0.0933 -0.0964,-0.21227 -0.11978,-0.26434 -0.0233,-0.0521 -0.0431,-0.0941 -0.0438,-0.0933 -7.4e-4,7.4e-4 0.0221,0.0539 0.0508,0.11811 0.0774,0.17337 0.18719,0.4121 0.18873,0.41057 7.4e-4,-7.4e-4 -0.0335,-0.0777 -0.076,-0.17102 z m -0.23263,0.15392 c -0.003,-0.006 -0.006,-0.01 -0.006,-0.008 -2.7e-4,0.005 0.009,0.0228 0.0105,0.0211 8.9e-4,-9e-4 -0.001,-0.007 -0.004,-0.0127 z m -0.0117,-0.0273 c -0.003,-0.006 -0.006,-0.01 -0.006,-0.008 -2.7e-4,0.005 0.009,0.0228 0.0105,0.0211 8.9e-4,-8.9e-4 -0.001,-0.007 -0.004,-0.0127 z m 0.0742,-0.50391 c -0.003,-0.006 -0.006,-0.01 -0.006,-0.008 -2.7e-4,0.005 0.009,0.0228 0.0105,0.0211 8.9e-4,-9e-4 -0.001,-0.007 -0.004,-0.0127 z"
   id="path883"
   inkscape:connector-curvature="0" /><path
   style="fill:#d57a66;fill-opacity:1;stroke:none;stroke-width:0.02015256;stroke-linecap:round;stroke-linejoin:bevel;stroke-miterlimit:4;stroke-dasharray:none;stroke-opacity:1"
   d="m 145.31617,154.9675 v -1.7207 l 1.95547,9.8e-4 1.95547,9.8e-4 0.0412,0.0987 c 0.0226,0.0543 0.0418,0.0981 0.0425,0.0974 7.4e-4,-7.5e-4 -0.007,-0.0213 -0.0164,-0.0456 -0.0124,-0.0308 -0.0165,-0.0455 -0.0137,-0.0483 0.003,-0.003 0.0536,-0.005 0.14056,-0.006 l 0.13645,-0.002 -0.0192,-0.0441 c -0.0106,-0.0242 -0.0192,-0.0458 -0.0192,-0.0478 0,-0.002 0.60975,-0.004 1.6914,-0.004 h 1.6914 l 9.8e-4,1.72072 9.9e-4,1.72071 -0.96966,-3e-5 -0.96965,-4e-5 -0.0856,-0.14353 c -0.088,-0.14768 -0.21013,-0.35638 -0.26389,-0.45115 -0.0168,-0.0295 -0.0312,-0.0537 -0.0321,-0.0537 -0.004,0 0.13753,0.24579 0.28978,0.50222 0.0445,0.0749 0.0817,0.1384 0.0828,0.14117 0.002,0.004 -0.51446,0.005 -2.81879,0.005 h -2.82073 z m 5.87109,1.70509 c -0.002,-0.004 -0.005,-0.008 -0.006,-0.008 -0.001,0 -7e-5,0.004 0.002,0.008 0.002,0.004 0.005,0.008 0.006,0.008 0.001,0 7e-5,-0.004 -0.002,-0.008 z m -0.0117,-0.0195 c -0.002,-0.004 -0.005,-0.008 -0.006,-0.008 -10e-4,0 -7e-5,0.004 0.002,0.008 0.002,0.004 0.005,0.008 0.006,0.008 0.001,0 7e-5,-0.004 -0.002,-0.008 z m -0.0156,-0.0273 c -0.002,-0.004 -0.005,-0.008 -0.006,-0.008 -0.001,0 -7e-5,0.004 0.002,0.008 0.002,0.004 0.005,0.008 0.006,0.008 0.001,0 7e-5,-0.004 -0.002,-0.008 z m -0.0117,-0.0195 c -0.002,-0.004 -0.005,-0.008 -0.006,-0.008 -0.001,0 -7e-5,0.004 0.002,0.008 0.002,0.004 0.005,0.008 0.006,0.008 0.001,0 7e-5,-0.004 -0.002,-0.008 z m -0.0156,-0.0273 c -0.002,-0.004 -0.005,-0.008 -0.006,-0.008 -10e-4,0 -7e-5,0.004 0.002,0.008 0.002,0.004 0.005,0.008 0.006,0.008 0.001,0 7e-5,-0.004 -0.002,-0.008 z m -0.0156,-0.0274 c -0.002,-0.004 -0.005,-0.008 -0.006,-0.008 -0.001,0 -7e-5,0.004 0.002,0.008 0.002,0.004 0.005,0.008 0.006,0.008 0.001,0 7e-5,-0.004 -0.002,-0.008 z m -0.0156,-0.0273 c -0.002,-0.004 -0.005,-0.008 -0.006,-0.008 -0.001,0 -7e-5,0.004 0.002,0.008 0.002,0.004 0.005,0.008 0.006,0.008 10e-4,0 7e-5,-0.004 -0.002,-0.008 z m -0.0156,-0.0273 c -0.002,-0.004 -0.005,-0.008 -0.006,-0.008 -0.001,0 -7e-5,0.004 0.002,0.008 0.002,0.004 0.005,0.008 0.006,0.008 0.001,0 7e-5,-0.004 -0.002,-0.008 z m -0.0156,-0.0273 c -0.002,-0.004 -0.005,-0.008 -0.006,-0.008 -10e-4,0 -7e-5,0.004 0.002,0.008 0.002,0.004 0.005,0.008 0.006,0.008 0.001,0 7e-5,-0.004 -0.002,-0.008 z m -0.0156,-0.0273 c -0.002,-0.004 -0.005,-0.008 -0.006,-0.008 -0.001,0 -7e-5,0.004 0.002,0.008 0.002,0.004 0.005,0.008 0.006,0.008 0.001,0 7e-5,-0.004 -0.002,-0.008 z m -0.4738,-0.40918 c -0.0218,-0.0398 -0.047,-0.083 -0.0483,-0.083 -9.7e-4,0 -10e-4,0.001 -1.7e-4,0.003 0.0218,0.0398 0.047,0.083 0.0483,0.083 9.8e-4,0 0.001,-0.001 1.7e-4,-0.003 z m -0.0574,-0.10254 c -0.004,-0.009 -0.009,-0.0156 -0.01,-0.0156 -0.001,0 0.002,0.007 0.006,0.0156 0.004,0.009 0.009,0.0156 0.01,0.0156 0.001,0 -0.002,-0.007 -0.006,-0.0156 z m -0.0225,-0.04 c -0.0658,-0.11687 -0.20993,-0.38571 -0.3251,-0.60645 -0.0392,-0.0752 -0.0731,-0.13847 -0.0752,-0.14062 -0.0124,-0.0127 0.17999,0.35264 0.32816,0.62305 0.0884,0.16127 0.0789,0.14453 0.0815,0.14453 0.001,0 -0.003,-0.009 -0.009,-0.0205 z m -0.0747,-0.68518 c -0.004,-0.008 -0.008,-0.0138 -0.008,-0.0122 -2.7e-4,0.004 0.0128,0.0305 0.0145,0.0288 8.4e-4,-8.4e-4 -0.002,-0.008 -0.006,-0.0165 z m -0.041,-0.0859 c -0.008,-0.0147 -0.0138,-0.0255 -0.0139,-0.0239 -2.9e-4,0.004 0.0246,0.0538 0.0262,0.0521 7.8e-4,-7.9e-4 -0.005,-0.0135 -0.0123,-0.0282 z m -0.35956,-0.12735 c -0.0201,-0.0414 -0.0733,-0.1499 -0.11826,-0.24121 -0.045,-0.0913 -0.1035,-0.21126 -0.13004,-0.26657 -0.0265,-0.0553 -0.0488,-0.1 -0.0495,-0.0993 -0.004,0.004 0.32693,0.68225 0.33256,0.68225 9.6e-4,0 -0.0147,-0.0338 -0.0347,-0.0752 z m 0.3205,0.0453 c -0.008,-0.0147 -0.0138,-0.0255 -0.0139,-0.0239 -2.9e-4,0.004 0.0246,0.0538 0.0262,0.0521 7.9e-4,-7.9e-4 -0.005,-0.0135 -0.0123,-0.0282 z m -0.041,-0.0859 c -0.006,-0.0126 -0.0119,-0.0216 -0.012,-0.02 -2.9e-4,0.004 0.0207,0.046 0.0223,0.0443 7.9e-4,-8e-4 -0.004,-0.0117 -0.0103,-0.0243 z m -0.0371,-0.0781 c -0.008,-0.0147 -0.0138,-0.0255 -0.0139,-0.0239 -2.9e-4,0.004 0.0246,0.0538 0.0262,0.0521 7.9e-4,-7.8e-4 -0.005,-0.0135 -0.0123,-0.0282 z m -0.0371,-0.0781 c -0.006,-0.0126 -0.0119,-0.0216 -0.012,-0.02 -2.9e-4,0.004 0.0207,0.046 0.0223,0.0443 8e-4,-8e-4 -0.004,-0.0117 -0.0103,-0.0243 z m -0.0391,-0.082 c -0.006,-0.0126 -0.0119,-0.0216 -0.012,-0.02 -2.9e-4,0.004 0.0207,0.046 0.0223,0.0443 8e-4,-8e-4 -0.004,-0.0117 -0.0103,-0.0243 z m -0.0371,-0.0781 c -0.005,-0.0104 -0.01,-0.0177 -0.01,-0.0161 -2.9e-4,0.004 0.0167,0.0382 0.0184,0.0365 8.1e-4,-8.1e-4 -0.003,-0.01 -0.008,-0.0204 z m -0.0352,-0.0742 c -0.005,-0.0104 -0.01,-0.0177 -0.01,-0.0161 -2.9e-4,0.004 0.0167,0.0382 0.0184,0.0365 8.2e-4,-8.2e-4 -0.003,-0.01 -0.008,-0.0204 z m -0.0351,-0.0743 c -0.003,-0.006 -0.006,-0.01 -0.006,-0.008 -2.6e-4,0.005 0.009,0.0228 0.0106,0.0211 9e-4,-8.9e-4 -0.001,-0.007 -0.004,-0.0127 z m -0.0332,-0.0704 c -0.005,-0.008 -0.006,-0.005 -0.002,0.004 0.001,0.003 0.003,0.006 0.004,0.005 0.001,-0.001 -4e-5,-0.005 -0.002,-0.009 z m -0.33987,-0.0702 c -0.004,-0.008 -0.008,-0.0138 -0.008,-0.0122 -2.8e-4,0.004 0.0128,0.0305 0.0145,0.0288 8.5e-4,-8.5e-4 -0.002,-0.008 -0.006,-0.0165 z m 0.25003,-0.12117 c -0.005,-0.008 -0.006,-0.005 -0.002,0.004 0.001,0.003 0.003,0.006 0.004,0.005 0.001,-0.001 -4e-5,-0.005 -0.002,-0.009 z m -0.30859,-0.002 c -0.004,-0.004 -0.004,-0.003 -0.002,0.002 0.001,0.004 0.004,0.006 0.005,0.005 0.001,-0.001 0,-0.004 -0.003,-0.007 z m -0.0195,-0.0446 c -0.005,-0.008 -0.006,-0.005 -0.002,0.004 0.001,0.003 0.003,0.006 0.004,0.005 0.001,-10e-4 -4e-5,-0.005 -0.002,-0.009 z m 0.29688,-0.0195 c -0.005,-0.008 -0.006,-0.005 -0.002,0.004 0.001,0.003 0.003,0.006 0.004,0.005 10e-4,-0.001 -4e-5,-0.005 -0.002,-0.009 z m -0.32032,-0.0312 c -0.005,-0.008 -0.006,-0.005 -0.002,0.004 10e-4,0.003 0.003,0.006 0.004,0.005 0.001,-0.001 -4e-5,-0.005 -0.002,-0.009 z m 0.29491,-0.0234 c -0.003,-0.006 -0.006,-0.01 -0.006,-0.008 -2.7e-4,0.005 0.009,0.0228 0.0105,0.0211 8.9e-4,-9e-4 -10e-4,-0.007 -0.004,-0.0127 z m -0.0273,-0.0586 c -0.003,-0.006 -0.006,-0.01 -0.006,-0.008 -2.6e-4,0.005 0.009,0.0228 0.0105,0.021 9e-4,-8.9e-4 -10e-4,-0.007 -0.004,-0.0127 z m -0.0234,-0.0508 c -0.003,-0.006 -0.006,-0.01 -0.006,-0.008 -2.6e-4,0.005 0.009,0.0228 0.0106,0.0211 9e-4,-8.9e-4 -0.001,-0.007 -0.004,-0.0127 z m -0.0254,-0.0547 c -0.004,-0.008 -0.008,-0.0138 -0.008,-0.0122 -2.8e-4,0.004 0.0128,0.0305 0.0145,0.0288 8.4e-4,-8.5e-4 -0.002,-0.008 -0.006,-0.0165 z m -0.32029,-0.0391 c -0.005,-0.008 -0.006,-0.005 -0.002,0.004 0.001,0.003 0.003,0.006 0.004,0.005 0.001,-0.001 -4e-5,-0.005 -0.002,-0.009 z m 0.29688,-0.0117 c -0.005,-0.008 -0.006,-0.005 -0.002,0.004 0.001,0.003 0.003,0.006 0.004,0.005 0.001,-0.001 -4e-5,-0.005 -0.002,-0.009 z m -0.31057,-0.0195 c -0.003,-0.006 -0.006,-0.01 -0.006,-0.008 -2.7e-4,0.005 0.009,0.0228 0.0105,0.0211 8.9e-4,-8.9e-4 -0.001,-0.007 -0.004,-0.0127 z m 0.28906,-0.0273 c -0.005,-0.0104 -0.01,-0.0177 -0.01,-0.0161 -2.8e-4,0.004 0.0167,0.0382 0.0184,0.0365 8.2e-4,-8.2e-4 -0.003,-0.01 -0.008,-0.0204 z m -0.30271,-0.004 c -0.005,-0.008 -0.006,-0.005 -0.002,0.004 0.001,0.003 0.003,0.006 0.004,0.005 10e-4,-0.001 -3e-5,-0.005 -0.002,-0.009 z m -0.01,-0.0234 c -0.003,-0.006 -0.006,-0.01 -0.006,-0.008 -2.6e-4,0.005 0.009,0.0228 0.0105,0.0211 9e-4,-8.9e-4 -10e-4,-0.007 -0.004,-0.0127 z m 0.29101,-0.0195 c -0.004,-0.008 -0.008,-0.0137 -0.008,-0.0122 -2.8e-4,0.004 0.0128,0.0305 0.0145,0.0288 8.5e-4,-8.5e-4 -0.002,-0.008 -0.006,-0.0166 z m -0.37256,-0.17026 c -0.0411,-0.096 -0.0753,-0.17401 -0.0761,-0.17327 -7.4e-4,7.5e-4 0.0301,0.075 0.0686,0.16494 0.0765,0.1787 0.0795,0.18559 0.0811,0.18403 5.8e-4,-5.9e-4 -0.0326,-0.0796 -0.0737,-0.1757 z m 0.35107,0.1234 c -0.005,-0.0104 -0.01,-0.0177 -0.01,-0.0161 -2.8e-4,0.004 0.0167,0.0382 0.0184,0.0365 8.2e-4,-8.2e-4 -0.003,-0.01 -0.008,-0.0204 z m -0.0195,-0.043 c -0.005,-0.0104 -0.01,-0.0177 -0.01,-0.0161 -2.8e-4,0.004 0.0167,0.0382 0.0184,0.0365 8.2e-4,-8.2e-4 -0.003,-0.01 -0.008,-0.0204 z m -0.0195,-0.043 c -0.005,-0.0104 -0.01,-0.0177 -0.01,-0.0161 -2.8e-4,0.004 0.0167,0.0382 0.0184,0.0365 8.2e-4,-8.2e-4 -0.003,-0.01 -0.008,-0.0204 z m -0.052,-0.11583 c -0.023,-0.0508 -0.0423,-0.0918 -0.0431,-0.091 -7.5e-4,7.5e-4 0.0174,0.0429 0.0404,0.0937 0.023,0.0508 0.0423,0.0918 0.0431,0.091 7.4e-4,-7.4e-4 -0.0174,-0.0429 -0.0404,-0.0937 z m -0.0535,-0.11859 c -0.003,-0.006 -0.006,-0.01 -0.006,-0.008 -2.6e-4,0.005 0.009,0.0228 0.0105,0.0211 9e-4,-9e-4 -0.001,-0.007 -0.004,-0.0127 z m -0.0137,-0.0313 c -0.005,-0.008 -0.006,-0.005 -0.002,0.004 0.001,0.003 0.003,0.006 0.004,0.005 0.001,-0.001 -4e-5,-0.005 -0.002,-0.009 z"
   id="path885"
   inkscape:connector-curvature="0" /><path
   style="fill:#d57a66;fill-opacity:1;stroke:none;stroke-width:0.02015256;stroke-linecap:round;stroke-linejoin:bevel;stroke-miterlimit:4;stroke-dasharray:none;stroke-opacity:1"
   d="m 145.31617,154.9675 v -1.7207 l 1.95563,9.8e-4 1.95563,9.8e-4 0.0313,0.0753 c 0.0172,0.0414 0.032,0.0746 0.0328,0.0738 8.3e-4,-8.3e-4 -0.002,-0.0108 -0.007,-0.0222 -0.006,-0.0145 -0.007,-0.0219 -0.004,-0.0248 0.003,-0.003 0.0529,-0.005 0.14023,-0.006 l 0.13611,-0.002 -0.0189,-0.0443 c -0.0104,-0.0244 -0.019,-0.0459 -0.019,-0.0479 0,-0.002 0.68363,-0.004 1.6914,-0.004 h 1.6914 l 9.8e-4,1.72072 9.9e-4,1.72071 -0.97038,-9.9e-4 -0.97038,-9.8e-4 -0.0162,-0.0274 c -0.009,-0.015 -0.0564,-0.095 -0.1054,-0.17773 -0.049,-0.0827 -0.091,-0.15215 -0.0931,-0.1543 -0.006,-0.006 0.007,0.016 0.11154,0.19278 0.0513,0.0867 0.0943,0.16008 0.0955,0.16308 0.002,0.005 -0.40269,0.005 -2.81863,0.005 h -2.82073 z m 5.87244,1.70687 c -0.001,-0.003 -0.003,-0.005 -0.004,-0.004 -0.001,0.001 -7.1e-4,0.004 7.1e-4,0.006 0.004,0.006 0.006,0.005 0.003,-0.002 z m -0.0165,-0.0263 c -0.004,-0.004 -0.004,-0.003 -0.002,0.002 0.001,0.004 0.004,0.006 0.005,0.005 0.001,-0.001 0,-0.004 -0.003,-0.007 z m -0.0156,-0.0274 c -0.004,-0.004 -0.004,-0.003 -0.002,0.002 0.001,0.004 0.004,0.006 0.005,0.005 10e-4,-0.001 10e-6,-0.004 -0.003,-0.007 z m -0.0273,-0.0469 c -0.004,-0.004 -0.004,-0.003 -0.002,0.002 0.001,0.004 0.004,0.006 0.005,0.005 0.001,-0.001 0,-0.004 -0.003,-0.007 z m -0.39321,-0.27142 c -0.006,-0.0102 -0.0125,-0.0203 -0.0147,-0.0225 -0.002,-0.002 9e-4,0.005 0.007,0.0156 0.006,0.0107 0.0117,0.0209 0.0126,0.0225 9e-4,0.002 0.003,0.003 0.004,0.003 0.001,0 -0.003,-0.008 -0.009,-0.0186 z m -0.0233,-0.04 c -0.003,-0.006 -0.007,-0.0117 -0.008,-0.0117 -0.001,0 7.7e-4,0.005 0.004,0.0117 0.003,0.006 0.007,0.0117 0.008,0.0117 0.001,0 -7.7e-4,-0.005 -0.004,-0.0117 z m -0.0137,-0.0234 c -0.002,-0.004 -0.005,-0.008 -0.006,-0.008 -0.001,0 -7e-5,0.004 0.002,0.008 0.002,0.004 0.005,0.008 0.006,0.008 0.001,0 7e-5,-0.004 -0.002,-0.008 z m -0.0137,-0.0234 c -0.003,-0.006 -0.007,-0.0117 -0.008,-0.0117 -0.001,0 7.7e-4,0.005 0.004,0.0117 0.003,0.006 0.007,0.0117 0.008,0.0117 0.001,0 -7.8e-4,-0.005 -0.004,-0.0117 z m -0.0156,-0.0273 c -0.003,-0.006 -0.007,-0.0117 -0.008,-0.0117 -0.001,0 7.8e-4,0.005 0.004,0.0117 0.003,0.006 0.007,0.0117 0.008,0.0117 0.001,0 -7.7e-4,-0.005 -0.004,-0.0117 z m -0.0156,-0.0273 c -0.003,-0.006 -0.007,-0.0117 -0.008,-0.0117 -10e-4,0 7.7e-4,0.005 0.004,0.0117 0.003,0.006 0.007,0.0117 0.008,0.0117 0.001,0 -7.8e-4,-0.005 -0.004,-0.0117 z m -0.0156,-0.0273 c -0.003,-0.006 -0.007,-0.0117 -0.008,-0.0117 -0.001,0 7.8e-4,0.005 0.004,0.0117 0.003,0.006 0.007,0.0117 0.008,0.0117 10e-4,0 -7.7e-4,-0.005 -0.004,-0.0117 z m -0.0156,-0.0273 c -0.003,-0.006 -0.007,-0.0117 -0.008,-0.0117 -0.001,0 7.7e-4,0.005 0.004,0.0117 0.003,0.006 0.007,0.0117 0.008,0.0117 0.001,0 -7.8e-4,-0.005 -0.004,-0.0117 z m -0.0137,-0.0234 c -0.002,-0.004 -0.005,-0.008 -0.006,-0.008 -10e-4,0 -7e-5,0.004 0.002,0.008 0.002,0.004 0.005,0.008 0.006,0.008 0.001,0 7e-5,-0.004 -0.002,-0.008 z m -0.0156,-0.0273 c -0.002,-0.004 -0.005,-0.008 -0.006,-0.008 -0.001,0 -7e-5,0.004 0.002,0.008 0.002,0.004 0.005,0.008 0.006,0.008 0.001,0 7e-5,-0.004 -0.002,-0.008 z m -0.0176,-0.0312 c -0.003,-0.006 -0.007,-0.0117 -0.008,-0.0117 -0.001,0 7.8e-4,0.005 0.004,0.0117 0.003,0.006 0.007,0.0117 0.008,0.0117 10e-4,0 -7.7e-4,-0.005 -0.004,-0.0117 z m -0.0156,-0.0273 c -0.003,-0.006 -0.007,-0.0117 -0.008,-0.0117 -0.001,0 7.7e-4,0.005 0.004,0.0117 0.003,0.006 0.007,0.0117 0.008,0.0117 0.001,0 -7.8e-4,-0.005 -0.004,-0.0117 z m -0.0176,-0.0312 c -0.002,-0.004 -0.005,-0.008 -0.006,-0.008 -0.001,0 -7e-5,0.004 0.002,0.008 0.002,0.004 0.005,0.008 0.006,0.008 0.001,0 7e-5,-0.004 -0.002,-0.008 z m -0.0195,-0.0352 c -0.004,-0.009 -0.009,-0.0156 -0.01,-0.0156 -10e-4,0 0.002,0.007 0.006,0.0156 0.004,0.009 0.009,0.0156 0.01,0.0156 0.001,0 -0.002,-0.007 -0.006,-0.0156 z m -0.0176,-0.0312 c -0.003,-0.006 -0.007,-0.0117 -0.008,-0.0117 -0.001,0 7.7e-4,0.005 0.004,0.0117 0.003,0.006 0.007,0.0117 0.008,0.0117 0.001,0 -7.8e-4,-0.005 -0.004,-0.0117 z m -0.0215,-0.0391 c -0.004,-0.009 -0.009,-0.0156 -0.01,-0.0156 -0.001,0 0.002,0.007 0.006,0.0156 0.004,0.009 0.009,0.0156 0.01,0.0156 0.001,0 -0.002,-0.007 -0.006,-0.0156 z m -0.0195,-0.0352 c -0.004,-0.009 -0.009,-0.0156 -0.01,-0.0156 -0.001,0 0.002,0.007 0.006,0.0156 0.004,0.009 0.009,0.0156 0.01,0.0156 0.001,0 -0.002,-0.007 -0.006,-0.0156 z m -0.0215,-0.0391 c -0.005,-0.0108 -0.0108,-0.0195 -0.0118,-0.0195 -0.001,0 0.002,0.009 0.008,0.0195 0.005,0.0107 0.0108,0.0195 0.0118,0.0195 0.001,0 -0.003,-0.009 -0.008,-0.0195 z m -0.0234,-0.043 c -0.005,-0.0107 -0.0108,-0.0195 -0.0119,-0.0195 -0.001,0 0.002,0.009 0.008,0.0195 0.005,0.0107 0.0108,0.0195 0.0118,0.0195 0.001,0 -0.002,-0.009 -0.008,-0.0195 z m -0.0234,-0.043 c -0.005,-0.0107 -0.0108,-0.0195 -0.0119,-0.0195 -0.001,0 0.002,0.009 0.008,0.0195 0.005,0.0107 0.0108,0.0195 0.0119,0.0195 10e-4,0 -0.002,-0.009 -0.008,-0.0195 z m -0.0254,-0.0469 c -0.007,-0.0129 -0.0127,-0.0234 -0.0138,-0.0234 -0.001,0 0.003,0.0105 0.01,0.0234 0.007,0.0129 0.0127,0.0234 0.0138,0.0234 0.001,0 -0.003,-0.0105 -0.01,-0.0234 z m -0.0189,-0.0342 c -0.002,-0.004 -0.0343,-0.0648 -0.0718,-0.13574 -0.0375,-0.0709 -0.0924,-0.17505 -0.12187,-0.23144 -0.0295,-0.0564 -0.0545,-0.10254 -0.0555,-0.10254 -0.003,0 0.10105,0.1997 0.20062,0.38574 0.0267,0.05 0.0494,0.0908 0.0504,0.0908 9.8e-4,0 1.6e-4,-0.003 -0.002,-0.007 z m 0.0741,-0.41376 c -0.005,-0.008 -0.006,-0.005 -0.002,0.004 10e-4,0.004 0.003,0.006 0.004,0.005 0.001,-0.001 -4e-5,-0.005 -0.002,-0.009 z m -0.041,-0.0859 c -0.003,-0.006 -0.006,-0.01 -0.006,-0.008 -2.6e-4,0.005 0.009,0.0228 0.0106,0.0211 9e-4,-8.9e-4 -0.001,-0.007 -0.004,-0.0127 z m -0.37527,-0.15855 c -0.0265,-0.0542 -0.0927,-0.18954 -0.14706,-0.30066 -0.0543,-0.11111 -0.0994,-0.20149 -0.10001,-0.20084 -0.003,0.003 0.28914,0.60013 0.29325,0.60013 0.001,0 -0.0197,-0.0444 -0.0462,-0.0986 z m 0.33425,0.0726 c -0.004,-0.008 -0.008,-0.0138 -0.008,-0.0122 -2.7e-4,0.004 0.0128,0.0305 0.0145,0.0288 8.5e-4,-8.5e-4 -0.002,-0.008 -0.006,-0.0165 z m -0.0391,-0.082 c -0.004,-0.008 -0.008,-0.0137 -0.008,-0.0122 -2.8e-4,0.004 0.0128,0.0305 0.0145,0.0288 8.5e-4,-8.5e-4 -0.002,-0.008 -0.006,-0.0166 z m -0.0371,-0.0781 c -0.005,-0.0104 -0.01,-0.0177 -0.01,-0.0161 -2.9e-4,0.004 0.0167,0.0382 0.0184,0.0365 8.2e-4,-8.2e-4 -0.003,-0.01 -0.008,-0.0204 z m -0.0391,-0.0821 c -0.003,-0.006 -0.006,-0.01 -0.006,-0.008 -2.6e-4,0.005 0.009,0.0228 0.0106,0.0211 9e-4,-9e-4 -10e-4,-0.007 -0.004,-0.0127 z m -0.0371,-0.0781 c -0.004,-0.008 -0.008,-0.0137 -0.008,-0.0122 -2.8e-4,0.005 0.0128,0.0305 0.0145,0.0288 8.4e-4,-8.5e-4 -0.002,-0.008 -0.006,-0.0166 z m -0.0371,-0.0781 c -0.003,-0.006 -0.006,-0.01 -0.006,-0.008 -2.7e-4,0.005 0.009,0.0228 0.0105,0.0211 8.9e-4,-9e-4 -0.001,-0.007 -0.004,-0.0127 z m -0.0352,-0.0742 c -0.003,-0.006 -0.006,-0.01 -0.006,-0.008 -2.7e-4,0.005 0.009,0.0228 0.0105,0.0211 8.9e-4,-9e-4 -10e-4,-0.007 -0.004,-0.0127 z m -0.37306,-0.14058 c -0.006,-0.0126 -0.0119,-0.0216 -0.012,-0.02 -2.9e-4,0.004 0.0207,0.046 0.0223,0.0443 8e-4,-8e-4 -0.004,-0.0117 -0.0103,-0.0243 z m -0.0351,-0.0743 c -0.005,-0.008 -0.006,-0.005 -0.002,0.004 0.001,0.003 0.003,0.006 0.004,0.005 10e-4,-0.001 -4e-5,-0.005 -0.002,-0.009 z m 0.16797,-0.29687 c -0.005,-0.008 -0.006,-0.005 -0.002,0.004 0.001,0.004 0.003,0.006 0.004,0.005 0.001,-0.001 -4e-5,-0.005 -0.002,-0.009 z m -0.0273,-0.057 c -0.004,-0.004 -0.004,-0.003 -0.002,0.002 0.001,0.004 0.004,0.006 0.005,0.005 0.001,-0.001 0,-0.004 -0.003,-0.007 z m -0.0234,-0.0524 c -0.005,-0.008 -0.006,-0.005 -0.002,0.004 10e-4,0.003 0.003,0.006 0.004,0.005 0.001,-0.001 -4e-5,-0.005 -0.002,-0.009 z m -0.0449,-0.0976 c -0.003,-0.006 -0.006,-0.01 -0.006,-0.008 -2.6e-4,0.005 0.009,0.0228 0.0105,0.0211 9e-4,-9e-4 -10e-4,-0.007 -0.004,-0.0127 z m -0.31444,-0.0313 c -0.005,-0.008 -0.006,-0.005 -0.002,0.004 0.001,0.003 0.003,0.006 0.004,0.005 0.001,-0.001 -4e-5,-0.005 -0.002,-0.009 z m 0.2964,-0.008 c 0,-0.002 -0.003,-0.007 -0.006,-0.0107 -0.005,-0.007 -0.006,-0.007 -0.001,0.003 0.005,0.0107 0.007,0.0135 0.007,0.008 z m -0.32181,-0.0502 c -0.003,-0.006 -0.006,-0.01 -0.006,-0.008 -2.7e-4,0.005 0.009,0.0228 0.0105,0.0211 8.9e-4,-8.9e-4 -0.001,-0.007 -0.004,-0.0127 z m 0.29688,-0.004 c -0.003,-0.006 -0.006,-0.01 -0.006,-0.008 -2.6e-4,0.005 0.009,0.0228 0.0106,0.0211 9e-4,-9e-4 -0.001,-0.007 -0.004,-0.0127 z m -0.3086,-0.0234 c -0.003,-0.006 -0.006,-0.01 -0.006,-0.008 -2.7e-4,0.005 0.009,0.0228 0.0105,0.0211 8.9e-4,-8.9e-4 -0.001,-0.007 -0.004,-0.0127 z m 0.28907,-0.0195 c -0.003,-0.006 -0.006,-0.01 -0.006,-0.008 -2.6e-4,0.005 0.009,0.0228 0.0105,0.0211 9e-4,-8.9e-4 -10e-4,-0.007 -0.004,-0.0127 z m -0.30078,-0.008 c -0.003,-0.006 -0.006,-0.01 -0.006,-0.008 -2.6e-4,0.005 0.009,0.0228 0.0105,0.0211 8.9e-4,-9e-4 -0.001,-0.007 -0.004,-0.0127 z m -0.0117,-0.0274 c -0.003,-0.006 -0.006,-0.01 -0.006,-0.008 -2.6e-4,0.005 0.009,0.0228 0.0105,0.021 9e-4,-8.9e-4 -0.001,-0.007 -0.004,-0.0127 z m 0.29297,-0.008 c -0.003,-0.006 -0.006,-0.01 -0.006,-0.008 -2.6e-4,0.005 0.009,0.0228 0.0105,0.0211 8.9e-4,-8.9e-4 -10e-4,-0.007 -0.004,-0.0127 z m -0.30469,-0.0195 c -0.003,-0.006 -0.006,-0.01 -0.006,-0.008 -2.6e-4,0.005 0.009,0.0228 0.0106,0.0211 9e-4,-8.9e-4 -0.001,-0.007 -0.004,-0.0127 z m 0.28515,-0.0234 c -0.003,-0.006 -0.006,-0.01 -0.006,-0.008 -2.7e-4,0.005 0.009,0.0228 0.0105,0.0211 8.9e-4,-8.9e-4 -0.001,-0.007 -0.004,-0.0127 z m -0.29687,-0.004 c -0.003,-0.006 -0.006,-0.01 -0.006,-0.008 -2.6e-4,0.005 0.009,0.0228 0.0106,0.0211 9e-4,-9e-4 -0.001,-0.007 -0.004,-0.0127 z m -0.0117,-0.0273 c -0.003,-0.006 -0.006,-0.01 -0.006,-0.008 -2.7e-4,0.005 0.009,0.0228 0.0105,0.0211 8.9e-4,-8.9e-4 -0.001,-0.007 -0.004,-0.0127 z m 0.29101,-0.008 c -0.004,-0.008 -0.008,-0.0138 -0.008,-0.0122 -2.7e-4,0.004 0.0128,0.0305 0.0145,0.0288 8.4e-4,-8.4e-4 -0.002,-0.008 -0.006,-0.0165 z m -0.30273,-0.0196 c -0.003,-0.006 -0.006,-0.01 -0.006,-0.008 -2.7e-4,0.005 0.009,0.0228 0.0105,0.0211 8.9e-4,-9e-4 -0.001,-0.007 -0.004,-0.0127 z m 0.2832,-0.0234 c -0.004,-0.008 -0.008,-0.0138 -0.008,-0.0122 -2.7e-4,0.004 0.0128,0.0305 0.0145,0.0288 8.4e-4,-8.4e-4 -0.002,-0.008 -0.006,-0.0166 z m -0.29492,-0.004 c -0.003,-0.006 -0.006,-0.01 -0.006,-0.008 -2.7e-4,0.005 0.009,0.0228 0.0105,0.0211 8.9e-4,-8.9e-4 -10e-4,-0.007 -0.004,-0.0127 z m -0.0117,-0.0273 c -0.003,-0.006 -0.006,-0.01 -0.006,-0.008 -2.7e-4,0.005 0.009,0.0228 0.0105,0.0211 8.9e-4,-8.9e-4 -0.001,-0.007 -0.004,-0.0127 z m 0.28907,-0.008 c -0.003,-0.006 -0.006,-0.01 -0.006,-0.008 -2.6e-4,0.005 0.009,0.0228 0.0105,0.0211 9e-4,-9e-4 -0.001,-0.007 -0.004,-0.0127 z m -0.29882,-0.0157 c -0.005,-0.008 -0.006,-0.005 -0.002,0.004 10e-4,0.003 0.003,0.006 0.004,0.005 0.001,-0.001 -4e-5,-0.005 -0.002,-0.009 z m 0.26757,-0.0546 c -0.003,-0.006 -0.006,-0.01 -0.006,-0.008 -2.6e-4,0.005 0.009,0.0228 0.0105,0.0211 9e-4,-9e-4 -0.001,-0.007 -0.004,-0.0127 z m -0.29882,-0.0196 c -0.005,-0.008 -0.006,-0.005 -0.002,0.004 10e-4,0.003 0.003,0.006 0.004,0.005 0.001,-0.001 -4e-5,-0.005 -0.002,-0.009 z"
   id="path887"
   inkscape:connector-curvature="0" /><path
   style="fill:#d57a66;fill-opacity:1;stroke:none;stroke-width:0.02015256;stroke-linecap:round;stroke-linejoin:bevel;stroke-miterlimit:4;stroke-dasharray:none;stroke-opacity:1"
   d="m 145.31617,154.9675 v -1.7207 l 1.95568,9.8e-4 1.95567,9.8e-4 0.0273,0.0655 c 0.015,0.036 0.028,0.0649 0.0288,0.064 8.4e-4,-8.4e-4 -3.5e-4,-0.006 -0.003,-0.0125 -0.003,-0.008 -0.003,-0.0122 4e-5,-0.0151 0.003,-0.003 0.0501,-0.005 0.13881,-0.006 0.0806,-8.9e-4 0.13463,-0.003 0.13463,-0.005 0,-0.002 -0.008,-0.0219 -0.0176,-0.044 -0.01,-0.0222 -0.0176,-0.0423 -0.0176,-0.0447 0,-0.003 0.45532,-0.004 1.6914,-0.004 h 1.6914 l 9.8e-4,1.72072 9.9e-4,1.72071 -0.97049,-9.9e-4 -0.97048,-9.8e-4 -0.0241,-0.0402 c -0.0132,-0.0221 -0.0255,-0.0414 -0.0273,-0.043 -0.003,-0.003 0.01,0.0209 0.0321,0.0577 0.007,0.0118 0.013,0.0228 0.013,0.0244 0,0.002 -1.26913,0.003 -2.8203,0.003 h -2.82031 z m 5.58984,1.62305 c -0.002,-0.004 -0.005,-0.008 -0.006,-0.008 -0.001,0 -7e-5,0.004 0.002,0.008 0.002,0.004 0.005,0.008 0.006,0.008 0.001,0 7e-5,-0.004 -0.002,-0.008 z m -0.009,-0.0146 c -0.0117,-0.0212 -0.0471,-0.0791 -0.0484,-0.0791 -0.002,0 -0.004,-0.003 0.0241,0.0439 0.0124,0.0209 0.0233,0.0381 0.0242,0.0381 9.3e-4,0 9.7e-4,-10e-4 9e-5,-0.003 z m -0.0535,-0.0908 c -0.002,-0.004 -0.005,-0.008 -0.006,-0.008 -0.001,0 -7e-5,0.004 0.002,0.008 0.002,0.004 0.005,0.008 0.006,0.008 0.001,0 7e-5,-0.004 -0.002,-0.008 z m -0.0117,-0.0195 c -0.002,-0.004 -0.005,-0.008 -0.006,-0.008 -10e-4,0 -7e-5,0.004 0.002,0.008 0.002,0.004 0.005,0.008 0.006,0.008 0.001,0 7e-5,-0.004 -0.002,-0.008 z m -0.0177,-0.0303 c -0.006,-0.0102 -0.0125,-0.0203 -0.0147,-0.0225 -0.002,-0.002 9.1e-4,0.005 0.007,0.0156 0.006,0.0107 0.0117,0.0208 0.0126,0.0225 8.9e-4,0.002 0.003,0.003 0.004,0.003 10e-4,0 -0.003,-0.008 -0.009,-0.0186 z m -0.0213,-0.0361 c -0.002,-0.004 -0.005,-0.008 -0.006,-0.008 -0.001,0 -7e-5,0.004 0.002,0.008 0.002,0.004 0.005,0.008 0.006,0.008 10e-4,0 7e-5,-0.004 -0.002,-0.008 z m -0.0117,-0.0195 c -0.002,-0.004 -0.005,-0.008 -0.006,-0.008 -0.001,0 -7e-5,0.004 0.002,0.008 0.002,0.004 0.005,0.008 0.006,0.008 0.001,0 7e-5,-0.004 -0.002,-0.008 z m -0.0117,-0.0195 c -0.002,-0.004 -0.005,-0.008 -0.006,-0.008 -0.001,0 -7e-5,0.004 0.002,0.008 0.002,0.004 0.005,0.008 0.006,0.008 0.001,0 7e-5,-0.004 -0.002,-0.008 z m -0.0293,-0.0508 c -0.003,-0.006 -0.007,-0.0117 -0.008,-0.0117 -0.001,0 7.8e-4,0.005 0.004,0.0117 0.003,0.006 0.007,0.0117 0.008,0.0117 0.001,0 -7.7e-4,-0.005 -0.004,-0.0117 z m -0.0137,-0.0234 c -0.002,-0.004 -0.005,-0.008 -0.006,-0.008 -10e-4,0 -7e-5,0.004 0.002,0.008 0.002,0.004 0.005,0.008 0.006,0.008 0.001,0 7e-5,-0.004 -0.002,-0.008 z m -0.0137,-0.0234 c -0.003,-0.006 -0.007,-0.0117 -0.008,-0.0117 -0.001,0 7.7e-4,0.005 0.004,0.0117 0.003,0.006 0.007,0.0117 0.008,0.0117 0.001,0 -7.7e-4,-0.005 -0.004,-0.0117 z m -0.0137,-0.0234 c -0.002,-0.004 -0.005,-0.008 -0.006,-0.008 -10e-4,0 -7e-5,0.004 0.002,0.008 0.002,0.004 0.005,0.008 0.006,0.008 0.001,0 7e-5,-0.004 -0.002,-0.008 z m -0.0137,-0.0234 c -0.003,-0.006 -0.007,-0.0117 -0.008,-0.0117 -0.001,0 7.7e-4,0.005 0.004,0.0117 0.003,0.006 0.007,0.0117 0.008,0.0117 0.001,0 -7.8e-4,-0.005 -0.004,-0.0117 z m -0.0156,-0.0273 c -0.003,-0.006 -0.007,-0.0117 -0.008,-0.0117 -0.001,0 7.8e-4,0.005 0.004,0.0117 0.003,0.006 0.007,0.0117 0.008,0.0117 0.001,0 -7.7e-4,-0.005 -0.004,-0.0117 z m -0.0137,-0.0234 c -0.002,-0.004 -0.005,-0.008 -0.006,-0.008 -0.001,0 -7e-5,0.004 0.002,0.008 0.002,0.004 0.005,0.008 0.006,0.008 0.001,0 7e-5,-0.004 -0.002,-0.008 z m -0.0156,-0.0273 c -0.002,-0.004 -0.005,-0.008 -0.006,-0.008 -0.001,0 -7e-5,0.004 0.002,0.008 0.002,0.004 0.005,0.008 0.006,0.008 10e-4,0 7e-5,-0.004 -0.002,-0.008 z m -0.0156,-0.0273 c -0.002,-0.004 -0.005,-0.008 -0.006,-0.008 -0.001,0 -7e-5,0.004 0.002,0.008 0.002,0.004 0.005,0.008 0.006,0.008 0.001,0 7e-5,-0.004 -0.002,-0.008 z m -0.0156,-0.0274 c -0.002,-0.004 -0.005,-0.008 -0.006,-0.008 -10e-4,0 -7e-5,0.004 0.002,0.008 0.002,0.004 0.005,0.008 0.006,0.008 0.001,0 7e-5,-0.004 -0.002,-0.008 z m -0.0156,-0.0273 c -0.002,-0.004 -0.005,-0.008 -0.006,-0.008 -0.001,0 -7e-5,0.004 0.002,0.008 0.002,0.004 0.005,0.008 0.006,0.008 0.001,0 7e-5,-0.004 -0.002,-0.008 z m -0.0195,-0.0352 c -0.002,-0.004 -0.005,-0.008 -0.006,-0.008 -10e-4,0 -7e-5,0.004 0.002,0.008 0.002,0.004 0.005,0.008 0.006,0.008 0.001,0 7e-5,-0.004 -0.002,-0.008 z m -0.0156,-0.0273 c -0.002,-0.004 -0.005,-0.008 -0.006,-0.008 -0.001,0 -7e-5,0.004 0.002,0.008 0.002,0.004 0.005,0.008 0.006,0.008 0.001,0 7e-5,-0.004 -0.002,-0.008 z m -0.0156,-0.0273 c -0.002,-0.004 -0.005,-0.008 -0.006,-0.008 -0.001,0 -7e-5,0.004 0.002,0.008 0.002,0.004 0.005,0.008 0.006,0.008 0.001,0 7e-5,-0.004 -0.002,-0.008 z m -0.0195,-0.0352 c -0.002,-0.004 -0.005,-0.008 -0.006,-0.008 -0.001,0 -7e-5,0.004 0.002,0.008 0.002,0.004 0.005,0.008 0.006,0.008 0.001,0 7e-5,-0.004 -0.002,-0.008 z m -0.0195,-0.0352 c -0.002,-0.004 -0.005,-0.008 -0.006,-0.008 -10e-4,0 -7e-5,0.004 0.002,0.008 0.002,0.004 0.005,0.008 0.006,0.008 0.001,0 7e-5,-0.004 -0.002,-0.008 z m -0.0176,-0.0312 c -0.003,-0.006 -0.007,-0.0117 -0.008,-0.0117 -0.001,0 7.7e-4,0.005 0.004,0.0117 0.003,0.006 0.007,0.0117 0.008,0.0117 0.001,0 -7.8e-4,-0.005 -0.004,-0.0117 z m -0.0195,-0.0351 c -0.003,-0.006 -0.007,-0.0117 -0.008,-0.0117 -0.001,0 7.7e-4,0.005 0.004,0.0117 0.003,0.006 0.007,0.0117 0.008,0.0117 0.001,0 -7.8e-4,-0.005 -0.004,-0.0117 z m -0.0234,-0.043 c -0.003,-0.006 -0.007,-0.0117 -0.008,-0.0117 -10e-4,0 7.7e-4,0.005 0.004,0.0117 0.003,0.006 0.007,0.0117 0.008,0.0117 0.001,0 -7.8e-4,-0.005 -0.004,-0.0117 z m -0.0234,-0.043 c -0.003,-0.006 -0.007,-0.0117 -0.008,-0.0117 -0.001,0 7.8e-4,0.005 0.004,0.0117 0.003,0.006 0.007,0.0117 0.008,0.0117 10e-4,0 -7.7e-4,-0.005 -0.004,-0.0117 z m -0.0234,-0.043 c -0.005,-0.0107 -0.0108,-0.0195 -0.0119,-0.0195 -0.001,0 0.002,0.009 0.008,0.0195 0.005,0.0107 0.0108,0.0195 0.0119,0.0195 0.001,0 -0.002,-0.009 -0.008,-0.0195 z m -0.0254,-0.0469 c -0.004,-0.009 -0.009,-0.0156 -0.01,-0.0156 -0.001,0 0.002,0.007 0.006,0.0156 0.004,0.009 0.009,0.0156 0.01,0.0156 0.001,0 -0.002,-0.007 -0.006,-0.0156 z m -0.0273,-0.0508 c -0.004,-0.009 -0.009,-0.0156 -0.01,-0.0156 -0.001,0 0.002,0.007 0.006,0.0156 0.004,0.009 0.009,0.0156 0.01,0.0156 0.001,0 -0.002,-0.007 -0.006,-0.0156 z m -0.0293,-0.0547 c -0.008,-0.015 -0.0147,-0.0274 -0.0157,-0.0274 -0.001,0 0.004,0.0123 0.0118,0.0274 0.008,0.015 0.0147,0.0273 0.0157,0.0273 10e-4,0 -0.004,-0.0123 -0.0118,-0.0273 z m -0.0312,-0.0586 c -0.008,-0.015 -0.0147,-0.0273 -0.0157,-0.0273 -0.001,0 0.004,0.0123 0.0118,0.0273 0.008,0.015 0.0147,0.0274 0.0157,0.0274 0.001,0 -0.004,-0.0123 -0.0118,-0.0274 z m -0.0441,-0.083 c -0.0149,-0.0285 -0.0425,-0.0812 -0.0612,-0.11718 -0.0187,-0.036 -0.0348,-0.0654 -0.0357,-0.0654 -0.002,0 0.009,0.0222 0.0695,0.13769 0.0279,0.0532 0.0516,0.0967 0.0526,0.0967 0.001,0 -0.0103,-0.0233 -0.0252,-0.0518 z m -0.11882,-0.22745 c -0.005,-0.01 -0.009,-0.0168 -0.01,-0.016 -0.002,0.002 0.014,0.0335 0.0167,0.0335 10e-4,0 -0.002,-0.008 -0.007,-0.0175 z m -0.13462,-0.26669 c -0.0356,-0.0725 -0.0894,-0.18237 -0.11958,-0.24414 -0.0302,-0.0618 -0.0555,-0.11169 -0.0563,-0.11094 -0.002,0.002 0.23533,0.48692 0.23882,0.48692 9.4e-4,0 -0.0274,-0.0593 -0.063,-0.13184 z m 0.35854,0.12139 c -0.005,-0.008 -0.006,-0.005 -0.002,0.004 0.001,0.003 0.003,0.006 0.004,0.005 0.001,-0.001 -4e-5,-0.005 -0.002,-0.009 z m -0.0391,-0.082 c -0.005,-0.008 -0.006,-0.005 -0.002,0.004 10e-4,0.003 0.003,0.006 0.004,0.005 0.001,-0.001 -4e-5,-0.005 -0.002,-0.009 z m -0.0371,-0.0781 c -0.003,-0.006 -0.006,-0.01 -0.006,-0.008 -2.7e-4,0.005 0.009,0.0228 0.0105,0.0211 8.9e-4,-9e-4 -10e-4,-0.007 -0.004,-0.0127 z m -0.0761,-0.16021 c -0.005,-0.008 -0.006,-0.005 -0.002,0.004 0.001,0.003 0.003,0.006 0.004,0.005 0.001,-10e-4 -4e-5,-0.005 -0.002,-0.009 z m -0.40629,-0.21083 c -0.009,-0.0169 -0.0158,-0.0294 -0.0159,-0.0278 -2.9e-4,0.004 0.0285,0.0615 0.0301,0.0599 7.8e-4,-7.8e-4 -0.006,-0.0152 -0.0143,-0.0321 z m -0.0413,-0.087 c -0.009,-0.0166 -0.0114,-0.0153 -0.003,0.002 0.004,0.007 0.007,0.0129 0.008,0.0121 8.4e-4,-8.5e-4 -10e-4,-0.007 -0.005,-0.0136 z m -0.27509,-0.60297 c -0.004,-0.004 -0.004,-0.003 -0.002,0.002 0.001,0.004 0.004,0.006 0.005,0.005 0.001,-0.001 1e-5,-0.004 -0.003,-0.007 z m 0.29296,-0.0172 c -0.005,-0.008 -0.006,-0.005 -0.002,0.004 0.001,0.003 0.003,0.006 0.004,0.005 0.001,-0.001 -3e-5,-0.005 -0.002,-0.009 z m -0.0161,-0.0357 c 0,-0.002 -0.003,-0.007 -0.006,-0.0107 -0.005,-0.007 -0.006,-0.007 -10e-4,0.003 0.005,0.0108 0.007,0.0135 0.007,0.008 z m -0.31593,-0.0385 c -0.005,-0.008 -0.006,-0.005 -0.002,0.004 0.001,0.003 0.003,0.006 0.004,0.005 0.001,-10e-4 -4e-5,-0.005 -0.002,-0.009 z m 0.29639,-0.004 c 0,-0.002 -0.003,-0.007 -0.006,-0.0107 -0.005,-0.007 -0.006,-0.007 -0.001,0.003 0.005,0.0108 0.007,0.0135 0.007,0.008 z m -0.30811,-0.0229 c -0.005,-0.008 -0.006,-0.005 -0.002,0.004 0.001,0.003 0.003,0.006 0.004,0.005 0.001,-0.001 -3e-5,-0.005 -0.002,-0.009 z m -0.0117,-0.0273 c -0.005,-0.008 -0.006,-0.005 -0.002,0.004 10e-4,0.003 0.003,0.006 0.004,0.005 0.001,-0.001 -4e-5,-0.005 -0.002,-0.009 z m 0.29491,-0.004 c -0.003,-0.006 -0.006,-0.01 -0.006,-0.008 -2.6e-4,0.005 0.009,0.0228 0.0105,0.0211 8.9e-4,-8.9e-4 -10e-4,-0.007 -0.004,-0.0127 z m -0.30663,-0.0235 c -0.005,-0.008 -0.006,-0.005 -0.002,0.004 10e-4,0.003 0.003,0.006 0.004,0.005 0.001,-0.001 -4e-5,-0.005 -0.002,-0.009 z m 0.28516,-0.0234 c -0.005,-0.008 -0.006,-0.005 -0.002,0.004 0.001,0.003 0.003,0.006 0.004,0.005 0.001,-0.001 -4e-5,-0.005 -0.002,-0.009 z m -0.29688,-0.004 c -0.005,-0.008 -0.006,-0.005 -0.002,0.004 0.001,0.004 0.003,0.006 0.004,0.005 0.001,-0.001 -4e-5,-0.005 -0.002,-0.009 z m -0.0117,-0.0273 c -0.005,-0.008 -0.006,-0.005 -0.002,0.004 0.001,0.003 0.003,0.006 0.004,0.005 0.001,-0.001 -4e-5,-0.005 -0.002,-0.009 z m 0.29297,-0.004 c -0.005,-0.008 -0.006,-0.005 -0.002,0.004 0.001,0.004 0.003,0.006 0.004,0.005 10e-4,-10e-4 -4e-5,-0.005 -0.002,-0.009 z m -0.30469,-0.0234 c -0.005,-0.008 -0.006,-0.005 -0.002,0.004 0.001,0.003 0.003,0.006 0.004,0.005 0.001,-0.001 -4e-5,-0.005 -0.002,-0.009 z m 0.2871,-0.0156 c -0.003,-0.006 -0.006,-0.01 -0.006,-0.008 -2.6e-4,0.005 0.009,0.0228 0.0106,0.0211 9e-4,-9e-4 -0.001,-0.007 -0.004,-0.0127 z m -0.29491,-0.004 c -0.005,-0.008 -0.006,-0.005 -0.002,0.004 0.001,0.003 0.003,0.006 0.004,0.005 10e-4,-0.001 -4e-5,-0.005 -0.002,-0.009 z m -0.0117,-0.0273 c -0.005,-0.008 -0.006,-0.005 -0.002,0.004 0.001,0.003 0.003,0.006 0.004,0.005 0.001,-10e-4 -4e-5,-0.005 -0.002,-0.009 z m 0.28907,-0.008 c -0.005,-0.008 -0.006,-0.005 -0.002,0.004 10e-4,0.003 0.003,0.006 0.004,0.005 0.001,-0.001 -4e-5,-0.005 -0.002,-0.009 z m -0.30079,-0.0195 c -0.005,-0.008 -0.006,-0.005 -0.002,0.004 0.001,0.003 0.003,0.006 0.004,0.005 0.001,-0.001 -4e-5,-0.005 -0.002,-0.009 z m -0.0312,-0.0742 c -0.005,-0.008 -0.006,-0.005 -0.002,0.004 0.001,0.003 0.003,0.006 0.004,0.005 10e-4,-0.001 -4e-5,-0.005 -0.002,-0.009 z m -0.007,-0.019 c -0.001,-0.003 -0.003,-0.005 -0.004,-0.004 -0.001,10e-4 -7.1e-4,0.004 7.1e-4,0.006 0.004,0.006 0.006,0.005 0.003,-0.002 z"
   id="path889"
   inkscape:connector-curvature="0" /><path
   style="fill:#d57a66;fill-opacity:1;stroke:none;stroke-width:0.02015256;stroke-linecap:round;stroke-linejoin:bevel;stroke-miterlimit:4;stroke-dasharray:none;stroke-opacity:1"
   d="m 145.31617,154.9675 v -1.7207 l 1.95574,9.8e-4 1.95574,9.8e-4 0.0274,0.0653 c 0.0151,0.0359 0.028,0.0647 0.0287,0.064 7.3e-4,-7.3e-4 -5.5e-4,-0.006 -0.003,-0.0123 -0.003,-0.008 -0.003,-0.0122 -1.3e-4,-0.015 0.003,-0.003 0.0535,-0.005 0.13654,-0.006 0.0729,-0.001 0.13357,-0.003 0.13486,-0.005 0.001,-0.001 -0.006,-0.021 -0.0153,-0.0437 -0.01,-0.0227 -0.0177,-0.0432 -0.0177,-0.0455 0,-0.003 0.49906,-0.004 1.6914,-0.004 h 1.6914 l 9.8e-4,1.72072 9.9e-4,1.72071 -0.97048,-9.9e-4 -0.97047,-9.8e-4 -0.0182,-0.0304 c -0.01,-0.0167 -0.0197,-0.0316 -0.0214,-0.0332 -0.003,-0.003 0.0103,0.0218 0.0262,0.0479 0.004,0.006 0.007,0.013 0.007,0.0147 0,0.002 -1.26913,0.003 -2.8203,0.003 h -2.82031 z m 5.58984,1.62305 c -0.002,-0.004 -0.005,-0.008 -0.006,-0.008 -0.001,0 -7e-5,0.004 0.002,0.008 0.002,0.004 0.005,0.008 0.006,0.008 0.001,0 7e-5,-0.004 -0.002,-0.008 z m -0.0117,-0.0195 c -0.002,-0.004 -0.005,-0.008 -0.006,-0.008 -10e-4,0 -7e-5,0.004 0.002,0.008 0.002,0.004 0.005,0.008 0.006,0.008 0.001,0 7e-5,-0.004 -0.002,-0.008 z m -0.0117,-0.0195 c -0.002,-0.004 -0.005,-0.008 -0.006,-0.008 -0.001,0 -7e-5,0.004 0.002,0.008 0.002,0.004 0.005,0.008 0.006,0.008 0.001,0 7e-5,-0.004 -0.002,-0.008 z m -0.0117,-0.0195 c -0.002,-0.004 -0.005,-0.008 -0.006,-0.008 -0.001,0 -7e-5,0.004 0.002,0.008 0.002,0.004 0.005,0.008 0.006,0.008 0.001,0 7e-5,-0.004 -0.002,-0.008 z m -0.0273,-0.0469 c -0.002,-0.004 -0.005,-0.008 -0.006,-0.008 -0.001,0 -7e-5,0.004 0.002,0.008 0.002,0.004 0.005,0.008 0.006,0.008 0.001,0 7e-5,-0.004 -0.002,-0.008 z m -0.0117,-0.0195 c -0.002,-0.004 -0.005,-0.008 -0.006,-0.008 -0.001,0 -7e-5,0.004 0.002,0.008 0.002,0.004 0.005,0.008 0.006,0.008 0.001,0 7e-5,-0.004 -0.002,-0.008 z m -0.0117,-0.0195 c -0.002,-0.004 -0.005,-0.008 -0.006,-0.008 -0.001,0 -7e-5,0.004 0.002,0.008 0.002,0.004 0.005,0.008 0.006,0.008 10e-4,0 7e-5,-0.004 -0.002,-0.008 z m -0.0273,-0.0469 c -0.002,-0.004 -0.005,-0.008 -0.006,-0.008 -0.001,0 -7e-5,0.004 0.002,0.008 0.002,0.004 0.005,0.008 0.006,0.008 0.001,0 7e-5,-0.004 -0.002,-0.008 z m -0.0117,-0.0195 c -0.002,-0.004 -0.005,-0.008 -0.006,-0.008 -10e-4,0 -7e-5,0.004 0.002,0.008 0.002,0.004 0.005,0.008 0.006,0.008 0.001,0 7e-5,-0.004 -0.002,-0.008 z m -0.0117,-0.0195 c -0.002,-0.004 -0.005,-0.008 -0.006,-0.008 -0.001,0 -7e-5,0.004 0.002,0.008 0.002,0.004 0.005,0.008 0.006,0.008 0.001,0 7e-5,-0.004 -0.002,-0.008 z m -0.0273,-0.0469 c -0.002,-0.004 -0.005,-0.008 -0.006,-0.008 -0.001,0 -7e-5,0.004 0.002,0.008 0.002,0.004 0.005,0.008 0.006,0.008 10e-4,0 7e-5,-0.004 -0.002,-0.008 z m -0.0273,-0.0469 c -0.002,-0.004 -0.005,-0.008 -0.006,-0.008 -0.001,0 -7e-5,0.004 0.002,0.008 0.002,0.004 0.005,0.008 0.006,0.008 10e-4,0 7e-5,-0.004 -0.002,-0.008 z m -0.0156,-0.0274 c -0.002,-0.004 -0.005,-0.008 -0.006,-0.008 -0.001,0 -7e-5,0.004 0.002,0.008 0.002,0.004 0.005,0.008 0.006,0.008 0.001,0 7e-5,-0.004 -0.002,-0.008 z m -0.043,-0.0742 c -0.002,-0.004 -0.005,-0.008 -0.006,-0.008 -10e-4,0 -7e-5,0.004 0.002,0.008 0.002,0.004 0.005,0.008 0.006,0.008 0.001,0 7e-5,-0.004 -0.002,-0.008 z m -0.0156,-0.0273 c -0.002,-0.004 -0.005,-0.008 -0.006,-0.008 -0.001,0 -7e-5,0.004 0.002,0.008 0.002,0.004 0.005,0.008 0.006,0.008 0.001,0 7e-5,-0.004 -0.002,-0.008 z m -0.019,-0.0323 c -0.004,-0.004 -0.004,-0.003 -0.002,0.002 0.001,0.004 0.004,0.006 0.005,0.005 0.001,-10e-4 0,-0.004 -0.003,-0.007 z m -0.0109,-0.0206 c -10e-4,-0.003 -0.003,-0.005 -0.004,-0.004 -0.001,0.001 -7e-4,0.004 7.1e-4,0.006 0.004,0.006 0.006,0.005 0.003,-0.002 z m -0.0664,-0.11719 c -0.001,-0.003 -0.003,-0.005 -0.004,-0.004 -0.001,0.001 -7e-4,0.004 7.2e-4,0.006 0.004,0.006 0.006,0.005 0.003,-0.002 z m -0.0209,-0.0369 c -0.002,-0.004 -0.005,-0.008 -0.006,-0.008 -10e-4,0 -7e-5,0.004 0.002,0.008 0.002,0.004 0.005,0.008 0.006,0.008 0.001,0 7e-5,-0.004 -0.002,-0.008 z m -0.0391,-0.0703 c -0.002,-0.004 -0.005,-0.008 -0.006,-0.008 -0.001,0 -7e-5,0.004 0.002,0.008 0.002,0.004 0.005,0.008 0.006,0.008 0.001,0 7e-5,-0.004 -0.002,-0.008 z m -0.0195,-0.0352 c -0.002,-0.004 -0.005,-0.008 -0.006,-0.008 -0.001,0 -7e-5,0.004 0.002,0.008 0.002,0.004 0.005,0.008 0.006,0.008 10e-4,0 7e-5,-0.004 -0.002,-0.008 z m -0.0449,-0.082 c -0.003,-0.006 -0.007,-0.0117 -0.008,-0.0117 -0.001,0 7.8e-4,0.005 0.004,0.0117 0.003,0.006 0.007,0.0117 0.008,0.0117 10e-4,0 -7.7e-4,-0.005 -0.004,-0.0117 z m -0.0234,-0.043 c -0.003,-0.006 -0.007,-0.0117 -0.008,-0.0117 -0.001,0 7.8e-4,0.005 0.004,0.0117 0.003,0.006 0.007,0.0117 0.008,0.0117 0.001,0 -7.7e-4,-0.005 -0.004,-0.0117 z m -0.0254,-0.0469 c -0.004,-0.009 -0.009,-0.0156 -0.01,-0.0156 -0.001,0 0.002,0.007 0.006,0.0156 0.004,0.009 0.009,0.0156 0.01,0.0156 0.001,0 -0.002,-0.007 -0.006,-0.0156 z m -0.0273,-0.0508 c -0.004,-0.009 -0.009,-0.0156 -0.01,-0.0156 -0.001,0 0.002,0.007 0.006,0.0156 0.004,0.009 0.009,0.0156 0.01,0.0156 0.001,0 -0.002,-0.007 -0.006,-0.0156 z m -0.0293,-0.0547 c -0.005,-0.0108 -0.0108,-0.0195 -0.0119,-0.0195 -10e-4,0 0.003,0.009 0.008,0.0195 0.005,0.0107 0.0108,0.0195 0.0119,0.0195 0.001,0 -0.002,-0.009 -0.008,-0.0195 z m -0.0312,-0.0586 c -0.005,-0.0107 -0.0108,-0.0195 -0.0119,-0.0195 -0.001,0 0.003,0.009 0.008,0.0195 0.005,0.0107 0.0108,0.0195 0.0119,0.0195 10e-4,0 -0.002,-0.009 -0.008,-0.0195 z m -0.0371,-0.0703 c -0.007,-0.0129 -0.0127,-0.0234 -0.0138,-0.0234 -0.001,0 0.003,0.0105 0.01,0.0234 0.007,0.0129 0.0127,0.0234 0.0138,0.0234 10e-4,0 -0.003,-0.0105 -0.01,-0.0234 z m -0.0371,-0.0703 c -0.01,-0.0193 -0.0185,-0.0352 -0.0196,-0.0352 -10e-4,0 0.006,0.0158 0.0157,0.0352 0.01,0.0193 0.0185,0.0352 0.0196,0.0352 0.001,0 -0.006,-0.0158 -0.0157,-0.0352 z m -0.041,-0.0781 c -0.009,-0.0172 -0.0166,-0.0312 -0.0177,-0.0312 -0.001,0 0.005,0.0141 0.0137,0.0312 0.009,0.0172 0.0166,0.0312 0.0177,0.0312 0.001,0 -0.005,-0.0141 -0.0138,-0.0312 z m -0.15709,-0.30647 c -0.0133,-0.0268 -0.0248,-0.048 -0.0256,-0.0473 -0.002,0.002 0.0454,0.0959 0.048,0.0959 10e-4,0 -0.009,-0.0219 -0.0223,-0.0487 z m -0.0866,-0.1765 c -0.0247,-0.0491 -0.045,-0.088 -0.0451,-0.0864 -3e-4,0.004 0.0871,0.17862 0.0888,0.17702 7.4e-4,-7.4e-4 -0.0189,-0.0415 -0.0436,-0.0906 z m -0.0801,-0.16408 c -0.0129,-0.0255 -0.0236,-0.045 -0.0237,-0.0434 -3e-4,0.004 0.0442,0.0927 0.0458,0.0911 7.6e-4,-7.6e-4 -0.009,-0.0222 -0.0221,-0.0477 z m -0.0605,-0.12503 c -0.005,-0.0104 -0.01,-0.0177 -0.01,-0.0161 -2.8e-4,0.004 0.0167,0.0382 0.0184,0.0365 8.2e-4,-8.2e-4 -0.003,-0.01 -0.008,-0.0204 z m -0.0391,-0.0821 c -0.003,-0.006 -0.006,-0.01 -0.006,-0.008 -2.7e-4,0.005 0.009,0.0228 0.0105,0.0211 8.9e-4,-9e-4 -0.001,-0.007 -0.004,-0.0127 z m -0.08,-0.8344 c -0.004,-0.004 -0.004,-0.003 -0.002,0.002 10e-4,0.004 0.004,0.006 0.005,0.005 0.001,-0.001 0,-0.004 -0.003,-0.007 z m -0.37414,-0.19249 c -0.001,-0.003 -0.003,-0.005 -0.004,-0.004 -10e-4,0.001 -7.1e-4,0.004 7.1e-4,0.006 0.004,0.006 0.006,0.005 0.003,-0.002 z"
   id="path891"
   inkscape:connector-curvature="0" /><path
   style="fill:#d57a66;fill-opacity:1;stroke:none;stroke-width:0.02015256;stroke-linecap:round;stroke-linejoin:bevel;stroke-miterlimit:4;stroke-dasharray:none;stroke-opacity:1"
   d="m 145.31617,154.96751 v -1.72071 h 1.95514 1.95514 l 0.006,0.0127 c 0.003,0.007 0.0155,0.0356 0.0273,0.0635 0.0121,0.0287 0.021,0.0457 0.0205,0.0391 -9.5e-4,-0.0114 -4.8e-4,-0.0118 0.0205,-0.0143 0.0118,-0.001 0.0645,-0.003 0.11719,-0.003 0.0526,-4.2e-4 0.1048,-0.002 0.11592,-0.003 l 0.0202,-0.003 -0.0171,-0.041 c -0.009,-0.0226 -0.0172,-0.0432 -0.0173,-0.0459 -1.2e-4,-0.004 0.34066,-0.005 1.69125,-0.005 h 1.6914 l 9.8e-4,1.72071 9.9e-4,1.7207 h -0.9694 -0.9694 l -0.008,-0.0107 c -0.006,-0.008 -0.007,-0.008 -0.004,-0.002 0.002,0.005 0.004,0.01 0.004,0.0107 0,0.001 -1.26914,0.002 -2.82031,0.002 h -2.82031 z m 5.6289,1.68945 c -0.002,-0.004 -0.005,-0.008 -0.006,-0.008 -10e-4,0 -7e-5,0.004 0.002,0.008 0.002,0.004 0.005,0.008 0.006,0.008 0.001,0 7e-5,-0.004 -0.002,-0.008 z m -0.0391,-0.0664 c -0.002,-0.004 -0.005,-0.008 -0.006,-0.008 -0.001,0 -7e-5,0.004 0.002,0.008 0.002,0.004 0.005,0.008 0.006,0.008 0.001,0 7e-5,-0.004 -0.002,-0.008 z m -0.0625,-0.10546 c -0.002,-0.004 -0.005,-0.008 -0.006,-0.008 -0.001,0 -7e-5,0.004 0.002,0.008 0.002,0.004 0.005,0.008 0.006,0.008 0.001,0 7e-5,-0.004 -0.002,-0.008 z m -0.0117,-0.0195 c -0.002,-0.004 -0.005,-0.008 -0.006,-0.008 -0.001,0 -7e-5,0.004 0.002,0.008 0.002,0.004 0.005,0.008 0.006,0.008 0.001,0 7e-5,-0.004 -0.002,-0.008 z m -0.0391,-0.0664 c -0.002,-0.004 -0.005,-0.008 -0.006,-0.008 -10e-4,0 -7e-5,0.004 0.002,0.008 0.002,0.004 0.005,0.008 0.006,0.008 0.001,0 7e-5,-0.004 -0.002,-0.008 z m -0.0117,-0.0195 c -0.002,-0.004 -0.005,-0.008 -0.006,-0.008 -0.001,0 -7e-5,0.004 0.002,0.008 0.002,0.004 0.005,0.008 0.006,0.008 0.001,0 7e-5,-0.004 -0.002,-0.008 z m -0.31506,-0.55291 c -0.001,-0.003 -0.003,-0.005 -0.004,-0.004 -10e-4,0.001 -7e-4,0.004 7.1e-4,0.006 0.004,0.006 0.006,0.005 0.003,-0.002 z m -0.0717,-0.13069 c -0.002,-0.004 -0.005,-0.008 -0.006,-0.008 -10e-4,0 -7e-5,0.004 0.002,0.008 0.002,0.004 0.005,0.008 0.006,0.008 0.001,0 7e-5,-0.004 -0.002,-0.008 z m -0.0234,-0.043 c -0.002,-0.004 -0.005,-0.008 -0.006,-0.008 -0.001,0 -7e-5,0.004 0.002,0.008 0.002,0.004 0.005,0.008 0.006,0.008 0.001,0 7e-5,-0.004 -0.002,-0.008 z m -0.0273,-0.0508 c -0.002,-0.004 -0.005,-0.008 -0.006,-0.008 -0.001,0 -7e-5,0.004 0.002,0.008 0.002,0.004 0.005,0.008 0.006,0.008 0.001,0 7e-5,-0.004 -0.002,-0.008 z m -0.0293,-0.0547 c -0.003,-0.006 -0.007,-0.0117 -0.008,-0.0117 -0.001,0 7.8e-4,0.005 0.004,0.0117 0.003,0.006 0.007,0.0117 0.008,0.0117 0.001,0 -7.7e-4,-0.005 -0.004,-0.0117 z m -0.0332,-0.0625 c -0.004,-0.009 -0.009,-0.0156 -0.01,-0.0156 -10e-4,0 0.002,0.007 0.006,0.0156 0.004,0.009 0.009,0.0156 0.01,0.0156 0.001,0 -0.002,-0.007 -0.006,-0.0156 z m -0.0352,-0.0664 c -0.004,-0.009 -0.009,-0.0156 -0.01,-0.0156 -10e-4,0 0.002,0.007 0.006,0.0156 0.004,0.009 0.009,0.0156 0.01,0.0156 0.001,0 -0.002,-0.007 -0.006,-0.0156 z m -0.0391,-0.0742 c -0.007,-0.0129 -0.0127,-0.0234 -0.0138,-0.0234 -0.001,0 0.003,0.0105 0.01,0.0234 0.007,0.0129 0.0127,0.0234 0.0138,0.0234 0.001,0 -0.003,-0.0105 -0.01,-0.0234 z m -0.041,-0.0781 c -0.005,-0.0108 -0.0108,-0.0195 -0.0119,-0.0195 -0.001,0 0.002,0.009 0.008,0.0195 0.005,0.0107 0.0108,0.0195 0.0119,0.0195 0.001,0 -0.002,-0.009 -0.008,-0.0195 z m -0.15295,-0.299 c -10e-4,-0.003 -0.003,-0.005 -0.004,-0.004 -0.001,0.001 -7e-4,0.004 7.2e-4,0.006 0.004,0.006 0.006,0.005 0.003,-0.002 z m -0.0868,-0.17617 c -0.0172,-0.0341 -0.0314,-0.0606 -0.0315,-0.059 -3e-4,0.004 0.0598,0.12396 0.0614,0.12235 7.5e-4,-7.5e-4 -0.0127,-0.0292 -0.0299,-0.0633 z m -0.082,-0.16799 c -0.009,-0.0169 -0.0158,-0.0294 -0.0159,-0.0278 -2.9e-4,0.004 0.0285,0.0615 0.0301,0.0599 7.8e-4,-7.8e-4 -0.006,-0.0152 -0.0143,-0.0321 z m -0.0605,-0.12505 c -0.003,-0.006 -0.006,-0.01 -0.006,-0.008 -2.6e-4,0.005 0.009,0.0228 0.0105,0.0211 9e-4,-9e-4 -0.001,-0.007 -0.004,-0.0127 z"
   id="path893"
   inkscape:connector-curvature="0" /><path
   style="fill:#d57a66;fill-opacity:1;stroke:none;stroke-width:0.02015256;stroke-linecap:round;stroke-linejoin:bevel;stroke-miterlimit:4;stroke-dasharray:none;stroke-opacity:1"
   d="m 145.31617,154.9675 v -1.7207 l 1.956,9.8e-4 1.95601,9.8e-4 0.0232,0.0554 c 0.0195,0.0464 0.024,0.0544 0.0279,0.0491 0.004,-0.006 0.0214,-0.007 0.13804,-0.009 0.0734,-0.001 0.13409,-0.003 0.13494,-0.004 8.5e-4,-8.5e-4 -0.006,-0.02 -0.0156,-0.0426 -0.009,-0.0226 -0.0172,-0.0432 -0.0173,-0.0459 -1.2e-4,-0.004 0.34066,-0.005 1.69125,-0.005 h 1.6914 l 9.8e-4,1.72071 9.9e-4,1.7207 h -0.96951 -0.9695 l -0.006,-0.009 -0.006,-0.009 0.003,0.009 0.003,0.009 h -2.82058 -2.82057 z m 4.99744,0.57796 c -0.001,-0.003 -0.003,-0.005 -0.004,-0.004 -0.001,0.001 -7.1e-4,0.004 7.1e-4,0.006 0.004,0.006 0.006,0.005 0.003,-0.002 z m -0.0306,-0.0565 c -0.003,-0.006 -0.007,-0.0117 -0.008,-0.0117 -0.001,0 7.8e-4,0.005 0.004,0.0117 0.003,0.006 0.007,0.0117 0.008,0.0117 0.001,0 -7.7e-4,-0.005 -0.004,-0.0117 z m -0.0371,-0.0703 c -0.002,-0.004 -0.005,-0.008 -0.006,-0.008 -0.001,0 -7e-5,0.004 0.002,0.008 0.002,0.004 0.005,0.008 0.006,0.008 0.001,0 7e-5,-0.004 -0.002,-0.008 z m -0.0391,-0.0742 c -0.004,-0.009 -0.009,-0.0156 -0.01,-0.0156 -0.001,0 0.002,0.007 0.006,0.0156 0.004,0.009 0.009,0.0156 0.01,0.0156 0.001,0 -0.002,-0.007 -0.006,-0.0156 z m -0.041,-0.0781 c -0.003,-0.006 -0.007,-0.0117 -0.008,-0.0117 -0.001,0 7.8e-4,0.005 0.004,0.0117 0.003,0.006 0.007,0.0117 0.008,0.0117 10e-4,0 -7.7e-4,-0.005 -0.004,-0.0117 z m -0.24175,-0.47909 c -0.0118,-0.0233 -0.0216,-0.0411 -0.0217,-0.0395 -3e-4,0.004 0.0402,0.0849 0.0419,0.0833 7.6e-4,-7.6e-4 -0.008,-0.0205 -0.0201,-0.0438 z m -0.0801,-0.1641 c -0.004,-0.008 -0.008,-0.0138 -0.008,-0.0122 -2.7e-4,0.004 0.0128,0.0305 0.0145,0.0288 8.5e-4,-8.4e-4 -0.002,-0.008 -0.006,-0.0165 z"
   id="path895"
   inkscape:connector-curvature="0" /><path
   style="fill:#d57a66;fill-opacity:1;stroke:none;stroke-width:0.02015256;stroke-linecap:round;stroke-linejoin:bevel;stroke-miterlimit:4;stroke-dasharray:none;stroke-opacity:1"
   d="m 145.31617,154.9675 v -1.7207 l 1.95584,9.8e-4 1.95585,9.8e-4 0.0232,0.0538 c 0.0193,0.0448 0.0241,0.053 0.0287,0.0492 0.004,-0.003 0.0456,-0.006 0.13657,-0.008 0.0721,-0.002 0.13202,-0.004 0.13326,-0.005 0.001,-0.001 -0.005,-0.0208 -0.014,-0.0434 -0.009,-0.0227 -0.0163,-0.0429 -0.0163,-0.0449 0,-0.002 0.62576,-0.004 1.6914,-0.004 h 1.6914 l 9.8e-4,1.72071 9.9e-4,1.7207 h -0.97136 c -0.77342,0 -0.97175,-9.9e-4 -0.97332,-0.005 -0.002,-0.004 -0.002,-0.004 -0.002,0 -2.4e-4,0.004 -0.56714,0.005 -2.82062,0.005 h -2.82031 z m 4.89062,0.37696 c -0.002,-0.004 -0.005,-0.008 -0.006,-0.008 -0.001,0 -7e-5,0.004 0.002,0.008 0.002,0.004 0.005,0.008 0.006,0.008 0.001,0 7e-5,-0.004 -0.002,-0.008 z m -0.0416,-0.0803 c -0.001,-0.003 -0.003,-0.005 -0.004,-0.004 -0.001,10e-4 -7.1e-4,0.004 7.1e-4,0.006 0.004,0.006 0.006,0.005 0.003,-0.002 z m -0.24113,-0.47697 c -0.008,-0.0147 -0.0138,-0.0255 -0.0139,-0.0239 -2.9e-4,0.004 0.0246,0.0538 0.0262,0.0521 7.9e-4,-7.9e-4 -0.005,-0.0135 -0.0123,-0.0282 z m -0.08,-0.16257 c -0.004,-0.004 -0.004,-0.003 -0.002,0.002 0.001,0.004 0.004,0.006 0.005,0.005 0.001,-0.001 1e-5,-0.004 -0.003,-0.007 z"
   id="path897"
   inkscape:connector-curvature="0" /><ellipse
   style="fill:#d57a66;fill-opacity:1;stroke:none;stroke-width:5.15905523;stroke-linecap:round;stroke-linejoin:bevel;stroke-miterlimit:4;stroke-dasharray:none;stroke-opacity:1"
   id="path921"
   cx="197.875"
   cy="163.25"
   rx="52.375"
   ry="54.25" /><ellipse
   style="fill:#d57a66;fill-opacity:1;stroke:none;stroke-width:5.15905523;stroke-linecap:round;stroke-linejoin:bevel;stroke-miterlimit:4;stroke-dasharray:none;stroke-opacity:1"
   id="path923"
   cx="220.75"
   cy="164.125"
   rx="5.75"
   ry="15.375" /><ellipse
   style="fill:#d57a66;fill-opacity:1;stroke:none;stroke-width:5.15905523;stroke-linecap:round;stroke-linejoin:bevel;stroke-miterlimit:4;stroke-dasharray:none;stroke-opacity:1"
   id="path925"
   cx="216.375"
   cy="141.125"
   rx="1.375"
   ry="7.625" /><ellipse
   style="fill:#d57a66;fill-opacity:1;stroke:none;stroke-width:5.15905523;stroke-linecap:round;stroke-linejoin:bevel;stroke-miterlimit:4;stroke-dasharray:none;stroke-opacity:1"
   id="path927"
   cx="173.625"
   cy="139.25"
   rx="35.125"
   ry="26.25" /><ellipse
   style="fill:#d57a66;fill-opacity:1;stroke:none;stroke-width:5.15905523;stroke-linecap:round;stroke-linejoin:bevel;stroke-miterlimit:4;stroke-dasharray:none;stroke-opacity:1"
   id="path929"
   cx="243.375"
   cy="134.25"
   rx="19.625"
   ry="28.25" /></svg>