<?xml version="1.0" encoding="UTF-8" standalone="no"?>
<svg
   xmlns:dc="http://purl.org/dc/elements/1.1/"
   xmlns:cc="http://creativecommons.org/ns#"
   xmlns:rdf="http://www.w3.org/1999/02/22-rdf-syntax-ns#"
   xmlns:svg="http://www.w3.org/2000/svg"
   xmlns="http://www.w3.org/2000/svg"
   xmlns:sodipodi="http://sodipodi.sourceforge.net/DTD/sodipodi-0.dtd"
   xmlns:inkscape="http://www.inkscape.org/namespaces/inkscape"
   width="24px"
   height="24px"
   viewBox="0 0 24 24"
   id="Layer_1"
   data-name="Layer 1"
   version="1.1"
   sodipodi:docname="Env.svg"
   inkscape:version="0.92.5 (2060ec1f9f, 2020-04-08)">
  <metadata
     id="metadata9">
    <rdf:RDF>
      <cc:Work
         rdf:about="">
        <dc:format>image/svg+xml</dc:format>
        <dc:type
           rdf:resource="http://purl.org/dc/dcmitype/StillImage" />
      </cc:Work>
    </rdf:RDF>
  </metadata>
  <defs
     id="defs7" />
  <sodipodi:namedview
     pagecolor="#ffffff"
     bordercolor="#666666"
     borderopacity="1"
     objecttolerance="10"
     gridtolerance="10"
     guidetolerance="10"
     inkscape:pageopacity="0"
     inkscape:pageshadow="2"
     inkscape:window-width="1366"
     inkscape:window-height="697"
     id="namedview5"
     showgrid="false"
     inkscape:zoom="9.8333333"
     inkscape:cx="-5.8474576"
     inkscape:cy="12"
     inkscape:window-x="0"
     inkscape:window-y="0"
     inkscape:window-maximized="1"
     inkscape:current-layer="Layer_1" />
  <path
     d="M21.707,11.293l-8-8A.99991.99991,0,0,0,12,4V7.54492A11.01525,11.01525,0,0,0,2,18.5V20a1,1,0,0,0,1.78418.62061,11.45625,11.45625,0,0,1,7.88672-4.04932c.0498-.00635.1748-.01611.3291-.02588V20a.99991.99991,0,0,0,1.707.707l8-8A.99962.99962,0,0,0,21.707,11.293ZM14,17.58594V15.5a.99974.99974,0,0,0-1-1c-.25488,0-1.2959.04932-1.56152.085A14.00507,14.00507,0,0,0,4.05176,17.5332,9.01266,9.01266,0,0,1,13,9.5a.99974.99974,0,0,0,1-1V6.41406L19.58594,12Z"
     id="path2"
     style="fill:#d57a66;fill-opacity:1" />
</svg>
