<?xml version="1.0" encoding="UTF-8" standalone="no"?>
<!-- Generator: Adobe Illustrator 19.1.0, SVG Export Plug-In . SVG Version: 6.00 Build 0)  -->

<svg
   version="1.1"
   id="Capa_1"
   x="0px"
   y="0px"
   viewBox="0 0 401.917 401.917"
   style="enable-background:new 0 0 401.917 401.917;"
   xml:space="preserve"
   sodipodi:docname="downloadfromcloud_114826.svg"
   inkscape:version="1.1.2 (0a00cf5339, 2022-02-04, custom)"
   xmlns:inkscape="http://www.inkscape.org/namespaces/inkscape"
   xmlns:sodipodi="http://sodipodi.sourceforge.net/DTD/sodipodi-0.dtd"
   xmlns="http://www.w3.org/2000/svg"
   xmlns:svg="http://www.w3.org/2000/svg"><style
   id="style75">
#g38 { 
}
</style><defs
   id="defs73" /><sodipodi:namedview
   id="namedview71"
   pagecolor="#ffffff"
   bordercolor="#666666"
   borderopacity="1.0"
   inkscape:pageshadow="2"
   inkscape:pageopacity="0.0"
   inkscape:pagecheckerboard="0"
   showgrid="false"
   inkscape:zoom="1.3360968"
   inkscape:cx="200.9585"
   inkscape:cy="200.9585"
   inkscape:window-width="1366"
   inkscape:window-height="715"
   inkscape:window-x="0"
   inkscape:window-y="21"
   inkscape:window-maximized="1"
   inkscape:current-layer="Capa_1" />
<g
   id="g38"
   style="fill:#d57a66;fill-opacity:1">
	<g
   id="g6"
   style="fill:#d57a66;fill-opacity:1">
		<path
   style="fill:#d57a66;fill-opacity:1"
   d="M318.241,333.16l-228.353-0.176C39.703,331.201,0,290.087,0,239.391    c0-48.243,37.321-88.599,84.647-93.258c21.457-47.255,67.883-77.377,120.22-77.377c56.59,0,106.986,36.491,125.055,89.623    c41.538,7.605,71.995,43.603,71.995,86.641c0,43.903-32.803,81.435-76.318,87.276C323.728,332.807,320.94,333.16,318.241,333.16z     M204.867,91.255c-45.438,0-85.511,27.404-102.098,69.806l-2.753,7.023l-7.535,0.141c-38.591,0.671-69.983,32.609-69.983,71.183    c0,38.485,30.174,69.736,68.695,71.112l1.765,0.176l225.301-0.035c0.918,0,1.941-0.141,3.194-0.459    c33.527-4.57,57.966-32.503,57.966-65.183c0-33.95-25.445-62.042-59.201-65.289l-7.676-0.741l-2.082-7.446    C297.295,124.288,253.887,91.255,204.867,91.255z"
   id="path2" />
		<path
   style="fill:#d57a66;fill-opacity:1"
   d="M273.297,235.262c-2.929-5.488-9.776-7.552-15.228-4.606l-36.774,19.728V132.758    c0-6.211-5.047-11.24-11.258-11.24c-6.211,0-11.24,5.047-11.24,11.24v116.374l-35.944-21.934    c-5.294-3.229-12.211-1.553-15.475,3.759c-3.229,5.294-1.553,12.228,3.741,15.475l53.061,32.345    c1.8,1.094,3.829,1.641,5.858,1.641c1.818,0,3.653-0.441,5.311-1.341l53.343-28.586    C274.179,247.561,276.244,240.732,273.297,235.262z"
   id="path4" />
	</g>
	<g
   id="g8"
   style="fill:#d57a66;fill-opacity:1">
	</g>
	<g
   id="g10"
   style="fill:#d57a66;fill-opacity:1">
	</g>
	<g
   id="g12"
   style="fill:#d57a66;fill-opacity:1">
	</g>
	<g
   id="g14"
   style="fill:#d57a66;fill-opacity:1">
	</g>
	<g
   id="g16"
   style="fill:#d57a66;fill-opacity:1">
	</g>
	<g
   id="g18"
   style="fill:#d57a66;fill-opacity:1">
	</g>
	<g
   id="g20"
   style="fill:#d57a66;fill-opacity:1">
	</g>
	<g
   id="g22"
   style="fill:#d57a66;fill-opacity:1">
	</g>
	<g
   id="g24"
   style="fill:#d57a66;fill-opacity:1">
	</g>
	<g
   id="g26"
   style="fill:#d57a66;fill-opacity:1">
	</g>
	<g
   id="g28"
   style="fill:#d57a66;fill-opacity:1">
	</g>
	<g
   id="g30"
   style="fill:#d57a66;fill-opacity:1">
	</g>
	<g
   id="g32"
   style="fill:#d57a66;fill-opacity:1">
	</g>
	<g
   id="g34"
   style="fill:#d57a66;fill-opacity:1">
	</g>
	<g
   id="g36"
   style="fill:#d57a66;fill-opacity:1">
	</g>
</g>
<g
   id="g40">
</g>
<g
   id="g42">
</g>
<g
   id="g44">
</g>
<g
   id="g46">
</g>
<g
   id="g48">
</g>
<g
   id="g50">
</g>
<g
   id="g52">
</g>
<g
   id="g54">
</g>
<g
   id="g56">
</g>
<g
   id="g58">
</g>
<g
   id="g60">
</g>
<g
   id="g62">
</g>
<g
   id="g64">
</g>
<g
   id="g66">
</g>
<g
   id="g68">
</g>
</svg>
